<svg width="30" height="30" viewBox="0 0 30 30" fill="none" xmlns="http://www.w3.org/2000/svg">
<path fill-rule="evenodd" clip-rule="evenodd" d="M14.7787 29.2175C6.91289 29.2265 0.4808 22.8056 0.470727 14.9353C0.460654 7.07395 6.88379 0.644091 14.7597 0.632899C22.6154 0.621707 29.0632 7.05828 29.071 14.9185C29.0777 22.7809 22.6534 29.2097 14.7787 29.2175ZM10.2146 11.3359C10.0422 11.3359 9.95266 11.3728 9.89782 11.5564C9.23861 13.7847 9.23301 16.0108 9.87992 18.2425C9.94147 18.4541 10.0277 18.5167 10.2414 18.5156C13.2599 18.5089 16.2784 18.5089 19.2969 18.5156C19.5107 18.5156 19.598 18.4529 19.6584 18.2425C20.2986 16.0299 20.3031 13.8217 19.6562 11.6101C19.5946 11.3997 19.5118 11.3337 19.2969 11.3348C17.7972 11.3437 16.2975 11.3393 14.7966 11.3393C13.2711 11.3393 11.7434 11.3415 10.2146 11.3359ZM7.42325 11.3471C6.12833 11.3437 4.83452 11.3393 3.5396 11.3471C3.47133 11.3471 3.35829 11.4467 3.34485 11.515C3.17474 12.3611 2.95201 13.2039 2.87479 14.0601C2.7472 15.4781 2.91284 16.8816 3.30568 18.256C3.36052 18.4485 3.43887 18.519 3.64704 18.5179C4.839 18.5067 6.03208 18.5123 7.22403 18.5123C7.30685 18.5123 7.38856 18.5044 7.51167 18.4988C6.88827 16.1138 6.88491 13.7422 7.50719 11.3851C7.45683 11.3616 7.44004 11.3471 7.42325 11.3471ZM22.1442 18.5078C23.4291 18.51 24.715 18.5134 25.9999 18.5044C26.0693 18.5044 26.1857 18.4071 26.1991 18.3399C26.3692 17.4938 26.5908 16.651 26.6669 15.7948C26.7934 14.3768 26.6311 12.9722 26.2338 11.5989C26.179 11.4098 26.1084 11.3314 25.8958 11.3337C24.8896 11.346 23.8835 11.3393 22.8784 11.3393C22.6098 11.3393 22.3412 11.3393 22.0233 11.3393C22.6534 13.7388 22.6546 16.1104 22.0345 18.4753C22.0916 18.4921 22.1173 18.5078 22.1442 18.5078ZM18.5706 20.904H10.932C11.9527 22.9242 13.2174 24.7239 14.7664 26.349C16.0087 25.1581 18.3736 21.7658 18.5706 20.904ZM18.6064 8.94526C17.589 6.92397 16.3243 5.12429 14.7709 3.49584C13.2185 5.12429 11.9516 6.92285 10.9364 8.94526H18.6064ZM24.7363 20.8805C23.6753 20.8805 22.6143 20.8895 21.5533 20.8738C21.3126 20.8704 21.1895 20.9398 21.0922 21.1603C20.2942 22.9746 19.2578 24.6455 18.03 26.2001C17.9875 26.2538 17.9561 26.3143 17.8767 26.4385C21.0328 25.5152 23.3932 23.6897 25.1068 20.8805H25.1056C24.9344 20.8805 24.8359 20.8805 24.7363 20.8805ZM11.5834 26.2919C10.2929 24.6892 9.23189 22.9477 8.40256 21.0652C8.33205 20.9051 8.22908 20.8783 8.07687 20.8783C6.9599 20.8827 5.84293 20.8794 4.72596 20.8816C4.64985 20.8816 4.57263 20.8973 4.45511 20.9107C6.14735 23.6897 8.50888 25.514 11.6539 26.4363C11.6069 26.3389 11.599 26.312 11.5834 26.2919ZM17.9696 3.5753C19.2488 5.18472 20.3177 6.92174 21.1604 8.79865C21.1985 8.88371 21.3552 8.96205 21.4581 8.96317C22.5841 8.97437 23.7111 8.97101 24.837 8.96989C24.9053 8.96989 24.9747 8.95422 25.0877 8.94079C23.3921 6.16515 21.0328 4.33412 17.8722 3.41413C17.9337 3.51598 17.9483 3.54844 17.9696 3.5753ZM4.79535 8.96989C5.85636 8.96989 6.91737 8.96093 7.97838 8.9766C8.23244 8.97996 8.35331 8.89938 8.45516 8.67106C9.18601 7.03478 10.0847 5.49586 11.186 4.07894C11.3382 3.88308 11.4849 3.68498 11.6348 3.488C8.50888 4.33636 6.144 6.16179 4.43496 8.96989H4.43608C4.60061 8.96989 4.69798 8.96989 4.79535 8.96989Z" fill="#979797"/>
</svg>
