<svg width="30" height="30" viewBox="0 0 30 30" fill="none" xmlns="http://www.w3.org/2000/svg">
<path fill-rule="evenodd" clip-rule="evenodd" d="M1.37419 27.6376C1.79024 25.7444 2.21082 23.8523 2.61894 21.958C2.64275 21.8446 2.60647 21.6984 2.55092 21.5918C1.7789 20.0988 1.24495 18.5253 1.02842 16.8588C0.598768 13.544 1.22908 10.431 2.99645 7.59461C5.32724 3.85696 8.69192 1.57491 13.0406 0.834636C20.6712 -0.463398 28.1296 4.63464 29.5772 12.2483C30.6134 17.6943 28.9016 22.2958 24.7365 25.9473C22.6755 27.7544 20.2393 28.8223 17.5276 29.2168C14.6175 29.6396 11.8185 29.227 9.15672 27.963C8.9572 27.8677 8.78148 27.8451 8.56722 27.895C6.04597 28.4754 3.52246 29.0467 0.942265 29.634C1.09191 28.9379 1.23135 28.2872 1.37419 27.6376ZM8.98781 25.4916C9.13178 25.4599 9.3211 25.5063 9.45601 25.5789C12.1892 27.0549 15.0733 27.4596 18.1035 26.7987C24.6232 25.3782 28.7542 18.8847 27.294 12.3628C25.8135 5.74789 18.93 1.55564 12.3548 3.29807C8.54228 4.30815 5.80224 6.63668 4.17318 10.2292C3.30253 12.1485 3.00438 14.1777 3.23791 16.2727C3.43404 18.0288 4.02127 19.6567 4.91345 21.1803C4.99168 21.313 5.04042 21.5057 5.01095 21.6508C4.81143 22.628 4.58469 23.5984 4.3693 24.5722C4.22193 25.2411 4.07909 25.9111 3.92491 26.6253C5.64579 26.2376 7.31453 25.8555 8.98781 25.4916Z" fill="#8A8A8A"/>
<path d="M12.265 9.41884C12.57 10.1886 12.8851 10.9538 13.2105 11.7145C13.3125 11.9526 13.3273 12.1793 13.1788 12.3845C12.943 12.7098 12.697 13.0307 12.4294 13.3311C12.1075 13.6939 12.087 13.7811 12.3364 14.1949C13.4021 15.9646 14.8792 17.2535 16.7985 18.0312C17.1556 18.1763 17.2894 18.1536 17.5377 17.8544C17.8687 17.4553 18.1997 17.0563 18.5137 16.6448C18.6996 16.401 18.9139 16.2956 19.1962 16.4294C20.1394 16.8749 21.0837 17.3215 22.0145 17.7943C22.129 17.8521 22.2264 18.072 22.2242 18.2137C22.2049 19.0934 21.9748 19.8655 21.1994 20.4221C20.1632 21.1646 19.0613 21.236 17.8641 20.9492C14.7217 20.1976 12.3319 18.3872 10.4852 15.79C9.88436 14.9454 9.27558 14.1042 8.9729 13.093C8.56365 11.7281 8.73256 10.4686 9.6769 9.35762C10.1734 8.77379 10.3741 8.68083 11.2266 8.68083C11.7617 8.54706 12.0598 8.89963 12.265 9.41884Z" fill="#8A8A8A"/>
</svg>
