<svg width="30" height="26" viewBox="0 0 30 26" fill="none" xmlns="http://www.w3.org/2000/svg">
<path fill-rule="evenodd" clip-rule="evenodd" d="M21.2538 24.8056C19.5654 23.423 17.8711 22.0463 16.1885 20.6551C16.0066 20.505 15.8998 20.5137 15.7209 20.6494C14.2893 21.7317 12.8519 22.8025 11.4146 23.8762C11.3251 23.9426 11.2385 24.0118 11.1462 24.0725C10.566 24.4448 9.97723 24.2427 9.80405 23.576C9.60779 22.8256 9.46059 22.0665 9.29896 21.3074C8.8487 19.2149 8.39556 17.1224 7.95108 15.0298C7.91355 14.8509 7.81542 14.7758 7.65956 14.7066C5.70557 13.8551 3.75157 13.0037 1.80046 12.1436C0.718117 11.6673 0.357335 10.4782 1.00097 9.54881C1.24342 9.19958 1.58688 8.99465 1.9823 8.86477C10.0176 6.22096 18.053 3.57138 26.0883 0.930451C26.5155 0.789025 26.9542 0.627394 27.3958 0.607191C28.4926 0.558124 29.3238 1.56543 29.0814 2.63623C28.5474 4.9943 27.9875 7.34371 27.4362 9.69601C26.3336 14.3833 25.2282 19.0706 24.1285 23.7579C23.9092 24.6901 23.2627 25.2529 22.4632 25.2472C21.9523 25.2501 21.5857 25.0769 21.2538 24.8056ZM2.31422 10.5244C2.46142 10.5994 2.53646 10.6456 2.61727 10.6831C4.52798 11.5201 6.44156 12.3543 8.34938 13.1942C8.51967 13.2692 8.64955 13.2577 8.81118 13.1682C11.8042 11.4999 14.8002 9.83744 17.7961 8.17207C18.991 7.50823 20.1859 6.84728 21.3808 6.18055C21.7272 5.98717 22.0793 5.92079 22.417 6.18055C22.873 6.52979 22.8644 7.06375 22.3997 7.54864C20.1946 9.85476 17.9866 12.1609 15.7786 14.467C15.1205 15.1539 14.4625 15.8437 13.7929 16.5451C16.6733 18.9032 19.5394 21.2439 22.4343 23.6135C24.1141 16.4729 25.7824 9.39007 27.4651 2.23504H27.4679C19.066 5.00296 10.7219 7.75356 2.31422 10.5244ZM10.7017 19.8672C10.7681 19.821 10.7854 19.7806 10.7969 19.7373C11.0913 18.7098 11.3742 17.6765 11.6917 16.6577C11.7783 16.3777 11.9283 16.092 12.1275 15.8784C13.7957 14.1091 15.4813 12.3571 17.164 10.5994C17.2246 10.5359 17.2823 10.4638 17.3401 10.3974L17.3054 10.3599C14.7338 11.7885 12.1621 13.2172 9.57604 14.6517C9.95702 16.4123 10.3294 18.1412 10.7017 19.8672ZM14.6241 19.3852C14.0873 18.9465 13.5677 18.5222 13.0193 18.0748C12.7163 19.1341 12.419 20.1645 12.1044 21.2728C12.9847 20.6147 13.7957 20.0057 14.6241 19.3852Z" fill="#8A8A8A"/>
</svg>
