<svg width="29" height="28" viewBox="0 0 29 28" fill="none" xmlns="http://www.w3.org/2000/svg">
<path fill-rule="evenodd" clip-rule="evenodd" d="M6.3479 27.2175C5.26748 27.2164 4.23412 26.9948 3.28931 26.446C1.2708 25.2734 0.231842 23.4747 0.212789 21.1443C0.173562 16.3232 0.187011 11.5009 0.206064 6.67984C0.218393 3.55516 2.42856 1.05656 5.48267 0.655464C5.77743 0.616831 6.0778 0.607741 6.37592 0.607741C11.8061 0.605469 17.2362 0.605469 22.6664 0.605469C24.2366 0.605469 25.6521 1.07133 26.8278 2.1394C28.1525 3.34382 28.8329 4.87548 28.8373 6.67984C28.8508 11.5009 28.8564 16.3232 28.8373 21.1443C28.825 24.2689 26.6148 26.7675 23.5607 27.1686C23.2469 27.2095 22.9275 27.2164 22.6114 27.2175C19.9149 27.2209 17.2194 27.2198 14.5228 27.2198L14.5206 27.2186C11.796 27.2186 9.0725 27.2209 6.3479 27.2175ZM26.3683 8.46943C26.3022 8.55806 26.245 8.65691 26.1677 8.73531C23.73 11.2112 21.2968 13.6916 18.8479 16.1561C17.1847 17.8298 15.1986 18.3945 12.9201 17.8116C11.8352 17.5344 10.9375 16.9151 10.1518 16.1186C7.71973 13.6507 5.28653 11.1839 2.85333 8.71713C2.77936 8.64214 2.70203 8.57169 2.57426 8.45011C2.57426 8.64555 2.57426 8.7569 2.57426 8.86939C2.57426 11.043 2.57426 13.2178 2.57426 15.3914C2.57538 17.3856 2.55296 19.3808 2.58995 21.3749C2.62357 23.2361 4.21843 24.8052 6.05538 24.8086C11.6985 24.8189 17.3427 24.8189 22.9858 24.7996C23.4375 24.7984 23.925 24.6859 24.3341 24.4916C25.7518 23.8201 26.4647 22.6555 26.4669 21.0636C26.4703 16.9708 26.468 12.8781 26.468 8.7853V8.53419C26.4344 8.51147 26.4019 8.49102 26.3683 8.46943ZM6.25376 3.0109C4.7508 3.01317 3.66589 3.72219 2.94187 5.0391C2.83204 5.23908 2.86006 5.35839 3.02145 5.52087C5.96908 8.49556 8.90775 11.4793 11.8509 14.4586C13.4054 16.0323 15.6133 16.0493 17.1667 14.4813C20.1345 11.4862 23.0911 8.48079 26.0556 5.48337C26.1811 5.35725 26.2091 5.26294 26.1228 5.09705C25.4134 3.73924 24.3173 3.01658 22.7919 3.01204C20.0404 3.00522 17.2889 3.00977 14.5363 3.00977L14.5374 3.0109C11.7758 3.0109 9.01534 3.00863 6.25376 3.0109Z" fill="white"/>
</svg>
