<svg width="51" height="52" viewBox="0 0 51 52" fill="none" xmlns="http://www.w3.org/2000/svg">
<path fill-rule="evenodd" clip-rule="evenodd" d="M25.4485 51.978C39.3706 51.978 50.6568 40.5501 50.6568 26.453C50.6568 12.3559 39.3706 0.927979 25.4485 0.927979C11.5264 0.927979 0.240234 12.3559 0.240234 26.453C0.240234 40.5501 11.5264 51.978 25.4485 51.978ZM25.4483 50.3831C12.3963 50.3831 1.81555 39.6694 1.81555 26.4534C1.81555 13.2374 12.3963 2.52368 25.4483 2.52368C38.5003 2.52368 49.0811 13.2374 49.0811 26.4534C49.0811 39.6694 38.5003 50.3831 25.4483 50.3831ZM27.8129 18.4775L34.9131 25.6515H12.8428V27.2518H34.9131L27.8129 34.4307H30.177L38.051 26.4484L30.177 18.4775H27.8129Z" fill="#7C7C7C"/>
</svg>
