<svg width="22" height="25" viewBox="0 0 22 25" fill="none" xmlns="http://www.w3.org/2000/svg">
<path fill-rule="evenodd" clip-rule="evenodd" d="M7.50481 14.02L15.1598 18.92C15.9199 17.97 16.965 17.4 18.2001 17.4C20.2901 17.4 22.0001 19.1099 22.0001 21.2C22.0001 23.2901 20.2901 25 18.2001 25C16.11 25 14.4001 23.2901 14.4001 21.2C14.4001 21.105 14.4238 21.01 14.4476 20.915C14.4713 20.82 14.4951 20.725 14.4951 20.63L6.84008 15.73C6.07997 16.68 5.03494 17.25 3.8 17.25C1.70993 17.25 0 15.5401 0 13.45C0 11.3599 1.70993 9.65001 3.8 9.65001C4.84501 9.65001 5.79501 10.125 6.45994 10.7901L14.5899 4.84504C14.5737 4.77991 14.5574 4.71758 14.5416 4.65707L14.5416 4.65705C14.4651 4.36454 14.3999 4.11484 14.3999 3.8C14.3999 1.70993 16.1098 0 18.1999 0C20.29 0 21.9999 1.70993 21.9999 3.8C21.9999 5.89008 20.29 7.60001 18.1999 7.60001C17.1549 7.60001 16.2049 7.12501 15.4448 6.45994L7.40979 12.405C7.42607 12.4701 7.44236 12.5324 7.45817 12.593C7.5346 12.8855 7.59984 13.1352 7.59984 13.45C7.59984 13.6401 7.59984 13.83 7.50481 14.02ZM20.0999 3.8C20.0999 2.75497 19.2449 1.9 18.1999 1.9C17.1549 1.9 16.2999 2.75497 16.2999 3.8C16.2999 4.84504 17.1549 5.70001 18.1999 5.70001C19.2449 5.70001 20.0999 4.84504 20.0999 3.8ZM3.79988 15.35C2.75484 15.35 1.89987 14.495 1.89987 13.45C1.89987 12.405 2.75484 11.55 3.79988 11.55C4.84491 11.55 5.69988 12.405 5.69988 13.45C5.69988 14.495 4.84491 15.35 3.79988 15.35ZM16.2999 21.2C16.2999 22.2451 17.1549 23.1 18.1999 23.1C19.2449 23.1 20.0999 22.2451 20.0999 21.2C20.0999 20.155 19.2449 19.3 18.1999 19.3C17.1549 19.3 16.2999 20.155 16.2999 21.2Z" fill="#8A8A8A"/>
</svg>
