<svg width="149" height="55" viewBox="0 0 149 55" fill="none" xmlns="http://www.w3.org/2000/svg">
	<mask id="mask0_0_127" style="mask-type:luminance" maskUnits="userSpaceOnUse" x="0" y="0" width="149" height="55">
		<rect x="0.794922" y="0.87207" width="147.967" height="53.7558" fill="white" />
	</mask>
	<g mask="url(#mask0_0_127)">
		<path fill-rule="evenodd" clip-rule="evenodd" d="M114.264 2.38585C115.558 2.70662 116.877 2.93979 118.196 3.13965C118.729 3.22108 119.291 3.09524 119.84 3.09401C120.31 3.09401 120.791 3.07674 121.246 3.16926C123.387 3.606 125.347 4.47331 127.15 5.70703C127.667 6.06111 127.978 6.50525 127.908 7.14556C127.866 7.52678 128.046 7.66125 128.373 7.80683C129.625 8.36571 130.864 8.9542 132.089 9.57106C132.48 9.76845 132.811 10.236 132.432 10.5716C131.872 11.0676 131.898 11.7436 131.632 12.321C131.205 13.2463 130.488 13.7855 129.516 14.0556C129.255 14.1284 129.025 14.3505 128.804 14.5319C128.036 15.166 127.288 15.8285 126.505 16.4454C126.317 16.5934 126.025 16.6082 125.902 16.6465C126.076 15.9506 126.371 15.261 126.395 14.5627C126.433 13.5042 125.724 13.0428 124.695 13.292C123.278 13.6374 121.859 13.9742 120.442 14.316C120.348 14.3382 120.26 14.3776 120.072 14.4418C120.808 14.9649 121.483 15.4201 122.132 15.9112C122.736 16.3689 123.268 16.9426 123.917 17.3151C124.317 17.5434 124.879 17.552 125.365 17.5421C125.713 17.536 126.057 17.3361 126.401 17.2226C126.733 18.0406 126.588 18.4255 125.772 18.8499C125.334 19.0781 124.832 19.1719 124.864 19.8887C124.883 20.323 124.434 20.3698 124.056 20.2563C122.857 19.8949 121.646 19.5642 120.463 19.1546C118.445 18.4563 116.442 17.7112 114.438 16.9722C114.144 16.8636 113.917 16.797 113.685 17.0968C111.857 19.4618 110.17 21.9108 109.103 24.7323C109.045 24.8853 109.002 25.0444 108.96 25.2023C108.95 25.2369 108.971 25.2801 108.986 25.3652C122.511 24.6398 135.686 26.9296 148.761 30.152C148.29 30.152 147.82 30.157 147.348 30.152C138.198 30.0546 129.055 30.2729 119.923 30.8713C113.645 31.2821 107.387 31.8879 101.199 33.0686C98.2085 33.6385 95.2529 34.3393 92.4232 35.4953C92.3504 35.5249 92.2702 35.5385 92.0408 35.6026C93.114 32.4924 94.1538 29.4821 95.2233 26.3855C94.2143 26.3102 93.278 26.2165 92.3405 26.1745C85.2735 25.8562 78.3064 26.6914 71.3911 28.051C60.2102 30.247 49.3956 33.6916 38.7452 37.6852C27.1547 42.0316 15.864 47.0639 4.80273 52.6169C3.4816 53.2794 2.16787 53.958 0.850432 54.6279C0.836863 54.6341 0.813425 54.6205 0.794922 54.6168C2.49969 52.5503 18.9454 41.4542 27.5667 36.5156C36.9429 31.1452 46.5992 26.3411 56.5441 22.0761C43.4364 20.6548 30.5457 18.275 17.9647 14.2728C18.4285 14.3246 18.8924 14.3752 19.3562 14.427C19.8459 14.4825 20.3356 14.5405 20.8253 14.5948C29.9561 15.6101 39.0782 16.7032 48.2682 17.0721C54.3878 17.3176 60.4717 16.9611 66.5284 16.0777C68.5404 15.7841 70.5671 15.5546 72.5531 15.1315C73.8434 14.8576 75.0918 14.3394 76.3241 13.8434C85.4968 10.1472 94.9643 7.43301 104.613 5.31964C106.018 5.01245 107.413 4.66577 108.821 4.36721C109.216 4.28332 109.32 4.12047 109.25 3.73554C109.081 2.80902 108.945 1.87756 108.784 0.87207L108.786 0.873304C110.669 1.39764 112.455 1.93677 114.264 2.38585ZM122.365 6.11393C122.377 6.12997 122.386 6.15218 122.402 6.16205C123.188 6.65554 124.138 6.94916 124.54 7.9164C124.562 7.96945 124.674 8.00523 124.748 8.0114C125.479 8.08049 126.21 8.14094 127.049 8.21373H127.05C126.113 6.74066 124.785 6.17068 122.365 6.11393Z" fill="#000" />
	</g>
</svg>
