<svg width="155" height="50" viewBox="0 0 155 50" fill="none" xmlns="http://www.w3.org/2000/svg">
	<path fill-rule="evenodd" clip-rule="evenodd" d="M23.5499 4.69895L23.5497 4.6989V0L23.5482 0.00306817H23.3948C23.3598 0.0116245 23.325 0.0211157 23.2902 0.0305983L23.2902 0.0306016C23.2159 0.0508708 23.1417 0.0711 23.0665 0.0820735C21.616 0.296078 20.1655 0.509316 18.7135 0.716417C18.4527 0.753235 18.3277 0.887467 18.2602 1.13982C18.1707 1.47383 18.0724 1.80558 17.9742 2.1373L17.9742 2.13736L17.9741 2.13742L17.9741 2.1375L17.9741 2.13759L17.974 2.13781C17.8661 2.5022 17.7582 2.86655 17.6619 3.23385C16.6816 6.96397 16.0519 10.7562 15.6714 14.5914C15.6344 14.9671 15.6084 15.3444 15.5815 15.7359L15.5815 15.7361C15.5682 15.9289 15.5547 16.1252 15.5395 16.3265C15.6166 16.2958 15.6867 16.2685 15.752 16.2431L15.7522 16.243L15.7523 16.243C15.8797 16.1934 15.9886 16.1509 16.0956 16.1048C20.0305 14.4043 24.0951 14.0407 28.2801 14.9305C31.8936 15.6983 35.2018 17.2017 38.3406 19.1078C42.2809 21.5009 45.8016 24.4257 49.1183 27.6074C49.1864 27.6729 49.2564 27.7362 49.3342 27.8066L49.3343 27.8067L49.3345 27.8069C49.3696 27.8386 49.4062 27.8718 49.445 27.9073C49.4523 27.8853 49.4594 27.8649 49.4664 27.8458L49.4811 27.8059C49.5015 27.751 49.5181 27.7061 49.5256 27.6595C49.9382 25.0493 49.9214 22.4513 49.2778 19.8764C49.2287 19.68 49.0761 19.4675 48.9104 19.3471C47.6722 18.4476 46.427 17.5586 45.1818 16.6696L45.1814 16.6693L45.1758 16.6653L45.1746 16.6645L45.1734 16.6636C44.7691 16.3749 44.3648 16.0863 43.9607 15.7972C43.8917 15.7476 43.8256 15.6938 43.7416 15.6254L43.7416 15.6254C43.6958 15.5881 43.6446 15.5465 43.5848 15.4988L45.4815 15.1843L47.6463 14.8254C47.6293 14.7827 47.6148 14.7448 47.6016 14.7103C47.5768 14.6453 47.5566 14.5921 47.532 14.5416C46.6614 12.759 45.6321 11.0753 44.401 9.51592C44.246 9.31879 44.0934 9.24822 43.8525 9.2812C42.9674 9.40316 42.0814 9.51515 41.1947 9.62714C40.6424 9.6972 40.0895 9.76521 39.5365 9.83323C39.26 9.86723 38.9836 9.90123 38.7072 9.93549C38.6999 9.92168 38.6925 9.90788 38.685 9.89407L38.67 9.86638L38.6627 9.85265C39.7105 8.82021 40.7591 7.78777 41.8206 6.74306C40.3318 5.35932 38.7824 4.20032 37.0512 3.29598C36.9353 3.23538 36.706 3.27834 36.5848 3.35734C35.5743 4.01708 34.5698 4.68574 33.5653 5.35447L33.5652 5.35453L33.565 5.35466L33.5645 5.35501L33.5639 5.35538L33.5634 5.35574L33.5628 5.35611L33.5623 5.35647C33.1862 5.60685 32.8101 5.85725 32.4336 6.10719C32.363 6.15374 32.2898 6.19637 32.1882 6.25556L32.1881 6.25558C32.1341 6.28708 32.072 6.32326 31.9979 6.36721C32.3865 5.15634 32.7541 4.0098 33.1164 2.87982L33.5105 1.65067C33.4849 1.63556 33.4633 1.62168 33.4441 1.60931L33.4439 1.60916L33.4437 1.60907L33.4437 1.60904L33.4437 1.60902C33.4085 1.58636 33.3812 1.56875 33.351 1.55786C31.4794 0.891302 29.5541 0.460992 27.5797 0.243152C27.3512 0.21784 27.2077 0.291476 27.0651 0.474032C26.2015 1.57886 25.3305 2.67785 24.4596 3.77675L23.9325 4.44194C23.8766 4.51219 23.817 4.57948 23.7573 4.64689L23.7573 4.64694C23.731 4.67668 23.7046 4.70644 23.6786 4.73648C23.6357 4.72346 23.5928 4.7112 23.5499 4.69895ZM0.498882 20.108C0.406855 20.6343 0.317365 21.1461 0.247754 21.6604C0.176145 22.1914 0.124343 22.725 0.0725639 23.2583L0.0725623 23.2583L0.0725606 23.2583C0.049466 23.4962 0.0263757 23.734 0.00153408 23.9715L0 23.9692V25.4243C0.015693 25.4294 0.0317202 25.4338 0.0477231 25.4382C0.0802159 25.4471 0.112609 25.456 0.141903 25.4703C1.74272 26.2627 3.34353 27.0558 4.94282 27.8497C4.99181 27.8742 5.03798 27.9034 5.10233 27.9441L5.10236 27.9441L5.10239 27.9441L5.10248 27.9442L5.10283 27.9444C5.13911 27.9673 5.18117 27.9939 5.23276 28.0254L0.414202 29.0724C0.412111 29.1001 0.408594 29.1257 0.405291 29.1498C0.398903 29.1964 0.393317 29.2372 0.400396 29.2756C0.77778 31.26 1.35536 33.1837 2.1853 35.0277C2.22519 35.1167 2.36556 35.2003 2.46987 35.2156C3.2627 35.3342 4.05713 35.4443 4.85143 35.5545L4.85234 35.5546L4.85428 35.5549C5.1587 35.5971 5.4631 35.6393 5.76739 35.682C6.30584 35.7575 6.8443 35.835 7.38246 35.9125L7.9826 35.9988L8.00331 36.0816C6.73393 36.845 5.46456 37.6091 4.11202 38.4232L3.93722 38.5285C4.21147 38.874 4.48377 39.2148 4.75383 39.5527L4.75393 39.5529L4.75419 39.5532C5.44251 40.4145 6.11629 41.2577 6.77068 42.1159C7.08133 42.5232 7.38814 42.5861 7.87445 42.468C12.7183 41.2906 17.3512 39.5456 21.8315 37.3787C21.8775 37.3566 21.922 37.331 21.9756 37.3001L21.9758 37.3C22.008 37.2815 22.0435 37.261 22.0847 37.2383C22.0072 37.1781 21.9338 37.1206 21.8628 37.065L21.8624 37.0647L21.862 37.0644C21.7188 36.9521 21.5856 36.8478 21.4503 36.7459C18.1574 34.2622 15.9184 31.0329 14.6098 27.1387C13.5759 24.0613 13.1686 20.885 13.1325 17.6573C13.0842 13.3396 13.6794 9.09093 14.6037 4.88294C14.7417 4.25581 14.8886 3.6309 15.0377 2.99664L15.0377 2.99649C15.1032 2.71773 15.1692 2.43716 15.235 2.15381C15.2036 2.15822 15.1768 2.16075 15.1533 2.16296L15.1533 2.16296C15.1116 2.16691 15.0804 2.16985 15.0524 2.18066C12.5043 3.14483 10.1825 4.47411 8.23726 6.40552C8.14138 6.5014 8.07158 6.66095 8.05777 6.79748C7.92661 8.07533 7.80202 9.35356 7.67741 10.6319L7.67727 10.6334C7.6263 11.1563 7.57533 11.6792 7.52391 12.2021C7.498 12.4655 7.4683 12.7281 7.43399 13.0314L7.43398 13.0315L7.43398 13.0315L7.43398 13.0315L7.43398 13.0315C7.41953 13.1592 7.40428 13.2941 7.38814 13.4393C6.48304 12.3209 5.6531 11.2954 4.82009 10.2653C4.80016 10.2839 4.78327 10.2988 4.76878 10.3116C4.74144 10.3357 4.72264 10.3523 4.7081 10.3719C3.48314 12.0648 2.48445 13.8819 1.75116 15.8386C1.699 15.9774 1.76113 16.2167 1.85701 16.3433C2.5721 17.2908 3.29755 18.2306 4.02299 19.1703C4.26479 19.4835 4.50658 19.7967 4.74799 20.1103C4.80271 20.1814 4.85438 20.2551 4.92171 20.351L4.92189 20.3513C4.96116 20.4073 5.00577 20.4708 5.05941 20.5459C3.99467 20.2706 2.98585 20.0096 1.97947 19.7491L0.621304 19.3977C0.581008 19.6383 0.539698 19.8745 0.498888 20.1079L0.498882 20.108ZM105.624 6.62419H123.179C125.43 13.9962 127.682 21.3767 129.968 28.8653C129.999 28.787 130.026 28.7206 130.049 28.6617C130.093 28.5541 130.127 28.4715 130.152 28.3867C131.346 24.459 132.54 20.5311 133.733 16.6032L135.774 9.88718C135.864 9.5909 135.955 9.29481 136.045 8.99875L136.046 8.9964C136.26 8.29455 136.475 7.59282 136.683 6.88882C136.74 6.69476 136.804 6.59351 137.038 6.59351C141.294 6.59926 145.551 6.59983 149.807 6.60041H149.808C151.227 6.6006 152.646 6.60079 154.065 6.60118C154.097 6.60118 154.13 6.60616 154.172 6.61263C154.194 6.61599 154.219 6.61975 154.247 6.62342V43.1561H143.398V15.4973C143.371 15.492 143.343 15.4858 143.316 15.4805C143.304 15.5113 143.291 15.5419 143.277 15.5724C143.25 15.6362 143.222 15.6999 143.202 15.7658L143.193 15.7958C140.458 24.7916 137.724 33.7875 135.001 42.7864C134.906 43.0986 134.775 43.1914 134.452 43.1898C131.436 43.1768 128.419 43.176 125.402 43.1906C125.082 43.1921 124.971 43.0863 124.883 42.7956C122.174 33.8081 119.454 24.823 116.735 15.8387C116.693 15.6998 116.632 15.5671 116.504 15.4467V43.163H105.624V43.1622V6.62419ZM91.1422 28.5639C90.7687 28.2694 90.3092 28.0661 89.8636 27.8843C89.3433 27.6723 88.8128 27.486 88.2545 27.2899C88.0168 27.2064 87.774 27.1212 87.5248 27.0314L87.5256 27.0298C87.5705 27.0151 87.6077 27.0023 87.64 26.9912C87.7017 26.97 87.7455 26.955 87.7902 26.9439C88.0466 26.8793 88.3036 26.8168 88.5607 26.7544L88.5608 26.7544L88.5608 26.7544L88.561 26.7543L88.5611 26.7543C89.1093 26.6211 89.6576 26.4879 90.1995 26.3334C91.5004 25.9629 92.6932 25.3638 93.7908 24.573C96.6381 22.5219 98.0425 19.7744 97.8837 16.2422C97.7403 13.062 96.3167 10.6236 93.6896 8.86399C92.3741 7.98266 90.8975 7.5048 89.3558 7.21102C86.8475 6.73315 84.3094 6.60889 81.7651 6.60429C76.2993 6.59477 70.8335 6.59629 65.3678 6.5978C63.3434 6.59836 61.319 6.59892 59.2946 6.59892H58.8628V43.1607H72.253V28.3292C72.4437 28.3292 72.6297 28.3257 72.8125 28.3222C73.2004 28.3148 73.5734 28.3077 73.9436 28.3353C75.5459 28.4542 76.9627 28.9843 77.9698 30.3128C78.3932 30.8712 78.8059 31.4403 79.1848 32.0302C81.3291 35.3687 83.4642 38.7139 85.5992 42.0589L85.6023 42.0637L86.1135 42.8647C86.2324 43.0518 86.3344 43.1899 86.6075 43.1899C90.2314 43.1818 93.8554 43.1815 97.4793 43.1812C98.687 43.1811 99.8946 43.1811 101.102 43.1807C101.154 43.1807 101.207 43.172 101.267 43.1618C101.298 43.1567 101.332 43.1511 101.368 43.1462L101.307 43.0391C101.252 42.9421 101.206 42.8606 101.157 42.7803C100.573 41.8233 99.9908 40.8654 99.4085 39.9075L99.4074 39.9056L99.4063 39.9038C97.9419 37.4944 96.4774 35.0848 94.9889 32.6906C93.9826 31.0722 92.6341 29.7398 91.1422 28.5639ZM74.1948 21.4596C73.7131 21.4523 73.2313 21.445 72.7501 21.445H72.2622V21.4442V13.9794C72.3004 13.975 72.3368 13.9697 72.372 13.9646C72.4422 13.9544 72.5075 13.9449 72.5729 13.9449C73.1985 13.9497 73.8241 13.9528 74.4497 13.9559C76.2129 13.9646 77.976 13.9733 79.7378 14.0208C80.4941 14.0415 81.2619 14.1919 81.9945 14.3936C83.6451 14.8477 84.4958 16.0144 84.4797 17.6742C84.4659 19.1431 83.4649 20.4839 81.9262 20.8114C80.4727 21.1213 78.9838 21.3261 77.5011 21.422C76.4027 21.493 75.2987 21.4763 74.1949 21.4596H74.1948ZM43.0521 34.1696L43.0523 34.1703L43.0527 34.1713C43.1311 34.3746 43.1968 34.545 43.265 34.714L43.5922 35.5295C44.0523 36.6767 44.5123 37.8237 44.9824 38.9672C45.0851 39.2173 45.0813 39.3968 44.9103 39.6231C43.7513 41.1579 42.4427 42.5509 40.9792 43.7996C40.935 43.8372 40.8877 43.8711 40.8316 43.9114C40.8031 43.9318 40.7722 43.954 40.7383 43.9791C40.1741 43.3606 39.6115 42.7441 39.0498 42.1287L39.0194 42.0953L37.4976 40.4277C37.4654 40.44 37.4331 40.4522 37.4002 40.4645C37.4145 40.6958 37.4285 40.9272 37.4424 41.1586L37.4425 41.1597C37.4702 41.6194 37.4979 42.0791 37.529 42.5386C37.556 42.9414 37.5841 43.3441 37.6121 43.7468L37.6122 43.7477C37.6631 44.4773 37.7139 45.2068 37.7584 45.9366C37.7637 46.0286 37.707 46.1728 37.6333 46.215C35.9505 47.1884 34.21 48.0352 32.3285 48.5629C32.3152 48.5667 32.3001 48.5635 32.2768 48.5584L32.2768 48.5584C32.2626 48.5553 32.2453 48.5516 32.2234 48.5484L31.7577 46.8626C31.5197 46.0007 31.2765 45.1204 31.0222 44.2008C30.9861 44.2802 30.9554 44.3465 30.9284 44.4047L30.9283 44.4047C30.8808 44.5072 30.8451 44.5842 30.8128 44.6625C30.6837 44.9755 30.5543 45.2885 30.425 45.6014C29.9555 46.7369 29.486 47.8725 29.0302 49.0132C28.909 49.3169 28.7594 49.465 28.4143 49.5072C26.4422 49.7503 24.4686 49.8293 22.4881 49.6399C22.4477 49.6359 22.4075 49.6288 22.3588 49.6201L22.3585 49.6201C22.3315 49.6153 22.3018 49.61 22.268 49.6046C22.5428 48.8609 22.8158 48.1228 23.0947 47.3689L23.0952 47.3675L23.6885 45.7632C23.6117 45.7942 23.5452 45.8203 23.4855 45.8438L23.4854 45.8438C23.3705 45.889 23.2814 45.924 23.1945 45.9634L22.1643 46.4311C20.6836 47.103 19.2032 47.7749 17.7263 48.4548C17.4647 48.5752 17.2385 48.5706 16.9639 48.4908C14.5116 47.7767 12.3279 46.5678 10.3527 44.9655C10.2853 44.911 10.2194 44.8547 10.1403 44.7871L10.14 44.7869C10.0923 44.7462 10.0398 44.7013 9.97919 44.6502C10.0332 44.6331 10.0831 44.6171 10.1301 44.602L10.131 44.6017L10.1314 44.6016C10.246 44.5648 10.3435 44.5335 10.4417 44.5053C14.8883 43.212 19.2144 41.6174 23.2805 39.3776C26.6048 37.5467 29.6461 35.3506 32.1413 32.4604C34.7262 29.4667 36.3401 26.0326 36.8418 22.0954C36.8674 21.8927 36.9016 21.6911 36.9373 21.4809L36.9374 21.4807C36.955 21.3767 36.973 21.2705 36.9906 21.1611C37.0181 21.174 37.044 21.185 37.0684 21.1954L37.0685 21.1955C37.1183 21.2167 37.1621 21.2354 37.2007 21.2616C41.3773 24.0989 45.2577 27.2867 48.7416 30.9478C49.0178 31.2378 49.0814 31.4755 48.9257 31.8422C48.555 32.7172 48.1964 33.597 47.8379 34.4767C47.663 34.9058 47.4881 35.3348 47.3119 35.7633C47.2779 35.8462 47.2358 35.9255 47.1888 36.0142C47.1636 36.0617 47.1369 36.1119 47.1094 36.1668L47.1086 36.1675L45.7934 35.4359C44.8588 34.916 43.9156 34.3913 42.9244 33.8396C42.9713 33.9602 43.0132 34.0689 43.0521 34.1696ZM34.2883 21.0399C34.342 20.7085 34.2315 20.5574 33.9807 20.3994C30.9486 18.4856 27.6426 17.5038 24.7171 17.4639L24.7164 17.4624C21.3667 17.4593 18.8224 18.0753 16.3932 19.2113C16.1309 19.3348 16.0457 19.4828 16.0496 19.762C16.0764 21.6067 16.3188 23.4216 16.8135 25.1988C17.9557 29.3032 20.1525 32.6667 23.7576 35.043C24.0099 35.2095 24.2201 35.2371 24.4993 35.1189C26.0702 34.4532 27.4608 33.5135 28.6942 32.3461C31.9488 29.2649 33.5788 25.3814 34.2883 21.0399Z" fill="#000" />
</svg>
