<svg width="69" height="69" viewBox="0 0 69 69" fill="none" xmlns="http://www.w3.org/2000/svg">
<path fill-rule="evenodd" clip-rule="evenodd" d="M68.1102 34.6199C68.1119 25.364 64.77 17.2677 58.1889 10.7239C51.6323 4.20471 43.5827 1.00709 38.7782 0.937484C16.1886 0.890797 0.731862 15.171 0.606232 34.3627C0.4823 53.506 15.4705 68.0688 33.9627 68.3294C43.5725 68.4653 51.8768 64.9799 58.5887 58.0889C64.9168 51.5918 68.1094 43.6466 68.1102 34.6199ZM33.9355 66.8261C16.304 66.6224 1.97288 52.6333 2.10785 34.3347C2.24197 16.1228 16.9428 2.43182 36.9481 2.40939C43.1923 2.51297 50.8735 5.59684 57.1312 11.8248C63.3923 18.0546 66.4168 25.7604 66.6638 34.5681C66.3497 52.7929 52.1298 67.0366 33.9355 66.8261ZM36.9481 2.40939L36.9481 2.40939H36.9489L36.9481 2.40939ZM34.3349 5.91685C18.0344 6.09851 5.80165 18.6725 5.71422 34.4085C5.62339 50.7396 18.565 63.1031 34.3298 63.2338H34.3307C50.1134 63.1387 62.892 50.8788 63.0566 34.6623C63.1356 26.83 60.28 19.9704 54.7396 14.3858C49.1482 8.75031 42.2352 5.82857 34.3349 5.91685ZM38.9177 45.7725C38.9195 45.9692 38.9213 46.1661 38.9213 46.3629V56.1815L38.923 56.1832H36.0089V55.1595L36.0091 52.4482V52.442C36.0095 48.8274 36.0099 45.2126 36.0038 41.5983C36.0038 41.5579 36.0044 41.5151 36.005 41.4711C36.0089 41.1876 36.0137 40.8494 35.8645 40.7223C35.5035 40.4143 35.065 40.1938 34.632 39.9761C34.5602 39.9399 34.4884 39.9039 34.4173 39.8675C34.3307 39.8233 34.1507 39.921 34.0327 39.9872C33.7298 40.1576 33.4309 40.3356 33.108 40.528L33.1078 40.5281C32.9884 40.5992 32.8657 40.6723 32.7382 40.7477V56.1731H29.8674C29.8353 55.5654 29.8393 54.9542 29.8433 54.3424C29.8451 54.0636 29.8469 53.7847 29.8453 53.506C29.8418 52.8844 29.8428 52.2629 29.8437 51.6414C29.8441 51.3589 29.8445 51.0764 29.8445 50.7939V42.4259C29.6792 42.5195 29.528 42.6078 29.3856 42.6909L29.3855 42.691L29.3853 42.6911L29.385 42.6912L29.3849 42.6913C29.0976 42.859 28.8457 43.0059 28.5848 43.1347C28.3909 43.2305 28.1979 43.3291 28.0048 43.4277C27.3938 43.7396 26.7821 44.0519 26.141 44.279C24.8957 44.7195 23.636 44.5319 22.3967 44.1414C21.2728 43.7875 20.3195 44.0948 19.6065 45.0115C19.3561 45.3332 19.1685 45.7543 19.1006 46.1549C18.997 46.7678 18.6745 46.9978 18.099 47.0997C16.526 47.3782 14.9562 47.676 13.3862 47.9738L13.3861 47.9738L13.386 47.9739L13.3859 47.9739L13.3858 47.9739C12.8218 48.0809 12.2578 48.1879 11.6935 48.294C11.6668 48.2992 11.6393 48.3077 11.6118 48.3162C11.5535 48.3341 11.4955 48.352 11.4465 48.3382C11.4105 48.3279 11.3709 48.318 11.33 48.3078C11.1653 48.2667 10.9812 48.2208 10.9431 48.1243C10.8769 47.9562 10.9143 47.665 11.028 47.5224C11.6027 46.8029 12.204 46.105 12.8052 45.4072L12.8052 45.4072L12.8053 45.4072L12.8053 45.4071L12.8053 45.4071L12.9889 45.194C13.2451 44.8958 13.5061 44.6014 13.7671 44.307C14.2921 43.7149 14.8169 43.1229 15.3028 42.4998C15.7374 41.9429 16.1568 41.8088 16.8316 42.0253C18.0209 42.4064 19.2092 41.9667 19.7788 40.9846C19.9724 40.651 20.0742 40.2546 20.1676 39.8751C20.5929 38.1443 21.558 36.8108 23.0766 35.8821C23.5517 35.5916 24.0332 35.3117 24.5532 35.0095C24.7959 34.8683 25.0471 34.7224 25.3099 34.5681C21.3201 32.263 17.4168 30.007 13.4773 27.73L13.3624 27.6636C13.6343 27.1956 13.8964 26.7451 14.1623 26.2881L14.1636 26.2859L14.7867 25.2146C14.9014 25.2757 15.0119 25.3335 15.1192 25.3896L15.1193 25.3897L15.1193 25.3897C15.3503 25.5104 15.5664 25.6234 15.7773 25.7452C16.5223 26.1748 17.2674 26.6042 18.0125 27.0335L18.024 27.0402L18.0242 27.0403L18.0244 27.0404L18.0279 27.0424L18.0282 27.0426L18.0285 27.0428L18.0287 27.0429L18.029 27.0431C21.1661 28.8509 24.303 30.6586 27.4278 32.4867C27.9804 32.8101 28.4354 32.9239 28.9524 32.4842C29.0323 32.4166 29.1296 32.3686 29.2266 32.3208L29.2266 32.3208C29.3355 32.2671 29.444 32.2136 29.527 32.1328C29.6705 31.9927 29.8105 31.7839 29.8318 31.592C29.9897 30.1711 29.9693 30.1295 28.713 29.4012C26.435 28.0811 24.155 26.764 21.875 25.4468L21.8749 25.4468L21.8747 25.4467L21.8746 25.4466L21.8745 25.4465L21.8727 25.4455L21.871 25.4445L21.8693 25.4436L21.8676 25.4426C20.2648 24.5167 18.662 23.5907 17.06 22.6638C16.9321 22.5899 16.8101 22.5062 16.6766 22.4147C16.6124 22.3708 16.5456 22.325 16.4743 22.2776L16.9517 21.4565L16.9546 21.4515L16.9565 21.4482L16.9709 21.4234C17.2721 20.9056 17.5717 20.3904 17.8876 19.8465L23.7088 23.1968L29.8445 26.7281C29.8445 26.4875 29.8471 26.2656 29.8496 26.0562V26.0561V26.0561V26.056V26.056V26.0559C29.8546 25.6352 29.859 25.2652 29.8403 24.8963C29.7274 22.6978 30.4735 20.8583 32.1109 19.383C32.6695 18.8797 32.9139 18.2608 32.9072 17.5054C32.8995 16.7151 32.6185 16.0487 32.0108 15.5861C31.5023 15.199 31.4667 14.778 31.6525 14.2509C32.1096 12.9539 32.566 11.6565 33.0224 10.3593L33.0226 10.3587L33.0266 10.3473L33.8146 8.10774L33.8178 8.09841L33.8218 8.08642C33.8283 8.06673 33.8349 8.04685 33.8443 8.02879C33.8664 7.9858 33.8865 7.94036 33.9066 7.89483C34.0008 7.68146 34.096 7.46599 34.4045 7.48977C34.7118 7.51354 34.8001 7.76056 34.8884 8.00842C34.997 8.31194 35.1094 8.61415 35.2219 8.91641L35.222 8.91678C35.3652 9.30166 35.5084 9.68662 35.6438 10.0745C35.8127 10.5585 35.9772 11.0441 36.1417 11.5297C36.4385 12.4059 36.7352 13.2822 37.058 14.149C37.283 14.7525 37.2524 15.16 36.7142 15.6201C35.4851 16.6709 35.5259 18.3635 36.7363 19.4738C38.2133 20.8295 38.9391 22.5059 38.9255 24.5075C38.9233 24.9479 38.924 25.3886 38.9247 25.8693C38.9251 26.1253 38.9255 26.3926 38.9255 26.6772C40.3143 25.9528 41.6277 25.1859 42.9274 24.427L42.9277 24.4268C43.5972 24.0359 44.263 23.6471 44.9337 23.2674C46.3091 22.4883 47.6762 21.6938 49.0668 20.8856L49.0669 20.8855L49.0691 20.8842L49.0716 20.8828L49.0756 20.8805C49.6654 20.5377 50.2596 20.1924 50.8603 19.8448C51.1147 20.2797 51.3633 20.7045 51.6139 21.1325C51.8392 21.5174 52.0661 21.9049 52.3 22.3048C52.091 22.4279 51.8888 22.548 51.6907 22.6655L51.6898 22.6661C51.312 22.8903 50.9493 23.1056 50.5836 23.3166L48.9354 24.2675C45.7942 26.08 42.6529 27.8925 39.5036 29.6915C39.0868 29.93 38.9068 30.1948 38.9119 30.6897C38.9264 32.047 39.0299 32.2312 40.2701 32.7592C40.5782 32.8899 40.8023 32.7787 41.0561 32.631C42.2177 31.9535 43.3831 31.2824 44.5484 30.6113L45.454 30.0896C48.0693 28.582 50.6855 27.0745 53.3033 25.5694C53.4316 25.4956 53.5649 25.4306 53.7223 25.3537L53.7224 25.3536C53.8004 25.3156 53.8843 25.2746 53.9765 25.2282L54.4753 26.0865C54.7703 26.5941 55.0695 27.109 55.3924 27.6636C53.1396 28.9656 50.8971 30.262 48.643 31.5652L48.5528 31.6173L48.5334 31.6285L48.4952 31.6506L43.4499 34.5673C43.6551 34.6877 43.8484 34.8032 44.0344 34.9143L44.0371 34.9159L44.0379 34.9164L44.038 34.9165L44.0381 34.9165L44.0382 34.9166L44.0385 34.9168C44.4317 35.1517 44.7917 35.3668 45.1603 35.5664C47.0006 36.5621 48.189 38.0246 48.6423 40.1043C48.9997 41.746 50.3561 42.4921 51.9927 42.0091C52.5852 41.8343 52.9672 41.9141 53.3831 42.4208C54.3613 43.6136 55.3722 44.78 56.3829 45.9463C56.7754 46.3993 57.168 46.8523 57.5586 47.3068C57.5884 47.3413 57.6206 47.3746 57.6528 47.4079L57.6528 47.4079C57.7195 47.4769 57.7864 47.5461 57.8328 47.6268C58.0119 47.9401 57.86 48.2643 57.4975 48.3212C57.3615 48.3429 57.215 48.314 57.0733 48.2861C57.0487 48.2813 57.0243 48.2765 57.0001 48.2719C56.3536 48.153 55.7076 48.0322 55.0614 47.9113L55.0614 47.9113L55.0614 47.9113L55.0613 47.9113L55.0613 47.9113C53.6279 47.6432 52.1946 47.3752 50.7576 47.1277C50.0853 47.0123 49.7611 46.7135 49.6066 46.0199C49.2569 44.4538 47.9208 43.661 46.3962 44.1465C44.3047 44.8129 42.3922 44.5149 40.5655 43.3614C40.2425 43.1575 39.9066 42.974 39.5537 42.7812L39.5534 42.7811C39.386 42.6896 39.2148 42.596 39.0392 42.4972C38.8824 42.9483 38.9008 43.394 38.9188 43.8326V43.8326V43.8327V43.8328V43.8328C38.9268 44.028 38.9348 44.2218 38.9272 44.4139C38.9094 44.8661 38.9136 45.3192 38.9177 45.7725ZM29.0245 39.6147C28.4249 39.9307 27.84 40.2744 27.255 40.6182C26.7964 40.8877 26.3377 41.1572 25.8719 41.4135C25.1724 41.798 24.3295 41.6639 23.8431 41.152C23.3567 40.6401 23.2277 39.8091 23.6063 39.1954C23.776 38.9212 24.0434 38.6751 24.3219 38.507C24.8588 38.1828 25.4031 37.8707 25.9474 37.5587L25.9475 37.5586L25.9477 37.5585L25.9478 37.5584C26.5264 37.2267 27.105 36.895 27.6748 36.5487C28.0449 36.3237 28.3454 36.3186 28.679 36.5623L28.6851 36.5667C28.7741 36.6316 28.8664 36.6989 28.9685 36.7354C29.6891 36.9935 29.982 37.4858 29.7791 38.2235H29.7808C29.9828 38.9467 29.6153 39.3041 29.0245 39.6147ZM42.4996 41.2299C42.7123 41.3516 42.9308 41.4766 43.1621 41.5501C44.2486 41.8948 45.3131 41.1028 45.3046 39.9713V39.9704C45.2995 39.4034 45.0126 38.878 44.4227 38.524C43.7701 38.1321 43.1106 37.7521 42.4511 37.3721L42.4509 37.3721L42.4508 37.372C41.9418 37.0787 41.4329 36.7855 40.9271 36.4867C40.6495 36.3229 40.4127 36.3509 40.1385 36.4867C38.896 37.1021 38.8957 37.1272 38.8777 38.4823L38.8771 38.5223C38.8703 39.0299 39.0766 39.2761 39.4849 39.5002C40.1273 39.853 40.7612 40.222 41.3949 40.5909C41.7568 40.8016 42.1187 41.0123 42.4822 41.2199L42.4996 41.2299ZM35.9825 27.9862C35.9901 28.3054 35.8925 28.5329 35.6014 28.6704C35.5589 28.6902 35.5194 28.7159 35.4799 28.7416L35.4562 28.757C34.3671 29.4395 33.8442 29.4089 32.9309 28.5609C32.8086 28.4471 32.7399 28.2188 32.7382 28.0422L32.7355 27.781C32.7218 26.4284 32.708 25.0751 32.7407 23.7233C32.762 22.8447 33.5005 22.1979 34.3637 22.2072C35.2143 22.2166 35.9154 22.888 35.9757 23.753C35.979 23.7966 35.9787 23.8407 35.9784 23.8845L35.9783 23.9219V25.87L35.9774 25.8692C35.9774 26.0749 35.9764 26.2806 35.9754 26.4864V26.4865V26.4868C35.9729 26.9866 35.9705 27.4866 35.9825 27.9862ZM32.4454 35.6276C34.1652 36.9339 34.3214 36.9407 36.059 35.816C36.0882 35.7974 36.1132 35.7724 36.1503 35.7353C36.1724 35.7132 36.1988 35.6867 36.233 35.6547H36.2338C36.3063 34.2162 35.8162 33.2199 34.7636 32.6659C34.7382 32.6532 34.7127 32.6404 34.6906 32.6235C34.4547 32.4478 34.2441 32.5072 33.9912 32.6311L33.9691 32.642C32.4301 33.3984 32.4268 33.4001 32.4454 35.1581C32.4466 35.2715 32.4462 35.3849 32.4458 35.4888C32.4456 35.5374 32.4454 35.584 32.4454 35.6276Z" fill="white"/>
</svg>
