<svg width="76" height="76" viewBox="0 0 76 76" fill="none" xmlns="http://www.w3.org/2000/svg">
	<mask id="mask0_0_152" style="mask-type:luminance" maskUnits="userSpaceOnUse" x="0" y="0" width="76" height="76">
		<rect x="0.00195312" y="0.2229" width="75.4186" height="75.4186" fill="white" />
	</mask>
	<g mask="url(#mask0_0_152)">
		<path opacity="0.99" fill-rule="evenodd" clip-rule="evenodd" d="M39.4681 0.2229C51.616 1.08187 61.2887 6.37309 68.4873 16.0972C72.742 22.1784 75.0529 28.934 75.4206 36.3636V39.5008C74.6789 51.0966 69.8062 60.5189 60.8011 67.7671C54.4106 72.6128 47.1951 75.2374 39.1544 75.6415H36.2681C25.7936 75.0561 16.978 70.957 9.82143 63.3436C3.79045 56.5817 0.517711 48.6546 0.00195312 39.5636V36.3008C0.565397 26.7687 4.11045 18.5492 10.6371 11.6424C17.6099 4.64825 26.049 0.841559 35.9544 0.2229H39.4681Z" fill="#2B2A29" />
		<path fill-rule="evenodd" clip-rule="evenodd" d="M59.9847 9.03846C68.7143 16.0501 73.4308 25.1794 74.1335 36.4263C74.3362 46.4635 71.1149 55.2057 64.4709 62.6534C56.626 70.7776 47.0368 74.657 35.7026 74.2925C24.4444 73.4279 15.3779 68.5652 8.503 59.7045C1.64568 50.1052 -0.320095 39.5642 2.60504 28.0813C5.71402 17.7154 12.0826 10.0712 21.7107 5.14832C26.0664 3.06207 30.6467 1.83856 35.4517 1.47778C44.5464 1.10445 52.7239 3.62426 59.9847 9.03846Z" fill="#D9D9D9" />
		<path fill-rule="evenodd" clip-rule="evenodd" d="M63.3422 14.4658C70.815 23.0003 73.6385 32.8926 71.8126 44.1439C69.8745 53.8341 64.8235 61.4155 56.6599 66.8887C48.9285 71.7695 40.5415 73.4429 31.4994 71.9082C21.6417 69.8954 13.9762 64.6983 8.50367 56.3163C3.11269 47.3595 1.8371 37.8431 4.67627 27.7676C7.7131 18.3528 13.6211 11.3776 22.4015 6.84241C26.6851 4.73609 31.2027 3.53391 35.9543 3.23462C46.772 2.94474 55.9013 6.68869 63.3422 14.4658Z" fill="#2B2A29" />
		<path fill-rule="evenodd" clip-rule="evenodd" d="M33.3821 5.93262C33.7492 7.84004 34.2825 9.70166 34.9821 11.5169C35.3247 12.4016 35.816 13.1859 36.4566 13.8698C37.5439 14.6635 38.5165 14.5273 39.3742 13.4619C40.1968 12.2497 40.8035 10.9321 41.1938 9.50904C41.5433 8.33133 41.8256 7.13919 42.0408 5.93262C45.8864 6.46155 49.5256 7.63299 52.9583 9.4463C53.0261 9.50088 53.0368 9.56363 52.9897 9.63453C52.4181 10.8612 51.9162 12.1161 51.4838 13.3992C51.0145 14.7419 50.805 16.1223 50.8564 17.5403C51.1463 18.9357 51.9933 19.4691 53.3975 19.1403C54.6487 18.7136 55.7988 18.1069 56.8485 17.3207C57.9409 16.5019 58.9862 15.6235 59.9857 14.6854C60.0484 14.6434 60.1112 14.6434 60.1739 14.6854C62.9372 17.3583 65.1539 20.4221 66.8248 23.8775C66.8179 23.9365 66.7972 23.9885 66.7621 24.0343C64.6639 25.1198 62.7715 26.4901 61.0837 28.1441C60.7116 28.5751 60.4186 29.0558 60.2053 29.5872C59.9474 30.4863 60.2084 31.1866 60.9896 31.6891C61.8781 32.1315 62.8192 32.3825 63.8131 32.4421C65.7444 32.5186 67.6681 32.4452 69.5856 32.2225C69.8466 33.6957 69.9934 35.1809 70.0248 36.6773H57.5387C56.957 29.916 53.8198 24.7189 48.127 21.0854C42.9789 18.1201 37.5408 17.4512 31.8135 19.0775C25.1952 21.3457 20.8132 25.8113 18.6686 32.4734C17.137 38.175 17.932 43.5296 21.0529 48.536C22.5318 50.8939 24.4034 52.891 26.6685 54.528C26.7036 54.5732 26.7243 54.6259 26.7312 54.6849C25.1451 58.5437 23.535 62.3918 21.8999 66.2299C13.3203 61.1915 7.99767 53.7877 5.93151 44.0184C5.41136 41.0474 5.26516 38.0571 5.4923 35.046C5.55379 34.4869 5.62657 33.9329 5.7119 33.3832C7.08977 33.4679 8.47014 33.4893 9.85302 33.446C11.0935 33.4272 12.3063 33.2389 13.4922 32.8813C15.1493 32.2388 15.5157 31.1615 14.5902 29.6499C13.6491 28.5155 12.551 27.5637 11.2961 26.7951C10.2502 26.1463 9.18354 25.5295 8.09618 24.9441C9.78087 21.2196 12.071 17.9149 14.9667 15.0305C16.0553 16.0081 17.1947 16.9179 18.3862 17.7599C19.3167 18.4137 20.3206 18.9364 21.398 19.3285C22.2343 19.6259 23.008 19.5211 23.7195 19.0148C24.2767 18.1389 24.4335 17.1877 24.1901 16.1599C23.7252 13.9287 22.9616 11.8055 21.8999 9.79139C25.3866 7.80993 29.1099 6.52367 33.0684 5.93262H33.3821Z" fill="#D9D9D9" />
		<path fill-rule="evenodd" clip-rule="evenodd" d="M42.5423 40.7871C44.173 41.2778 44.6643 42.313 44.0167 43.8929C43.6466 44.6289 43.1132 45.215 42.4168 45.6498C43.043 46.1298 43.2626 46.7572 43.0756 47.5321C42.4626 49.2946 41.2391 50.3719 39.405 50.7634C36.6669 50.855 33.9275 50.8864 31.1855 50.8575C32.4329 47.4719 33.7292 44.105 35.0757 40.7557C37.5648 40.7451 40.0538 40.7557 42.5423 40.7871Z" fill="#D9D9D9" />
		<path fill-rule="evenodd" clip-rule="evenodd" d="M55.1548 40.7871C56.5101 40.9584 57.1476 41.7214 57.0685 43.0773C56.6688 45.2438 55.3826 46.52 53.2097 46.9047C53.6615 48.2185 54.1007 49.5362 54.5274 50.8575H51.7039C51.3155 49.5569 50.9076 48.2599 50.4804 46.9674C50.0669 46.926 49.6484 46.9053 49.2255 46.9047C48.8026 46.9047 48.3841 46.926 47.9706 46.9674C47.4837 48.265 46.9711 49.5512 46.4334 50.8262C45.6177 50.8575 44.802 50.8682 43.9863 50.8575C45.2092 47.4599 46.5061 44.0931 47.8765 40.7557C50.3028 40.7451 52.7291 40.7557 55.1548 40.7871Z" fill="#D9D9D9" />
		<path fill-rule="evenodd" clip-rule="evenodd" d="M67.7034 40.7871C69.1434 40.9609 69.8022 41.7659 69.6798 43.2027C69.2067 45.4747 67.8157 46.7403 65.5073 46.9988C63.8547 47.0094 62.2026 47.0408 60.5505 47.0929C60.0567 48.3421 59.5548 49.5863 59.0447 50.8262C58.229 50.8575 57.4133 50.8682 56.5977 50.8575C56.693 50.4779 56.8078 50.1015 56.9427 49.7281C58.1098 46.7384 59.2706 43.7474 60.4251 40.7557C62.8514 40.7451 65.2771 40.7557 67.7034 40.7871Z" fill="#D9D9D9" />
		<path fill-rule="evenodd" clip-rule="evenodd" d="M41.1626 42.8576C41.6407 42.9831 41.7976 43.2862 41.6332 43.7674C41.4079 44.3485 41.0001 44.735 40.4097 44.9282C38.9459 44.9596 37.482 44.9702 36.0176 44.9596C36.256 44.2437 36.507 43.5328 36.7705 42.8263C38.235 42.8156 39.6988 42.8263 41.1626 42.8576Z" fill="#2B2A29" />
		<path fill-rule="evenodd" clip-rule="evenodd" d="M53.8989 42.8576C54.3595 42.9938 54.5163 43.2969 54.3695 43.7674C54.1926 44.3848 53.7847 44.7513 53.146 44.8655C51.6822 44.9075 50.2177 44.9075 48.7539 44.8655C49.0174 44.1816 49.2891 43.502 49.5696 42.8263C51.0127 42.8156 52.4558 42.8263 53.8989 42.8576Z" fill="#2B2A29" />
		<path fill-rule="evenodd" clip-rule="evenodd" d="M66.5103 42.8576C66.7016 42.8959 66.8585 42.99 66.9808 43.14C67.0819 44.0768 66.674 44.6728 65.7573 44.9282C64.2935 44.9596 62.8297 44.9702 61.3652 44.9596C61.6018 44.2349 61.8741 43.524 62.1809 42.8263C63.624 42.8156 65.0671 42.8263 66.5103 42.8576Z" fill="#2B2A29" />
		<path fill-rule="evenodd" clip-rule="evenodd" d="M34.5742 48.6615C34.8195 47.9299 35.0919 47.2084 35.3899 46.4969C36.9378 46.4548 38.4851 46.4548 40.033 46.4969C40.6265 46.7943 40.7627 47.2441 40.4408 47.8459C40.0901 48.3717 39.5988 48.6647 38.9663 48.7243C37.4912 48.745 36.0274 48.7243 34.5742 48.6615Z" fill="#2B2A29" />
		<path fill-rule="evenodd" clip-rule="evenodd" d="M38.9666 48.7241C37.4921 48.8076 36.0069 48.8076 34.5117 48.7241C34.5192 48.6858 34.5406 48.6651 34.5745 48.6614C36.0276 48.7241 37.4914 48.7448 38.9666 48.7241Z" fill="#A7A7A7" />
	</g>
</svg>
