<svg width="15" height="23" viewBox="0 0 15 23" fill="none" xmlns="http://www.w3.org/2000/svg">
<path d="M14.2077 16.2917C14.2077 19.9908 11.1985 23 7.49935 23C3.80018 23 0.791016 19.9908 0.791016 16.2917V4.79167C0.791016 2.14667 2.93768 0 5.58268 0C8.22768 0 10.3743 2.14667 10.3743 4.79167V16.2917C10.3743 17.8729 9.0806 19.1667 7.49935 19.1667C5.9181 19.1667 4.62435 17.8729 4.62435 16.2917V5.75C4.62435 5.22292 5.0556 4.79167 5.58268 4.79167C6.10977 4.79167 6.54102 5.22292 6.54102 5.75V16.2917C6.54102 16.8187 6.97227 17.25 7.49935 17.25C8.02643 17.25 8.45768 16.8187 8.45768 16.2917V4.79167C8.45768 3.21042 7.16393 1.91667 5.58268 1.91667C4.00143 1.91667 2.70768 3.21042 2.70768 4.79167V16.2917C2.70768 18.9367 4.85435 21.0833 7.49935 21.0833C10.1443 21.0833 12.291 18.9367 12.291 16.2917V3.83333C12.291 3.30625 12.7223 2.875 13.2494 2.875C13.7764 2.875 14.2077 3.30625 14.2077 3.83333V16.2917Z" fill="#8A8A8A"/>
</svg>
