<svg width="28" height="30" viewBox="0 0 28 30" fill="none" xmlns="http://www.w3.org/2000/svg">
<mask id="mask0_2001_683" style="mask-type:luminance" maskUnits="userSpaceOnUse" x="0" y="0" width="28" height="30">
<rect x="0.0253906" y="0.000457764" width="27.1238" height="29.8753" fill="white"/>
</mask>
<g mask="url(#mask0_2001_683)">
<path fill-rule="evenodd" clip-rule="evenodd" d="M3.99109 29.8723C2.05952 29.8688 0.53011 28.6841 0.1384 26.8683C-0.0887917 25.815 0.050483 24.7591 0.34383 23.745C1.46847 19.8488 4.05463 17.5351 8.03267 16.7796C8.37215 16.7151 8.72295 16.6925 9.06939 16.6916C12.0873 16.6847 15.1061 16.6516 18.124 16.6969C22.4981 16.7622 26.3751 20.2066 27.0228 24.5363C27.1664 25.4964 27.2578 26.4522 26.9044 27.3958C26.3691 28.8251 25.0259 29.8078 23.5017 29.8662C23.4364 29.8688 23.3712 29.8731 23.3067 29.8731C20.0712 29.8731 16.8357 29.8731 13.6002 29.8731V29.874C10.3969 29.874 7.19441 29.8792 3.99109 29.8723ZM16.5659 27.7892C18.7586 27.7892 20.9504 27.7901 23.1431 27.7892C24.3914 27.7884 25.1008 27.0667 25.0573 25.8124C25.0425 25.3815 24.9894 24.9454 24.8954 24.5241C24.1389 21.1345 21.3003 18.8086 17.828 18.7721C15.006 18.7425 12.1839 18.7642 9.36187 18.7695C9.03805 18.7695 8.71163 18.799 8.38956 18.8408C4.95905 19.2804 2.23623 22.3314 2.12306 25.7872C2.08476 26.944 2.8708 27.8171 4.09554 27.8023C7.26404 27.7631 10.4343 27.7892 13.6028 27.7892C14.5908 27.7892 15.5779 27.7892 16.5659 27.7892Z" fill="#8A8A8A"/>
<path fill-rule="evenodd" clip-rule="evenodd" d="M13.6055 0.000463465C18.0109 0.00568627 21.5799 3.56503 21.5947 7.96872C21.6103 12.3689 18.0153 15.9744 13.6072 15.9788C9.1992 15.9831 5.60417 12.395 5.60156 7.987C5.59982 3.57895 9.19137 -0.00475934 13.6055 0.000463465ZM7.68633 7.98178C7.68372 11.2312 10.3352 13.8888 13.5846 13.894C16.8523 13.8992 19.516 11.2391 19.5099 7.97568C19.5038 4.72188 16.8541 2.08349 13.5951 2.08523C10.336 2.08697 7.68894 4.72884 7.68633 7.98178Z" fill="#8A8A8A"/>
</g>
</svg>
