<svg width="14" height="17" viewBox="0 0 14 17" fill="none" xmlns="http://www.w3.org/2000/svg">
<g clip-path="url(#clip0_0_6385)">
<mask id="mask0_0_6385" style="mask-type:luminance" maskUnits="userSpaceOnUse" x="-3" y="0" width="19" height="18">
<rect x="-3" width="19" height="17.2727" fill="white"/>
</mask>
<g mask="url(#mask0_0_6385)">
</g>
<g clip-path="url(#clip1_0_6385)">
<mask id="mask1_0_6385" style="mask-type:luminance" maskUnits="userSpaceOnUse" x="-3" y="0" width="19" height="18">
<rect x="-3" width="19" height="17.2727" fill="white"/>
</mask>
<g mask="url(#mask1_0_6385)">
</g>
<g clip-path="url(#clip2_0_6385)">
<mask id="mask2_0_6385" style="mask-type:luminance" maskUnits="userSpaceOnUse" x="-3" y="0" width="19" height="18">
<rect x="-3" width="19" height="17.2727" fill="white"/>
</mask>
<g mask="url(#mask2_0_6385)">
<path fill-rule="evenodd" clip-rule="evenodd" d="M14 15.0031C14.0019 15.6683 13.739 16.2074 13.1852 16.616C12.478 17.1377 11.4767 17.1281 10.7682 16.5908C9.70575 15.7843 8.65032 14.9706 7.59108 14.1605C7.17795 13.8444 6.81701 13.8468 6.40643 14.1611C5.36246 14.961 4.31913 15.7615 3.27389 16.5589C2.03258 17.5061 0.253379 16.7651 0.0312175 15.4117C0.00830115 15.2729 0.00193549 15.1299 0.00193549 14.9886C2.57926e-05 10.6545 -0.000610774 6.32036 0.000662359 1.98623C0.00129893 1.01688 0.592032 0.275289 1.53861 0.0589433C1.72448 0.016275 1.92246 0.00305387 2.1147 0.0024529C5.36946 -0.000551903 8.62486 4.90581e-05 11.8796 4.90581e-05C13.1445 4.90581e-05 13.9962 0.802934 13.9968 2.00005C13.9988 4.17012 13.9968 6.34019 13.9968 8.51026H13.9981C13.9981 10.6743 13.9949 12.8384 14 15.0031ZM12.7956 1.97661C12.7956 1.43394 12.4735 1.13346 11.9006 1.13286C10.7866 1.13226 9.67265 1.13286 8.55802 1.13286C6.39879 1.13286 4.23892 1.13406 2.07969 1.13166C1.77668 1.13166 1.52969 1.22481 1.34764 1.45618C1.21332 1.62745 1.20123 1.82517 1.20123 2.02889C1.2025 6.33298 1.2025 10.6377 1.2025 14.9418C1.2025 15.0067 1.2025 15.0716 1.20696 15.1365C1.22987 15.4808 1.45203 15.732 1.80596 15.821C2.11152 15.8979 2.35596 15.7819 2.58257 15.6082C3.59281 14.8348 4.60877 14.0686 5.61072 13.2861C6.46054 12.6226 7.53251 12.595 8.39633 13.2873C9.3881 14.0812 10.4142 14.8366 11.42 15.6148C11.6676 15.8065 11.9344 15.8769 12.2406 15.7999C12.6028 15.7098 12.7963 15.4267 12.7963 14.9958C12.7969 12.8318 12.7963 10.6677 12.7963 8.50425L12.7956 8.50365C12.7956 6.32817 12.7963 4.15209 12.7956 1.97661Z" fill="#BDBDBD"/>
<path fill-rule="evenodd" clip-rule="evenodd" d="M13.6154 14.4703C13.6172 15.0779 13.3693 15.5704 12.8471 15.9436C12.1802 16.4201 11.236 16.4114 10.568 15.9206C9.56614 15.1839 8.57092 14.4406 7.5721 13.7006C7.18253 13.4119 6.84219 13.4141 6.45503 13.7012C5.47061 14.4318 4.4868 15.163 3.50119 15.8915C2.33069 16.7566 0.652987 16.0798 0.443499 14.8435C0.42189 14.7167 0.415888 14.5861 0.415888 14.4571C0.414087 10.498 0.413487 6.539 0.414687 2.57996C0.415287 1.6945 0.972322 1.01709 1.8649 0.819467C2.04017 0.780492 2.22685 0.768415 2.40813 0.767866C5.47722 0.765121 8.54691 0.76567 11.616 0.76567C12.8087 0.76567 13.6118 1.49907 13.6124 2.59258C13.6142 4.57485 13.6124 6.55711 13.6124 8.53938H13.6136C13.6136 10.5162 13.6106 12.4929 13.6154 14.4703Z" fill="#BDBDBD"/>
</g>
</g>
</g>
</g>
<defs>
<clipPath id="clip0_0_6385">
<rect width="14" height="17" fill="white"/>
</clipPath>
<clipPath id="clip1_0_6385">
<rect width="19" height="17.2727" fill="white" transform="translate(-3)"/>
</clipPath>
<clipPath id="clip2_0_6385">
<rect width="19" height="17.2727" fill="white" transform="translate(-3)"/>
</clipPath>
</defs>
</svg>
