<svg width="24" height="25" viewBox="0 0 24 25" fill="none" xmlns="http://www.w3.org/2000/svg">
<path fill-rule="evenodd" clip-rule="evenodd" d="M17.8218 16.185C17.6976 16.506 17.4496 16.732 17.1783 16.9328C16.8017 17.2114 16.3913 17.4238 15.9371 17.5295C15.3941 17.6559 14.8595 17.6678 14.3097 17.4842C13.4696 17.2038 12.6475 16.8831 11.8557 16.4902C11.477 16.3023 11.1281 16.0512 10.7729 15.8177C10.2353 15.4642 9.75779 15.0343 9.31765 14.5674C8.97729 14.2063 8.66355 13.8187 8.3521 13.4314C8.11814 13.1404 7.88747 12.8432 7.68967 12.5271C7.38737 12.0439 7.05867 11.5777 6.80692 11.061C6.61475 10.6667 6.45348 10.2632 6.35076 9.84036C6.28037 9.55068 6.26725 9.24685 6.22852 8.94933C6.23544 8.39466 6.35165 7.8701 6.60296 7.38385C6.71873 7.15983 6.88151 6.95914 7.03368 6.75602C7.12222 6.63788 7.22926 6.53327 7.33255 6.42714C7.62926 6.12229 7.97808 5.97516 8.40937 6.05616C8.54911 6.08241 8.69503 6.0873 8.8376 6.08311C9.02245 6.07771 9.16676 6.15308 9.24689 6.30763C9.35401 6.51422 9.43849 6.73363 9.52124 6.95195C9.75569 7.57048 9.9744 8.19529 10.2192 8.80957C10.355 9.15016 10.2687 9.43473 10.0606 9.69529C9.86565 9.93926 9.65423 10.1707 9.44012 10.3981C9.20428 10.6487 9.17833 10.7702 9.35324 11.062C9.55571 11.3998 9.74709 11.7469 9.97853 12.0638C10.3578 12.5831 10.7713 13.0768 11.2855 13.4701C11.6103 13.7187 11.9381 13.9648 12.2783 14.191C12.4815 14.326 12.7116 14.4196 12.929 14.5331C13.038 14.59 13.1435 14.6543 13.2548 14.7061C13.3203 14.7367 13.393 14.7534 13.4641 14.7694C13.6889 14.8199 13.8111 14.6644 13.9378 14.5226C14.0912 14.3509 14.2432 14.1779 14.3935 14.0035C14.5192 13.8577 14.6404 13.7081 14.7657 13.562C14.8299 13.4872 14.8922 13.4086 14.9668 13.3454C15.0888 13.2421 15.232 13.2605 15.3614 13.323C15.7408 13.5061 16.1173 13.6954 16.4919 13.8882C16.8881 14.0922 17.2819 14.3007 17.6741 14.5124C17.778 14.5684 17.8725 14.6423 17.9704 14.7094C18.0823 14.7859 18.0855 14.9151 18.0822 15.023C18.0699 15.4256 17.9659 15.8128 17.8218 16.185ZM23.4129 9.49214C23.3223 9.01304 23.1964 8.53822 23.0493 8.07332C22.9156 7.65093 22.7454 7.23868 22.567 6.83281C22.4416 6.54769 22.2794 6.27854 22.1265 6.00632C21.9878 5.75953 21.8527 5.50908 21.6929 5.27637C21.3321 4.75121 20.9519 4.24148 20.5116 3.77799C20.0327 3.27398 19.531 2.79839 18.9654 2.39436C18.6623 2.17784 18.3649 1.95118 18.0486 1.756C17.7147 1.54994 17.3695 1.35817 17.0143 1.19259C16.6112 1.00463 16.1964 0.838621 15.7775 0.689298C15.4281 0.564734 15.0697 0.45788 14.7076 0.379594C14.2458 0.279764 13.7775 0.207357 13.3097 0.139757C12.5988 0.0370622 11.8806 0.0699156 11.169 0.101947C10.6227 0.126506 10.0798 0.254009 9.53807 0.351075C8.96192 0.454268 8.41293 0.652385 7.86503 0.857027C7.17131 1.11614 6.51886 1.45481 5.89569 1.85125C5.55093 2.07059 5.20921 2.29894 4.88971 2.55335C4.55686 2.81839 4.23845 3.10563 3.93916 3.40871C3.59045 3.7619 3.25073 4.12767 2.94059 4.51519C2.4808 5.08969 2.09333 5.7144 1.74983 6.36873C1.48488 6.87344 1.26414 7.39608 1.07561 7.93107C0.876325 8.49648 0.720937 9.0783 0.628895 9.67205C0.559073 10.1225 0.510185 10.5776 0.480254 11.0325C0.451756 11.4655 0.43448 11.9023 0.457688 12.335C0.495726 13.0453 0.573581 13.7516 0.74852 14.4461C0.896419 15.0334 1.07081 15.6091 1.29588 16.171C1.51076 16.7076 1.76204 17.224 2.05915 17.7189C2.08913 17.7688 2.09106 17.8548 2.07198 17.9126C1.92032 18.3732 1.759 18.8307 1.60337 19.29C1.43065 19.7998 1.2592 20.3101 1.09009 20.8212C0.875905 21.4687 0.667254 22.118 0.451188 22.7648C0.305315 23.2015 0.150717 23.6352 0 24.0703H0.148172C0.391054 23.9787 0.632454 23.8828 0.877314 23.7969C1.06214 23.7321 1.25171 23.6812 1.43856 23.6222C1.91748 23.4709 2.39699 23.3215 2.87448 23.1658C3.28612 23.0317 3.69406 22.886 4.10597 22.7527C4.50975 22.622 4.91697 22.5022 5.32174 22.3745C5.66453 22.2664 6.00521 22.1514 6.34888 22.0463C6.40042 22.0306 6.47256 22.0344 6.51937 22.0593C7.09498 22.3657 7.68451 22.6422 8.30564 22.8383C8.80319 22.9954 9.30792 23.1331 9.81578 23.252C10.1283 23.3251 10.4529 23.3448 10.7716 23.3921C11.3297 23.4751 11.8924 23.4879 12.4528 23.4599C12.941 23.4355 13.43 23.3807 13.9125 23.3012C14.3984 23.2212 14.8785 23.1018 15.3574 22.9844C15.5628 22.934 15.7604 22.849 15.9588 22.7725C16.2523 22.6594 16.5523 22.5583 16.8333 22.4188C17.2616 22.2063 17.6803 21.973 18.0948 21.7338C18.3496 21.5868 18.6004 21.4274 18.8327 21.2472C19.1983 20.9636 19.5504 20.6619 19.9017 20.3602C20.3621 19.9649 20.7624 19.5109 21.1263 19.0259C21.3745 18.6953 21.6088 18.3538 21.8387 18.0099C21.9935 17.7783 22.1497 17.5438 22.2699 17.2934C22.4882 16.8383 22.6815 16.3709 22.8826 15.9074C22.9431 15.7679 23.0048 15.6274 23.0481 15.482C23.2203 14.9032 23.3985 14.3254 23.4731 13.7227C23.5251 13.3026 23.5725 12.8819 23.6234 12.4617C23.626 12.4401 23.6427 12.4202 23.6529 12.3995V11.1304C23.6425 11.1014 23.6264 11.0731 23.6224 11.0433C23.5539 10.5259 23.5096 10.004 23.4129 9.49214Z" fill="#00A884"/>
</svg>
