<svg width="20" height="21" viewBox="0 0 20 21" fill="none" xmlns="http://www.w3.org/2000/svg">
<path fill-rule="evenodd" clip-rule="evenodd" d="M15 16.0703H5C4.448 16.0703 4 15.6223 4 15.0703C4 14.5183 4.448 14.0703 5 14.0703H15C15.552 14.0703 16 14.5183 16 15.0703V15.0703C16 15.6223 15.552 16.0703 15 16.0703ZM15 10.0703C15.552 10.0703 16 10.5183 16 11.0703C16 11.6223 15.552 12.0703 15 12.0703H5C4.448 12.0703 4 11.6223 4 11.0703C4 10.5183 4.448 10.0703 5 10.0703V10.0703H15ZM17 18.0703H3C2.448 18.0703 2 17.6223 2 17.0703V3.07031C2 2.51831 2.448 2.07031 3 2.07031H12V6.07031C12 7.17431 12.895 8.07031 14 8.07031H18V17.0703C18 17.6223 17.552 18.0703 17 18.0703ZM14.293 0.363313C14.105 0.175313 13.851 0.0703125 13.586 0.0703125H2C0.895 0.0703125 0 0.965312 0 2.07031V18.0703C0 19.1743 0.895 20.0703 2 20.0703H18C19.105 20.0703 20 19.1743 20 18.0703V6.48431C20 6.21931 19.895 5.96531 19.707 5.77731V5.77731L14.293 0.363313Z" fill="#0465BA"/>
</svg>
