<svg width="23" height="29" viewBox="0 0 23 29" fill="none" xmlns="http://www.w3.org/2000/svg">
<path fill-rule="evenodd" clip-rule="evenodd" d="M22.2184 25.0473C22.2213 26.1238 21.8197 26.996 20.9737 27.6573C19.8934 28.5013 18.3638 28.4858 17.2815 27.6164C15.6585 26.3115 14.0462 24.9948 12.4281 23.684C11.797 23.1725 11.2457 23.1764 10.6185 23.685C9.0237 24.9792 7.42991 26.2745 5.83321 27.5649C3.93699 29.0974 1.21909 27.8984 0.879719 25.7086C0.844712 25.4839 0.834988 25.2525 0.834988 25.024C0.832071 18.0109 0.831098 10.9979 0.833043 3.98479C0.834015 2.41628 1.73642 1.21632 3.1824 0.86625C3.46635 0.797209 3.76877 0.775815 4.06244 0.774843C9.0344 0.769981 14.0073 0.770953 18.9793 0.770953C20.9115 0.770953 22.2126 2.0701 22.2136 4.00715C22.2165 7.51855 22.2136 11.0299 22.2136 14.5413H22.2155C22.2155 18.043 22.2106 21.5447 22.2184 25.0473ZM20.3786 3.96923C20.3786 3.09114 19.8866 2.60493 19.0114 2.60396C17.3097 2.60298 15.6079 2.60396 13.9052 2.60396C10.6068 2.60396 7.30739 2.6059 4.00895 2.60201C3.54608 2.60201 3.16879 2.75274 2.89068 3.12712C2.6855 3.40426 2.66702 3.72418 2.66702 4.05383C2.66896 11.0183 2.66896 17.9837 2.66896 24.9481C2.66896 25.0532 2.66896 25.1582 2.67577 25.2632C2.71078 25.8204 3.05015 26.2269 3.59082 26.3708C4.05757 26.4952 4.43098 26.3076 4.77716 26.0265C6.32039 24.775 7.87236 23.5352 9.40295 22.2691C10.7011 21.1956 12.3387 21.1508 13.6582 22.2711C15.1733 23.5556 16.7408 24.778 18.2772 26.0372C18.6555 26.3474 19.0629 26.4612 19.5307 26.3367C20.084 26.1909 20.3796 25.7329 20.3796 25.0356C20.3806 21.534 20.3796 18.0323 20.3796 14.5316L20.3786 14.5306C20.3786 11.0105 20.3796 7.48937 20.3786 3.96923Z" fill="#8A8A8A"/>
</svg>
