<svg width="12" height="17" viewBox="0 0 12 17" fill="none" xmlns="http://www.w3.org/2000/svg">
<path id="Combined Shape" d="M9.24023 0.0390625C10.3448 0.0390625 11.2402 0.934493 11.2402 2.03906V14.9443C11.2402 16.0489 10.3448 16.9443 9.24023 16.9443H2.25195C1.14738 16.9443 0.251953 16.0489 0.251953 14.9443V2.03906C0.251953 0.934493 1.14738 0.0390625 2.25195 0.0390625H9.24023ZM3.63281 13.5635C3.16598 13.5635 2.78711 13.9423 2.78711 14.4092C2.78734 14.8758 3.16612 15.2539 3.63281 15.2539H7.8584C8.32509 15.2539 8.70387 14.8758 8.7041 14.4092C8.7041 13.9423 8.32523 13.5635 7.8584 13.5635H3.63281ZM5.74609 1.72949C5.04615 1.72967 4.47876 2.29714 4.47852 2.99707C4.47852 3.69721 5.046 4.26545 5.74609 4.26562C6.44634 4.26562 7.01465 3.69732 7.01465 2.99707C7.0144 2.29703 6.44619 1.72949 5.74609 1.72949Z" fill="#CCCCCC"/>
</svg>
