<svg width="30" height="30" viewBox="0 0 30 30" fill="none" xmlns="http://www.w3.org/2000/svg">
<path d="M25.4728 4.16971C27.369 4.1758 28.8674 5.38248 29.2766 7.19946C29.4394 7.92121 29.3079 8.62205 29.1773 9.32813C28.742 11.6858 28.3537 14.0521 27.8688 16.3993C27.2663 19.3176 24.6553 21.4767 21.6795 21.5194C18.6611 21.5629 15.64 21.5673 12.6216 21.5177C9.41861 21.4654 6.73101 18.9737 6.29308 15.7968C5.80031 12.2282 5.27098 8.66471 4.75818 5.09953C4.68679 4.60589 4.61801 4.11138 4.54575 3.61686C4.41255 2.70271 3.73608 2.10024 2.80974 2.0837C2.23426 2.07326 1.65791 2.09154 1.0833 2.07674C0.568763 2.06368 0.156961 1.73197 0.053357 1.28186C-0.0537292 0.815211 0.152608 0.342464 0.571375 0.121327C0.665402 0.0717016 0.77423 0.0168526 0.875221 0.0168526C1.74236 0.0220763 2.62342 -0.0519264 3.47489 0.0743134C5.17782 0.326793 6.39059 1.68496 6.63001 3.38963C7.20375 7.47284 7.78097 11.5552 8.38779 15.634C8.70992 17.7993 10.5182 19.4038 12.7052 19.4343C15.6479 19.4752 18.5923 19.4717 21.535 19.4378C23.7481 19.4125 25.5076 17.8759 25.909 15.6958C26.3582 13.2529 26.7979 10.8082 27.2358 8.36261C27.4474 7.18031 26.6743 6.25832 25.4598 6.25571C22.5493 6.24875 19.6379 6.2531 16.7275 6.2531C14.3376 6.2531 11.9486 6.25484 9.55878 6.2531C8.83877 6.2531 8.37038 5.83085 8.37299 5.19878C8.3756 4.64158 8.78393 4.20192 9.34373 4.1758C9.71201 4.15839 10.082 4.16884 10.4512 4.16884C12.841 4.16884 15.23 4.16884 17.6198 4.16884V4.16797C20.2378 4.16797 22.8549 4.16187 25.4728 4.16971Z" fill="#8A8A8A"/>
<path fill-rule="evenodd" clip-rule="evenodd" d="M21.9319 29.8757C19.8189 29.8748 18.1073 28.1832 18.0977 26.0868C18.0881 23.9677 19.7919 22.2465 21.9075 22.2369C24.0214 22.2273 25.7304 23.9346 25.7365 26.0624C25.7426 28.1623 24.031 29.8766 21.9319 29.8757ZM23.6505 26.0746C23.654 25.1064 22.8826 24.3211 21.9284 24.322C20.9655 24.322 20.1854 25.0986 20.1854 26.0572C20.1854 27.0209 20.9594 27.7888 21.9284 27.7862L21.9276 27.7871C22.8835 27.7845 23.6462 27.0253 23.6505 26.0746Z" fill="#8A8A8A"/>
<path fill-rule="evenodd" clip-rule="evenodd" d="M8.37313 26.0268C8.38619 23.9103 10.1091 22.2195 12.2361 22.2361C14.3395 22.2518 16.032 23.9939 16.0111 26.1217C15.9911 28.1929 14.2559 29.8897 12.1734 29.8749C10.0412 29.8601 8.3592 28.1563 8.37313 26.0268ZM13.9251 26.0746C13.9303 25.1152 13.1493 24.3212 12.1978 24.3212C11.2305 24.3212 10.4609 25.0891 10.46 26.0564C10.4591 27.0297 11.2209 27.788 12.1952 27.7854L12.196 27.7863C13.1459 27.7837 13.9198 27.0175 13.9251 26.0746Z" fill="#8A8A8A"/>
</svg>
