<svg width="23" height="23" viewBox="0 0 23 23" fill="none" xmlns="http://www.w3.org/2000/svg">
<mask id="mask0_0_3600" style="mask-type:luminance" maskUnits="userSpaceOnUse" x="0" y="0" width="23" height="23">
<rect x="0.0273438" y="0.382812" width="22.2335" height="22.2431" fill="white"/>
</mask>
<g mask="url(#mask0_0_3600)">
<path fill-rule="evenodd" clip-rule="evenodd" d="M16.9752 20.6985C16.6038 20.5393 16.2385 20.3662 15.8636 20.2149C15.7775 20.1801 15.654 20.1835 15.567 20.2175C15.1034 20.3984 14.6441 20.588 14.1892 20.7898C14.0979 20.8298 14.004 20.9211 13.9648 21.0116C13.8074 21.376 13.6726 21.7492 13.5273 22.1188C13.3795 22.4946 13.1881 22.6242 12.7854 22.625C11.6851 22.625 10.5857 22.625 9.48542 22.625C9.10967 22.625 8.90962 22.4911 8.77133 22.1432C8.61911 21.7605 8.47908 21.3734 8.31817 20.9959C8.28251 20.9116 8.19031 20.8298 8.1042 20.7915C7.6493 20.5906 7.19005 20.3993 6.72645 20.2183C6.63948 20.1844 6.51597 20.1818 6.42986 20.2166C6.04889 20.3706 5.67401 20.5402 5.29826 20.7089C4.98427 20.8498 4.71115 20.7994 4.46761 20.5549C3.68046 19.7652 2.8933 18.9772 2.10353 18.1909C1.85303 17.9412 1.80171 17.6638 1.94871 17.3411C2.12005 16.9671 2.28879 16.5913 2.44362 16.2104C2.4758 16.1303 2.47058 16.0147 2.4384 15.9329C2.254 15.4632 2.06004 14.997 1.85738 14.5343C1.82172 14.4534 1.74518 14.3673 1.66603 14.3334C1.28767 14.1733 0.901481 14.0315 0.518774 13.8811C0.156942 13.7375 0.0273438 13.5445 0.0273438 13.1513C0.0273438 12.051 0.0273438 10.9507 0.0273438 9.85046C0.0273438 9.46166 0.159552 9.26944 0.524863 9.12506C0.900611 8.97719 1.28071 8.8389 1.65124 8.67799C1.74083 8.63884 1.82607 8.53969 1.86695 8.44749C2.06439 7.99868 2.25226 7.54552 2.4297 7.08888C2.46362 7.00103 2.47319 6.87752 2.43927 6.79228C2.28618 6.41045 2.11049 6.03818 1.94784 5.65982C1.79736 5.31016 1.83824 5.08576 2.10962 4.81352C2.89069 4.02897 3.6735 3.24529 4.45805 2.46422C4.72855 2.19458 4.9547 2.15283 5.30348 2.30331C5.68097 2.46596 6.05411 2.63991 6.43508 2.79561C6.51597 2.82866 6.63165 2.8304 6.71341 2.79822C7.18918 2.61034 7.66148 2.4129 8.13116 2.2085C8.20596 2.17632 8.28512 2.10238 8.31556 2.02845C8.47386 1.64922 8.61564 1.26217 8.76611 0.879462C8.90788 0.51676 9.10359 0.382812 9.49151 0.382812C10.5988 0.382812 11.706 0.382812 12.8124 0.382812C13.1759 0.382812 13.3751 0.51502 13.5108 0.854238C13.6665 1.24303 13.8091 1.63705 13.9727 2.02236C14.0057 2.10151 14.0927 2.17806 14.1736 2.21372C14.6363 2.41551 15.1016 2.60947 15.5722 2.79213C15.6592 2.82605 15.7827 2.82605 15.8688 2.79126C16.2428 2.63991 16.6116 2.47291 16.9795 2.30418C17.3022 2.15631 17.5797 2.20937 17.8293 2.459C18.6156 3.24877 19.4045 4.03592 20.1925 4.82395C20.4352 5.06662 20.4865 5.34148 20.3447 5.65547C20.176 6.03035 20.0055 6.40523 19.8516 6.78707C19.8168 6.8723 19.822 6.99581 19.8559 7.08366C20.0368 7.54726 20.2273 8.00738 20.4274 8.46228C20.4656 8.54839 20.5474 8.63971 20.6326 8.67625C21.004 8.83455 21.3833 8.97371 21.7599 9.12071C22.12 9.26161 22.2609 9.4634 22.2609 9.84524C22.2609 10.9525 22.2609 12.0606 22.2609 13.1678C22.2609 13.5384 22.12 13.7454 21.7755 13.8811C21.3998 14.0289 21.0197 14.1664 20.6483 14.3255C20.5578 14.3647 20.4665 14.4586 20.4265 14.5499C20.2247 15.0048 20.0342 15.4649 19.8533 15.9285C19.8194 16.0155 19.8194 16.139 19.8533 16.2251C20.0046 16.6 20.176 16.9662 20.336 17.3376C20.4917 17.6968 20.4508 17.9221 20.1716 18.2022C19.3958 18.9815 18.6217 19.7634 17.8345 20.5323C17.698 20.6654 17.504 20.7393 17.3631 20.8237H17.364C17.1935 20.7698 17.0804 20.7437 16.9752 20.6985ZM3.98053 11.5135C3.98575 15.4589 7.21093 18.6762 11.1545 18.671C15.0982 18.6658 18.3155 15.4389 18.3094 11.4944C18.3033 7.54726 15.0799 4.33165 11.1354 4.33774L11.1345 4.33687C7.19005 4.34209 3.97444 7.56727 3.98053 11.5135Z" fill="#CCCCCC"/>
<path fill-rule="evenodd" clip-rule="evenodd" d="M5.31641 12.1544C5.52342 12.1544 5.71042 12.157 5.89656 12.1544C6.29579 12.1483 6.58804 11.8674 6.58369 11.4968C6.57934 11.1341 6.29144 10.8602 5.90438 10.8532C5.71738 10.8497 5.53037 10.8532 5.31902 10.8532C5.44948 9.72161 5.86611 8.73614 6.58543 7.81764C6.72111 7.97073 6.83854 8.11772 6.97161 8.24819C7.26038 8.53087 7.66049 8.53696 7.92055 8.27341C8.1754 8.01509 8.16931 7.62542 7.89881 7.33839C7.77008 7.20183 7.62917 7.07658 7.47783 6.93046C8.37197 6.22158 9.36005 5.81278 10.4925 5.67188C10.4925 5.87541 10.4908 6.06241 10.4925 6.24854C10.4977 6.64952 10.7743 6.94264 11.1449 6.9409C11.5145 6.93916 11.7885 6.64604 11.7929 6.2442C11.7955 6.06415 11.7929 5.8841 11.7929 5.67535C12.9218 5.80495 13.9056 6.22158 14.8284 6.94351C14.6771 7.07832 14.5301 7.194 14.3996 7.32621C14.1143 7.61498 14.1047 8.01248 14.3666 8.27515C14.6284 8.53783 15.0232 8.52826 15.3164 8.24558C15.446 8.12033 15.5634 7.98203 15.706 7.82895C16.4201 8.72831 16.8281 9.71465 16.969 10.8523C16.7689 10.8523 16.5845 10.8506 16.3993 10.8523C15.9974 10.8567 15.7034 11.1307 15.7017 11.4995C15.6999 11.8691 15.9931 12.1483 16.3923 12.1535C16.5784 12.1561 16.7654 12.1535 16.9672 12.1535C16.8315 13.2825 16.4219 14.2663 15.7043 15.1813C15.5712 15.036 15.4521 14.8942 15.3198 14.7655C15.0276 14.4794 14.6353 14.4663 14.3709 14.7264C14.1013 14.9908 14.1134 15.3935 14.4092 15.691C14.5362 15.8188 14.6771 15.9328 14.8241 16.0632C13.9108 16.786 12.9218 17.1948 11.792 17.3331C11.792 17.1209 11.7946 16.9348 11.792 16.7478C11.785 16.3598 11.5128 16.0711 11.1509 16.0658C10.7813 16.0598 10.4977 16.3529 10.4916 16.7512C10.489 16.9382 10.4916 17.1252 10.4916 17.3314C9.35918 17.1983 8.37458 16.7817 7.46217 16.0676C7.61178 15.9328 7.75181 15.818 7.87793 15.6892C8.17105 15.3883 8.18062 14.9864 7.90925 14.7238C7.64309 14.4663 7.25169 14.4811 6.96031 14.769C6.83158 14.896 6.7159 15.0351 6.58021 15.1839L6.58195 15.183C5.86437 14.2741 5.45383 13.286 5.31641 12.1544ZM11.7946 9.41284C11.7937 8.97707 11.5241 8.67699 11.1388 8.68047C10.7613 8.68395 10.4943 8.97968 10.4934 9.40153C10.4916 10.0817 10.4916 10.761 10.4934 11.4412C10.4951 11.8856 10.7648 12.1527 11.2118 12.1544C11.8842 12.1561 12.5565 12.1553 13.2289 12.1544C13.6672 12.1544 13.9656 11.8883 13.9647 11.5029C13.9647 11.1176 13.6664 10.8541 13.2271 10.8532C12.7583 10.8523 12.2895 10.8532 11.7946 10.8532V10.8523C11.7946 10.3522 11.7955 9.88252 11.7946 9.41284Z" fill="#CCCCCC"/>
</g>
</svg>
