<svg width="30" height="29" viewBox="0 0 30 29" fill="none" xmlns="http://www.w3.org/2000/svg">
<path fill-rule="evenodd" clip-rule="evenodd" d="M9.3745 0.217419C15.4571 -0.959747 21.3575 2.74942 22.8827 8.77191C23.6927 11.9718 23.2053 15.0094 21.4113 17.8038C21.2282 18.0899 21.2673 18.2302 21.4924 18.4489C23.7647 20.6611 26.8866 23.8697 29.1499 26.091C29.1499 26.091 29.8461 27.1649 28.8656 28.0774C27.885 28.9899 26.7204 28.0774 26.7204 28.0774C24.4581 25.775 21.4918 22.8566 19.2186 20.5642C18.9872 20.3309 18.1222 21.1895 17.8506 21.3663C16.1924 22.4478 14.3738 23.0291 12.3903 23.1612C6.5801 23.5475 1.42408 19.4967 0.284269 13.8778C0.132112 13.1262 0.092023 12.3508 0 11.5873C0.0574005 6.09687 4.0317 1.25063 9.3745 0.217419ZM2.01672 11.5834C2.036 16.9246 6.28721 21.3067 11.7968 21.3798C16.8711 21.4468 21.65 16.8312 21.583 11.6322C21.511 6.09209 17.0913 1.82871 11.7806 1.81957C6.43335 1.82262 1.99642 6.24127 2.01672 11.5834Z" fill="#8A8A8A"/>
</svg>
