<svg width="18" height="27" viewBox="0 0 18 27" fill="none" xmlns="http://www.w3.org/2000/svg">
<path fill-rule="evenodd" clip-rule="evenodd" d="M7.14821 23.7435C5.20815 20.9463 3.43652 18.0506 2.08035 14.9178C1.44157 13.4406 0.935033 11.9235 0.678022 10.3278C0.107857 6.79202 2.07411 3.11153 5.34913 1.6019C10.1837 -0.627606 15.7306 2.05853 16.967 7.23244C17.3401 8.79446 17.1841 10.3403 16.7687 11.8724C16.1935 13.9946 15.2827 15.977 14.2397 17.9009C12.7463 20.6581 11.0583 23.2906 9.13194 25.7659C9.06207 25.8545 8.98846 25.9406 8.86245 26.0915C8.26983 25.2806 7.69093 24.5245 7.14821 23.7435ZM6.33601 9.09265C6.32977 10.4962 7.4701 11.644 8.87867 11.6515C10.2685 11.659 11.4226 10.5249 11.4363 9.13756C11.45 7.72899 10.3147 6.57619 8.90861 6.5687C7.49131 6.56121 6.34224 7.68907 6.33601 9.09265Z" fill="#CCCCCC"/>
</svg>
