<svg width="47" height="47" viewBox="0 0 47 47" fill="none" xmlns="http://www.w3.org/2000/svg">
<mask id="mask0_0_5581" style="mask-type:luminance" maskUnits="userSpaceOnUse" x="0" y="0" width="47" height="47">
<rect x="0.400391" y="0.195312" width="46.3948" height="46.3948" fill="white"/>
</mask>
<g mask="url(#mask0_0_5581)">
<path d="M37.9299 7.88281C37.5476 7.88289 37.1739 7.99631 36.8561 8.20873C36.5383 8.42115 36.2906 8.72303 36.1443 9.07621C35.998 9.4294 35.9597 9.81802 36.0343 10.1929C36.1088 10.5679 36.2929 10.9123 36.5632 11.1826L38.6625 13.282L31.7304 20.2122C31.362 20.5643 30.8722 20.7607 30.3627 20.7607C29.8532 20.7607 29.3633 20.5643 28.995 20.2122L28.6664 19.8817C27.5618 18.8263 26.0929 18.2374 24.5653 18.2374C23.0376 18.2374 21.5687 18.8263 20.4642 19.8817L10.6052 29.7406C10.242 30.1049 10.0383 30.5985 10.0391 31.1129C10.0398 31.6274 10.2448 32.1204 10.6091 32.4837C10.9734 32.8469 11.467 33.0506 11.9815 33.0499C12.4959 33.0491 12.989 32.8441 13.3522 32.4798L23.2111 22.6209C23.5792 22.2685 24.0692 22.0717 24.5788 22.0717C25.0884 22.0717 25.5784 22.2685 25.9465 22.6209L26.2751 22.9515C27.3801 24.0059 28.8488 24.5943 30.3762 24.5943C31.9036 24.5943 33.3723 24.0059 34.4773 22.9515L41.4095 16.0193L43.5089 18.1187C43.7801 18.3846 44.1237 18.5647 44.4967 18.6365C44.8697 18.7082 45.2556 18.6686 45.6062 18.5223C45.9568 18.3761 46.2565 18.1299 46.4679 17.8143C46.6794 17.4988 46.7932 17.1279 46.7952 16.7481V10.7825C46.7952 10.0134 46.4897 9.2759 45.9459 8.73211C45.4021 8.18831 44.6645 7.88281 43.8955 7.88281H37.9299Z" fill="#8A8A8A"/>
<path d="M10.066 42.6775C8.5279 42.6775 7.05281 42.0665 5.96522 40.9789C4.87763 39.8913 4.26663 38.4163 4.26663 36.8782V2.12843C4.26663 1.61574 4.06296 1.12404 3.70043 0.76151C3.3379 0.39898 2.8462 0.195313 2.33351 0.195312C1.82081 0.195313 1.32912 0.39898 0.966588 0.76151C0.604058 1.12404 0.400391 1.61574 0.400391 2.12843L0.400391 36.8782C0.40346 39.4407 1.42278 41.8974 3.23477 43.7094C5.04675 45.5214 7.50345 46.5407 10.066 46.5438H44.8621C45.3748 46.5438 45.8665 46.3401 46.229 45.9776C46.5916 45.615 46.7952 45.1233 46.7952 44.6106C46.7952 44.0979 46.5916 43.6062 46.229 43.2437C45.8665 42.8812 45.3748 42.6775 44.8621 42.6775H10.066Z" fill="#8A8A8A"/>
</g>
</svg>
