<svg width="48" height="47" viewBox="0 0 48 47" fill="none" xmlns="http://www.w3.org/2000/svg">
<mask id="mask0_0_5572" style="mask-type:luminance" maskUnits="userSpaceOnUse" x="0" y="0" width="48" height="47">
<rect x="0.681641" y="0.195312" width="46.3948" height="46.3948" fill="white"/>
</mask>
<g mask="url(#mask0_0_5572)">
<path fill-rule="evenodd" clip-rule="evenodd" d="M0.681641 23.3927C0.681641 36.1842 11.0876 46.5902 23.8791 46.5902C36.6705 46.5902 47.0765 36.1842 47.0765 23.3927C47.0765 10.6013 36.6705 0.195312 23.8791 0.195312C11.0876 0.195312 0.681641 10.6013 0.681641 23.3927ZM4.54788 23.3927C4.54788 12.7335 13.2198 4.06155 23.8791 4.06155C34.5383 4.06155 43.2103 12.7335 43.2103 23.3927C43.2103 34.0519 34.5383 42.7239 23.8791 42.7239C13.2198 42.7239 4.54788 34.0519 4.54788 23.3927ZM25.8122 33.0583V34.9914C25.8122 36.0605 24.9481 36.9246 23.8791 36.9246C22.8101 36.9246 21.9459 36.0605 21.9459 34.9914V33.0583H21.4279C19.3652 33.0583 17.4398 31.9487 16.4056 30.1606C15.8702 29.2346 16.1872 28.0535 17.1093 27.5199C18.0352 26.9806 19.2183 27.3015 19.7499 28.2236C20.096 28.8229 20.7377 29.1921 21.4259 29.1921H25.8102C26.8773 29.1921 27.7434 28.3261 27.7434 27.259C27.7434 26.5283 27.2195 25.9097 26.4984 25.7898L20.6198 24.8097C18.0256 24.3786 16.1447 22.1555 16.1447 19.5265C16.1447 16.3291 18.7466 13.7271 21.944 13.7271V11.794C21.944 10.7269 22.8081 9.8609 23.8771 9.8609C24.9461 9.8609 25.8102 10.7269 25.8102 11.794V13.7271H26.3283C28.391 13.7271 30.3163 14.8387 31.3506 16.6268C31.886 17.5509 31.569 18.732 30.6469 19.2675C29.719 19.8029 28.5379 19.4859 28.0063 18.5619C27.6602 17.9645 27.0184 17.5953 26.3303 17.5953H21.9459C20.8789 17.5953 20.0128 18.4633 20.0128 19.5284C20.0128 20.2591 20.5367 20.8777 21.2578 20.9976L27.1364 21.9777C29.7306 22.4088 31.6115 24.6319 31.6115 27.2609V27.259C31.6115 30.4564 29.0096 33.0583 25.8122 33.0583Z" fill="#8A8A8A"/>
</g>
</svg>
