<svg width="47" height="47" viewBox="0 0 47 47" fill="none" xmlns="http://www.w3.org/2000/svg">
<mask id="mask0_0_5560" style="mask-type:luminance" maskUnits="userSpaceOnUse" x="0" y="0" width="47" height="47">
<rect x="0.28125" y="0.179688" width="46.3948" height="46.3948" fill="white"/>
</mask>
<g mask="url(#mask0_0_5560)">
<path fill-rule="evenodd" clip-rule="evenodd" d="M39.9103 30.143C43.6412 30.143 46.6762 27.108 46.6762 23.3771C46.6762 19.6462 43.6412 16.6112 39.9103 16.6112C36.856 16.6112 34.2985 18.6584 33.4595 21.444H31.2113V9.84528C31.2113 9.31367 31.6462 8.87872 32.1779 8.87872H33.4595C34.2985 11.6643 36.856 13.7115 39.9103 13.7115C43.6412 13.7115 46.6762 10.6765 46.6762 6.9456C46.6762 3.21468 43.6412 0.179688 39.9103 0.179688C36.856 0.179688 34.2985 2.22686 33.4595 5.01248H32.1779C29.5121 5.01248 27.3451 7.17951 27.3451 9.84528V21.444H23.4788V25.3102H27.3451V36.9089C27.3451 39.5747 29.5121 41.7417 32.1779 41.7417H33.4595C34.2985 44.5274 36.856 46.5745 39.9103 46.5745C43.6412 46.5745 46.6762 43.5395 46.6762 39.8086C46.6762 36.0777 43.6412 33.0427 39.9103 33.0427C36.856 33.0427 34.2985 35.0899 33.4595 37.8755H32.1779C31.6462 37.8755 31.2113 37.4405 31.2113 36.9089V25.3102H33.4595C34.2985 28.0959 36.856 30.143 39.9103 30.143ZM42.81 23.3771C42.81 24.9758 41.509 26.2768 39.9103 26.2768C38.3116 26.2768 37.0107 24.9758 37.0107 23.3771C37.0107 21.7784 38.3116 20.4774 39.9103 20.4774C41.509 20.4774 42.81 21.7784 42.81 23.3771ZM42.81 6.9456C42.81 8.54429 41.509 9.84528 39.9103 9.84528C38.3116 9.84528 37.0107 8.54429 37.0107 6.9456C37.0107 5.34691 38.3116 4.04592 39.9103 4.04592C41.509 4.04592 42.81 5.34691 42.81 6.9456ZM42.81 39.8086C42.81 41.4073 41.509 42.7083 39.9103 42.7083C38.3116 42.7083 37.0107 41.4073 37.0107 39.8086C37.0107 38.2099 38.3116 36.9089 39.9103 36.9089C41.509 36.9089 42.81 38.2099 42.81 39.8086ZM18.2381 17.485C17.0686 16.2246 15.5453 15.3083 13.8113 14.912V11.7784H9.94505V14.912C8.21298 15.3083 6.68775 16.2246 5.51821 17.485L2.79058 15.9133L0.861328 19.2615L3.59862 20.8389C3.34925 21.647 3.1772 22.4879 3.1772 23.3771C3.1772 24.2663 3.34925 25.1072 3.59862 25.9153L0.861328 27.4927L2.79058 30.8409L5.51821 29.2693C6.68775 30.5296 8.21105 31.4459 9.94505 31.8422V34.9758H13.8113V31.8422C15.5434 31.4459 17.0686 30.5296 18.2381 29.2693L20.9658 30.8409L22.895 27.4927L20.1577 25.9153C20.4071 25.1072 20.5791 24.2663 20.5791 23.3771C20.5791 22.4879 20.4071 21.647 20.1577 20.8389L22.895 19.2615L20.9658 15.9133L18.2381 17.485ZM7.04731 23.3771C7.04731 20.7113 9.21433 18.5443 11.8801 18.5443C14.5459 18.5443 16.7129 20.7113 16.7129 23.3771C16.7129 26.0429 14.5459 28.2099 11.8801 28.2099C9.21433 28.2099 7.04731 26.0429 7.04731 23.3771Z" fill="#8A8A8A"/>
</g>
</svg>
