<svg width="48" height="47" viewBox="0 0 48 47" fill="none" xmlns="http://www.w3.org/2000/svg">
<mask id="mask0_0_5545" style="mask-type:luminance" maskUnits="userSpaceOnUse" x="0" y="0" width="48" height="47">
<rect x="0.916016" y="0.195312" width="46.3948" height="46.3948" fill="white"/>
</mask>
<g mask="url(#mask0_0_5545)">
<path fill-rule="evenodd" clip-rule="evenodd" d="M24.1132 11.7947C24.1132 5.39803 18.9111 0.196011 12.5145 0.196011C6.11777 0.196011 0.915746 5.39803 0.915746 11.7947C0.915746 18.1914 6.11777 23.3934 12.5145 23.3934C18.9111 23.3934 24.1132 18.1914 24.1132 11.7947ZM20.2469 11.7947C20.2469 13.9733 19.3345 15.9374 17.8789 17.3428C17.0167 15.226 14.9483 13.7278 12.5241 13.7278H12.5048C10.0787 13.7278 8.00836 15.2241 7.14619 17.3408C5.69442 15.9335 4.78198 13.9733 4.78198 11.7947C4.78198 7.53026 8.25 4.06225 12.5145 4.06225C16.7789 4.06225 20.2469 7.53026 20.2469 11.7947ZM12.5145 5.99537C14.1151 5.99537 15.4141 7.29442 15.4141 8.89504C15.4141 10.4957 14.1151 11.7947 12.5145 11.7947C10.9138 11.7947 9.61478 10.4957 9.61478 8.89504C9.61478 7.29442 10.9138 5.99537 12.5145 5.99537ZM45.3775 13.6254C44.6042 13.6254 43.8735 13.1595 43.5758 12.394L41.4223 6.87494C34.3529 21.8605 21.5615 31.9397 3.35148 36.8595C3.18329 36.904 3.01318 36.9253 2.84693 36.9253C1.99443 36.9253 1.21345 36.3589 0.981472 35.4967C0.703103 34.4663 1.31204 33.4051 2.34432 33.1248C19.4698 28.4988 31.4513 19.0536 38.0104 5.03267L32.0718 7.34855C31.0724 7.73904 29.9551 7.24223 29.5684 6.25054C29.1799 5.25498 29.6728 4.13571 30.6664 3.74715L39.1741 0.427985C41.0241 -0.298867 43.1331 0.625164 43.86 2.48096L47.1791 10.9886C47.5677 11.9842 47.0748 13.1034 46.0811 13.492L46.0792 13.4939C45.8492 13.5848 45.6114 13.6254 45.3775 13.6254ZM45.3775 44.6577C45.3775 45.7268 44.5114 46.5909 43.4444 46.5909C42.3773 46.5909 41.5112 45.7268 41.5112 44.6577V17.5941C41.5112 16.5251 42.3773 15.661 43.4444 15.661C44.5114 15.661 45.3775 16.5251 45.3775 17.5941V44.6577ZM35.7119 44.6577C35.7119 45.7268 34.8458 46.5909 33.7788 46.5909C32.7117 46.5909 31.8456 45.7268 31.8456 44.6577V27.2597C31.8456 26.1907 32.7117 25.3266 33.7788 25.3266C34.8458 25.3266 35.7119 26.1907 35.7119 27.2597V44.6577ZM26.0463 44.6577C26.0463 45.7268 25.1803 46.5909 24.1132 46.5909C23.0461 46.5909 22.1801 45.7268 22.1801 44.6577V34.9921C22.1801 33.9231 23.0461 33.059 24.1132 33.059C25.1803 33.059 26.0463 33.9231 26.0463 34.9921V44.6577ZM16.3807 44.6577C16.3807 45.7268 15.5147 46.5909 14.4476 46.5909C13.3805 46.5909 12.5145 45.7268 12.5145 44.6577V38.8584C12.5145 37.7894 13.3805 36.9253 14.4476 36.9253C15.5147 36.9253 16.3807 37.7894 16.3807 38.8584V44.6577ZM6.7151 44.6577C6.7151 45.7268 5.84907 46.5909 4.78198 46.5909C3.7149 46.5909 2.84886 45.7268 2.84886 44.6577V42.7246C2.84886 41.6556 3.7149 40.7915 4.78198 40.7915C5.84907 40.7915 6.7151 41.6556 6.7151 42.7246V44.6577Z" fill="#8A8A8A"/>
</g>
</svg>
