<svg width="46" height="60" viewBox="0 0 46 60" fill="none" xmlns="http://www.w3.org/2000/svg">
<path fill-rule="evenodd" clip-rule="evenodd" d="M42.432 33.6165C44.4252 30.297 45.5702 26.4182 45.5702 22.2742C45.5702 10.0135 35.5478 0.0742188 23.1845 0.0742188C10.8212 0.0742188 0.798828 10.0135 0.798828 22.2742C0.798828 27.9645 2.95765 33.1548 6.50736 37.0835L22.9892 59.4216L39.7925 37.1596C40.7223 36.1401 41.5578 35.0346 42.2857 33.8565L42.4669 33.6165H42.432Z" fill="#0465BA"/>
<path fill-rule="evenodd" clip-rule="evenodd" d="M16.4318 32.5484C11.181 28.9169 9.91 21.9002 12.7162 16.6353C12.7214 16.6257 12.7268 16.6164 12.732 16.6068C12.7942 16.4909 12.862 16.3769 12.9281 16.2627C13.3534 15.5424 13.8422 14.869 14.393 14.2518C14.4691 14.1677 14.5451 14.0833 14.6241 14.0008C14.6597 13.9626 14.6957 13.9244 14.7319 13.8868C14.7724 13.8477 14.8061 13.814 14.8305 13.7854C17.2233 11.3753 20.6635 9.97453 25.0945 10.3408C27.6404 10.6787 29.8969 11.9042 31.839 13.9465C34.8157 17.0767 35.7655 20.8981 34.8802 25.0929C33.0231 33.8923 23.2229 37.2452 16.4318 32.5484ZM35.5739 7.68623C32.5262 5.13258 29.0713 3.71806 25.2704 3.32295V3.31846C18.0678 2.55005 11.4962 5.53412 7.55214 11.1553C7.46837 11.2731 7.38588 11.3915 7.30467 11.5109C7.28124 11.5459 7.25781 11.5806 7.2347 11.6159C4.38384 15.8796 3.2261 21.2659 4.34115 26.3715C6.57639 36.6063 16.1773 43.1099 26.4689 41.3824C36.6363 39.6758 43.7721 30.1683 42.2311 19.5869C41.5333 14.7935 39.2904 10.8 35.5739 7.68623Z" fill="#FEFEFE"/>
</svg>
