<svg width="87" height="82" viewBox="0 0 87 82" fill="none" xmlns="http://www.w3.org/2000/svg">
<path d="M13.6523 52.7813L13.6484 60.9356C13.6484 61.6215 13.707 62.2525 14.3867 62.6299C15.0839 63.0176 15.6344 62.6748 16.1914 62.294C16.5085 62.0767 16.8312 61.8656 17.1533 61.6543C17.6399 61.3351 18.1268 61.0154 18.5977 60.6748C18.9837 60.3971 19.2707 60.4035 19.6533 60.6846C20.2131 61.0908 20.7904 61.4724 21.3682 61.8535H21.3691L22.2676 62.4522C22.7732 62.7917 23.3712 63.0348 23.8359 62.5928C24.2016 62.2463 24.5331 61.6561 24.54 61.169C24.5841 58.38 24.5792 55.5887 24.5742 52.7988V52.7979L24.5713 50.1221V49.1514H38.1592V82H3.0752C1.09651 82 -0.000939602 80.9125 -0.000976562 78.9502V49.1406H13.6523V52.7813ZM51.877 38.3955C51.877 40.7195 51.8765 43.0439 51.876 45.3682V45.374C51.8742 53.1216 51.8722 60.8706 51.8906 68.6172C51.8905 69.7251 51.5413 70.5866 50.7656 71.3584C48.5043 73.6058 46.2539 75.8678 44.0039 78.1299C43.2008 78.9373 42.3973 79.7451 41.5938 80.5518C41.5015 80.6444 41.4057 80.7343 41.2891 80.8428C41.207 80.9191 41.1145 81.005 41.0059 81.1084C40.9981 80.9644 40.9889 80.8367 40.9805 80.7197L40.9619 80.4492C40.9572 80.3636 40.9541 80.2814 40.9541 80.1992V61.501C40.9557 57.3454 40.9596 53.1898 40.9678 49.0342C40.9678 48.6534 41.1046 48.166 41.3574 47.9053C44.0114 45.203 46.6875 42.5202 49.3623 39.8379L49.373 39.8272C50.0734 39.1248 50.7738 38.4223 51.4736 37.7197C51.5235 37.6697 51.5787 37.6247 51.6719 37.5498C51.7255 37.5067 51.7921 37.4539 51.877 37.3838V38.3955ZM21.7891 58.8184C21.5921 58.6899 21.3999 58.5669 21.2119 58.4463C20.8128 58.1902 20.4312 57.9453 20.0596 57.6865C19.4206 57.2373 18.8089 57.2269 18.1699 57.6865C17.8017 57.9513 17.4216 58.1993 17.0107 58.4678C16.8307 58.5854 16.6448 58.7074 16.4512 58.8359V49.1377H21.7891V58.8184ZM-0.000976562 49.1406H-0.00390625L-0.000976562 49.1377V49.1406ZM49.9121 35.4004H49.9053C49.7971 35.5186 49.7051 35.621 49.623 35.7119C49.4707 35.8806 49.3524 36.0121 49.2285 36.1387L46.5439 38.832L46.542 38.834C44.2397 41.1428 41.938 43.4512 39.6523 45.7754C39.2115 46.2213 38.7738 46.3823 38.1621 46.3789C34.9473 46.3604 31.7344 46.3624 28.5205 46.3643C27.5562 46.3648 26.5915 46.3652 25.627 46.3652H24.6426C24.7334 46.2615 24.8105 46.1697 24.8799 46.0869C24.9985 45.9454 25.0953 45.8297 25.2031 45.7236C28.4565 42.4508 31.71 39.178 34.9805 35.9258C35.2368 35.6719 35.6407 35.4243 35.9756 35.4209C37.7508 35.4076 39.5261 35.4019 41.3135 35.3994H46.7373C47.7845 35.4001 48.8398 35.4004 49.9053 35.4004L49.9082 35.3975L49.9121 35.4004ZM31.2803 35.3897C31.6983 35.392 32.1169 35.3936 32.5342 35.3936C32.5632 35.4365 32.592 35.4807 32.6211 35.5244C32.65 35.568 32.6791 35.6116 32.708 35.6543L32.7119 35.6582C32.5938 35.7559 32.4724 35.8505 32.3516 35.9453C32.0947 36.147 31.8375 36.3486 31.6074 36.5772L28.5293 39.6631C26.4791 41.7212 24.4287 43.7805 22.3604 45.8203C22.0596 46.1188 21.5429 46.3237 21.1191 46.3408C20.0357 46.3853 18.9504 46.3786 17.8174 46.3711C17.378 46.3682 16.931 46.3652 16.4746 46.3652C16.5458 46.2766 16.607 46.1972 16.6621 46.125C16.7603 45.9963 16.8407 45.8904 16.9326 45.7959L17.5508 45.1738L17.5518 45.1729C20.6395 42.0665 23.7264 38.9619 26.8369 35.8779C27.1034 35.6138 27.5577 35.4279 27.9336 35.4141C29.0472 35.3766 30.1647 35.3835 31.2803 35.3897ZM0.928711 46.3652V46.3584H0.932617L0.928711 46.3652ZM21.1875 35.3916C22.1378 35.3943 23.0881 35.3975 24.0381 35.3975C24.1029 35.3975 24.169 35.4053 24.2607 35.416C24.3187 35.4228 24.3871 35.4305 24.4717 35.4385C24.4016 35.5177 24.3383 35.5907 24.2793 35.6592C24.1543 35.8042 24.0477 35.9278 23.9316 36.042L22.9551 37.0234C20.0271 39.9662 17.0984 42.9109 14.1582 45.8408C13.919 46.0809 13.5526 46.3379 13.2451 46.3379C11.6678 46.3512 10.0905 46.3569 8.50586 46.3594H3.7168C2.79419 46.3587 1.86638 46.3584 0.932617 46.3584C0.969652 46.2946 0.997315 46.2437 1.01953 46.2022C1.05881 46.1287 1.08272 46.0844 1.11719 46.0498C1.87224 45.291 2.62588 44.5306 3.37988 43.7705H3.38086C5.87557 41.2556 8.37064 38.7396 10.9082 36.2686C11.3901 35.7986 12.2004 35.4517 12.8701 35.4346C15.6415 35.3758 18.4151 35.3838 21.1875 35.3916ZM69.4307 9.96454e-06C79.1516 0.0104553 87.0194 8.03409 86.999 17.9121C86.9784 27.6767 79.0327 35.6307 69.3086 35.6172C59.5977 35.6069 51.7262 27.5803 51.7432 17.7022C51.7603 7.94419 59.7063 -0.0102761 69.4307 9.96454e-06ZM78.4385 11.3701C77.9361 10.873 77.3352 10.821 76.7412 11.2324C76.5105 11.3901 76.3174 11.6064 76.1172 11.8086C73.6021 14.3459 71.0831 16.8831 68.5781 19.4307C67.9638 20.0546 67.3832 20.7096 66.6807 21.4639V21.457C65.8491 20.5862 65.1704 19.8621 64.4814 19.1524C63.7689 18.4223 63.0595 17.6856 62.3232 16.9795C61.4272 16.1189 60.1094 16.3896 59.9668 17.5108C59.9059 17.9804 60.1978 18.6283 60.5371 18.9951C62.0849 20.6546 63.708 22.242 65.3066 23.8535C66.3791 24.9334 66.9455 24.9402 68.001 23.874C71.3748 20.4693 74.7458 17.0614 78.1162 13.6533C78.2961 13.4717 78.4824 13.2897 78.6182 13.0772C79.0119 12.4669 78.9407 11.8638 78.4385 11.3701Z" fill="#3A3A3A"/>
</svg>
