<svg width="84" height="71" viewBox="0 0 84 71" fill="none" xmlns="http://www.w3.org/2000/svg">
<path fill-rule="evenodd" clip-rule="evenodd" d="M48.4439 43.3525C46.852 40.2526 44.3026 38.5155 40.8109 38.2685C39.7702 38.1955 38.7259 38.1933 37.6805 38.1911H37.6804H37.6803C37.2247 38.1901 36.7688 38.1892 36.313 38.1824C36.0855 38.1798 35.8598 38.1807 35.6524 38.1816H35.6521H35.6512C35.5543 38.182 35.4615 38.1824 35.3744 38.1824C35.4022 37.6162 35.444 37.062 35.4851 36.5164L35.4851 36.5162C35.5718 35.3661 35.6557 34.254 35.5997 33.147C35.3443 28.093 32.9452 24.2968 28.3572 22.1217C25.1921 20.6205 20.9082 21.9944 19.0084 24.937C18.4753 25.7606 18.0923 26.8089 18.021 27.7822C17.9227 29.0921 17.9201 30.4073 17.9175 31.7231V31.7231V31.7231C17.9157 32.6185 17.914 33.5142 17.882 34.4087C17.8595 35.0676 17.6906 35.7676 17.4127 36.3629C17.0161 37.2123 16.5825 38.0454 16.1487 38.8787L16.1487 38.8787C15.7777 39.5915 15.4066 40.3044 15.0586 41.0276C14.7808 41.6041 14.4504 41.8587 13.6995 41.6041V40.6645V8.41963C13.6958 3.47041 17.1349 0.0111906 22.1059 0.00744685C39.9436 -0.00378437 57.7851 -0.00378437 75.6229 0.00744685C80.5563 0.00744685 83.9917 3.46666 83.9917 8.36347V57.9006C83.9917 57.9417 83.9913 57.9831 83.9909 58.0247V58.0249C83.9901 58.1084 83.9892 58.1926 83.9917 58.275C84.0218 58.9938 83.7702 59.5628 83.0831 59.8623C82.3548 60.1806 81.7615 59.9297 81.2284 59.3944C80.2135 58.377 79.1961 57.362 78.1788 56.347C76.3472 54.5197 74.5157 52.6924 72.6981 50.8512C72.2663 50.4131 71.8308 50.2559 71.2263 50.2559C65.7333 50.2705 60.2426 50.2692 54.7506 50.2679H54.7503C53.1814 50.2675 51.6124 50.2671 50.0433 50.2671H48.8805C49.6265 47.8202 49.5622 45.5339 48.4439 43.3525ZM48.8805 50.2671L48.8794 50.2709L48.8719 50.2671H48.8805ZM64.5358 14.6829C64.9676 14.6829 65.4181 14.6642 65.8273 14.5406C66.5069 14.3385 66.9199 13.7807 66.7472 13.1218C66.6158 12.6238 66.1765 12.1671 65.7785 11.7965C65.6463 11.6731 65.375 11.6904 65.1178 11.7069C65.0317 11.7124 64.9471 11.7179 64.8699 11.7179H35.8437C35.7971 11.7179 35.7503 11.7173 35.7035 11.7168C35.5315 11.7149 35.3586 11.713 35.1904 11.7366C34.447 11.8377 34.0115 12.2719 33.9326 13.0132C33.8538 13.7507 34.1617 14.3123 34.875 14.5406C35.2805 14.6717 35.7348 14.6829 36.1666 14.6829C40.8785 14.6904 45.5904 14.6904 50.3061 14.6904C55.0506 14.6904 59.7913 14.6904 64.5358 14.6829ZM43.5067 23.7016C43.0599 23.7016 42.4442 23.7465 42.2151 24.0235C41.8847 24.4204 41.6294 25.083 41.7083 25.5772C41.8322 26.3821 42.5718 26.6554 43.3527 26.6554C50.5652 26.6591 57.7814 26.6629 64.9938 26.6554C66.1878 26.6554 66.8148 26.0639 66.7847 25.0905C66.7547 24.1621 66.1577 23.6941 64.9638 23.6941C62.5928 23.6916 60.2219 23.6924 57.8498 23.6933H57.8449C56.6577 23.6937 55.4701 23.6941 54.2822 23.6941V23.6866C53.4529 23.6866 52.6237 23.686 51.7947 23.6854H51.7944C49.0318 23.6834 46.2703 23.6814 43.5067 23.7016ZM52.5701 35.6516C51.5076 35.6553 50.858 36.1907 50.8205 37.0555C50.7867 37.924 51.4851 38.6054 52.5513 38.6129C56.7376 38.6316 60.9239 38.6353 65.1102 38.6129C66.2253 38.6054 66.826 37.9802 66.7847 37.033C66.7434 36.1345 66.1577 35.6628 65.0351 35.6591C63.6618 35.6541 62.2884 35.6557 60.915 35.6574H60.9127C60.2256 35.6582 59.5385 35.6591 58.8514 35.6591L58.8477 35.6516C58.1509 35.6516 57.4536 35.6508 56.7563 35.6499H56.7558H56.7539C55.3591 35.6483 53.9638 35.6466 52.5701 35.6516ZM14.3072 44.7979L14.3075 44.7978C14.6461 44.7634 14.9806 44.7295 15.3064 44.6553C16.1962 44.4494 16.8871 43.9702 17.3151 43.1241C17.6438 42.4734 17.9952 41.8315 18.3464 41.1897C19.0744 39.8598 19.802 38.5307 20.3262 37.1266C20.7489 35.9866 20.8095 34.6993 20.8692 33.4337C20.8832 33.1365 20.8971 32.8406 20.9157 32.548C20.9908 31.3725 20.9607 30.1745 20.8331 28.999C20.4463 25.4012 25.4624 23.4844 27.7827 25.0755C30.6924 27.0709 32.4496 29.6803 32.6298 33.2593C32.7649 35.9436 32.1379 38.5006 31.2819 41.2634C31.5351 41.2634 31.7762 41.2648 32.0096 41.2661C32.4548 41.2685 32.8719 41.2708 33.2906 41.2634C33.9238 41.2492 34.5574 41.2252 35.191 41.2011H35.1912C36.5561 41.1494 37.9212 41.0976 39.2828 41.1436C40.4129 41.1811 41.5918 41.4094 42.6469 41.81C45.8645 43.0267 47.2424 46.5122 45.8908 49.6644C45.7481 49.9976 45.7331 50.4992 45.8757 50.8287C46.8144 52.9776 46.4427 55.265 44.8508 56.9871C44.6142 57.2417 44.4227 57.6723 44.4453 58.0054C44.5654 59.8249 44.0473 61.3711 42.7295 62.6627C42.553 62.8349 42.4629 63.2018 42.4892 63.4601C42.8196 66.7171 40.3341 69.6971 37.1164 69.7159C31.4807 69.7463 25.847 69.742 20.2123 69.7376H20.212C18.2228 69.7361 16.2334 69.7346 14.2439 69.7346C14.1611 69.7346 14.0765 69.7239 13.9754 69.7112L13.9753 69.7111C13.9297 69.7054 13.8808 69.6992 13.8271 69.6934L13.8346 69.6784V44.8499C13.9927 44.8298 14.1504 44.8138 14.3072 44.7979ZM8.25917 70.9775C9.97499 70.9513 10.8798 70.0004 10.8798 68.2708V57.2492L10.8836 57.2455C10.8836 56.0114 10.8844 54.777 10.8853 53.5424C10.8869 51.0728 10.8886 48.6026 10.8836 46.1341C10.8798 44.3895 9.99376 43.4985 8.23664 43.4835C6.55086 43.4685 4.86508 43.4648 3.1793 43.4835C1.20066 43.506 0.00672214 44.7264 0.00672214 46.7218C0.00296762 53.7264 0.00296762 60.7309 0.00672214 67.7354C0.00672214 69.6972 1.22694 70.9438 3.20182 70.9775C4.88761 71.0037 6.57339 71.0037 8.25917 70.9775Z" fill="white"/>
</svg>
