<svg width="66" height="70" viewBox="0 0 66 70" fill="none" xmlns="http://www.w3.org/2000/svg">
<path fill-rule="evenodd" clip-rule="evenodd" d="M35.0285 5.56223C34.801 6.75917 33.7855 7.54179 32.5669 7.53638C31.3429 7.53096 30.2786 6.75376 30.1459 5.53244C30.0186 4.35986 30.0105 3.14666 30.1513 1.97679C30.3111 0.666107 31.2671 0.0703402 32.7998 0.0757563C33.929 0.0784643 34.8227 0.815048 35.0366 2.00387C35.1092 2.41126 35.1242 2.82887 35.1397 3.25845C35.1468 3.45424 35.1539 3.65252 35.1666 3.85346C35.1541 4.02185 35.1465 4.19461 35.1387 4.36968V4.36978V4.36987C35.1214 4.76343 35.1035 5.16867 35.0285 5.56223ZM15.6553 6.18235C15.9802 7.08954 16.3539 7.98048 16.7656 8.84976C17.2097 9.78674 18.0031 10.2336 18.6828 10.2444L18.6856 10.2471C20.7491 10.2444 21.9785 8.6277 21.4423 6.99747C21.1201 6.01987 20.7057 5.06393 20.24 4.14862C19.6469 2.97875 18.1764 2.53734 16.9849 3.08166C15.815 3.61514 15.2139 4.95561 15.6553 6.18235ZM0.019043 30.338L0.16707 30.1593L0.167532 30.1587C1.11908 29.0102 2.0127 27.9316 2.91122 26.8554C3.26154 26.4349 3.61153 26.0142 3.96148 25.5936L3.9615 25.5935L3.96151 25.5935L3.96153 25.5935L3.96154 25.5935L3.96156 25.5935L3.96206 25.5929L3.964 25.5905C5.34179 23.9343 6.71897 22.2788 8.11335 20.6405C8.29749 20.4239 8.65766 20.2506 8.942 20.2397C9.92491 20.2096 10.9078 20.2137 11.9039 20.2179H11.9046H11.9052H11.9059H11.9065H11.9071H11.9078H11.9084C12.2556 20.2193 12.6044 20.2208 12.9553 20.2208C13.6997 22.7788 14.4394 25.3182 15.1875 27.8862L15.1908 27.8977L15.9016 30.338H0.019043ZM41.2624 57.7432L42.733 52.7008C44.3503 47.1565 45.9676 41.6118 47.5802 36.0654L47.585 36.0492C47.6962 35.6702 47.7773 35.3939 48.3033 35.3965C52.571 35.4136 56.837 35.4122 61.104 35.4108H61.1042H61.1044H61.1047H61.1049H61.1051H61.1053H61.1055H61.1058H61.106C62.2697 35.4105 63.4335 35.4101 64.5975 35.4101C64.6744 35.4101 64.7523 35.416 64.8688 35.4249L64.869 35.4249C64.9452 35.4307 65.0381 35.4378 65.158 35.4453C59.6805 42.0196 54.2368 48.555 48.8062 55.0748L48.7422 55.1516L48.6541 55.2574L48.6251 55.2922C45.2939 59.2915 41.9674 63.285 38.641 67.2782C38.6004 67.2484 38.5625 67.2186 38.5219 67.1861H38.5246C38.8414 66.0936 39.1576 65.0007 39.4738 63.9077L39.4761 63.8998L39.4774 63.8955C40.0708 61.8446 40.6643 59.7933 41.2624 57.7432ZM32.6644 69.1711H32.4992C29.2279 57.9544 25.9566 46.7378 22.6664 35.4534H42.4973V35.4561L32.6644 69.1711ZM0.321767 35.432C0.232964 35.4385 0.132368 35.4459 0.0136719 35.4534C8.81046 46.0122 17.5252 56.473 26.2389 66.9328L26.5334 67.2863V67.289C26.5483 67.2795 26.5639 67.27 26.5794 67.2605L26.5796 67.2605C26.5951 67.251 26.6106 67.2416 26.6255 67.2321L26.6101 67.1588C26.5886 67.056 26.5673 66.9536 26.5388 66.853C25.604 63.6344 24.6684 60.4163 23.7328 57.1984C21.6763 50.1252 19.6199 43.0525 17.5725 35.976C17.4398 35.5211 17.2286 35.3992 16.771 35.3992C12.4967 35.4122 8.22424 35.4113 3.9521 35.4105H3.95203H3.95197H3.9519H3.95184H3.95177H3.95171H3.95164H3.95158C2.88355 35.4103 1.81555 35.41 0.747548 35.41C0.619364 35.41 0.492351 35.4194 0.321878 35.432L0.321767 35.432ZM53.1633 20.223H53.1616H53.1599H53.1582H53.1565H53.1548C52.8402 20.2232 52.5239 20.2235 52.2055 20.2235C51.6778 22.0326 51.1533 23.8345 50.6272 25.6417L50.6239 25.6533C50.1738 27.1994 49.7226 28.7494 49.2673 30.3109H65.1256L64.386 29.4217C61.8591 26.3834 59.3806 23.4032 56.8931 20.432C56.7957 20.3156 56.5898 20.2316 56.4328 20.2316C55.3497 20.2211 54.2667 20.222 53.1633 20.223ZM24.9005 30.3135C27.484 27.3618 30.0079 24.4777 32.5832 21.5341C35.1639 24.4804 37.6797 27.3564 40.2659 30.3135H24.9005ZM26.9613 20.2668H18.2333C18.6979 21.8506 19.1548 23.4113 19.6201 25.0008C19.8844 25.9035 20.1514 26.8155 20.4241 27.7463C21.3923 26.6388 22.3429 25.5509 23.2887 24.4686C24.5121 23.0686 25.7272 21.678 26.9613 20.2668ZM46.933 20.2425L46.3442 22.2567C45.817 24.0598 45.289 25.8659 44.7422 27.741L38.178 20.2425H46.933ZM48.4414 8.76309C48.8259 7.95068 49.1563 7.1139 49.4813 6.27712C49.5586 6.08185 49.5934 5.87029 49.6282 5.65863C49.6445 5.55915 49.6609 5.45965 49.6817 5.3618L49.679 5.36451C49.6275 4.20547 48.8395 3.18184 47.7644 2.91916C46.581 2.63211 45.4003 3.14934 44.8776 4.24339C44.4823 5.07204 44.1329 5.92778 43.8052 6.78894C43.2988 8.11316 43.8838 9.49155 45.1593 10.0521C46.4077 10.6018 47.8294 10.0602 48.4414 8.76309Z" fill="#3A3A3A"/>
</svg>
