<svg width="170" height="170" viewBox="0 0 170 170" fill="none" xmlns="http://www.w3.org/2000/svg">
<g clip-path="url(#clip0_0_3059)">
<circle cx="85" cy="85" r="85" fill="black" fill-opacity="0.065998"/>
<mask id="mask0_0_3059" style="mask-type:luminance" maskUnits="userSpaceOnUse" x="49" y="49" width="72" height="72">
<rect x="49" y="49" width="72" height="72" fill="white"/>
</mask>
<g mask="url(#mask0_0_3059)">
<path fill-rule="evenodd" clip-rule="evenodd" d="M70 121C66.6863 121 64 118.314 64 115C64 111.686 66.6863 109 70 109C73.3137 109 76 111.686 76 115C76 118.314 73.3137 121 70 121Z" fill="#8A8A8A"/>
<path fill-rule="evenodd" clip-rule="evenodd" d="M100 121C96.6863 121 94 118.314 94 115C94 111.686 96.6863 109 100 109C103.314 109 106 111.686 106 115C106 118.314 103.314 121 100 121Z" fill="#8A8A8A"/>
<path d="M117.934 52.1289C117.138 52.1289 116.375 52.4449 115.813 53.0073L100.336 68.4993L95.6827 63.6423C95.4096 63.3582 95.0834 63.1307 94.7224 62.9728C94.3615 62.8148 93.973 62.7295 93.5791 62.7217C93.1852 62.7139 92.7936 62.7838 92.4267 62.9273C92.0598 63.0709 91.7247 63.2852 91.4407 63.5583C91.1566 63.8313 90.9291 64.1576 90.7712 64.5185C90.6132 64.8795 90.5279 65.268 90.5201 65.6619C90.5044 66.4574 90.8053 67.2266 91.3567 67.8003L96.1987 72.8373C96.7146 73.3945 97.3382 73.8414 98.0317 74.1507C98.7253 74.4601 99.4743 74.6256 100.234 74.6373H100.333C101.077 74.6397 101.814 74.4943 102.502 74.2095C103.189 73.9248 103.813 73.5062 104.338 72.9783L120.055 57.2493C120.617 56.6867 120.933 55.9238 120.933 55.1283C120.933 54.3328 120.617 53.5698 120.055 53.0073C119.492 52.4449 118.729 52.1289 117.934 52.1289Z" fill="#8A8A8A"/>
<path d="M113.529 76.0687C113.144 76.1525 112.779 76.3113 112.455 76.5361C112.132 76.761 111.855 77.0474 111.642 77.3791C111.429 77.7107 111.284 78.0811 111.214 78.469L110.83 80.596C110.456 82.673 109.364 84.5524 107.744 85.9057C106.125 87.2591 104.081 88.0004 101.971 88H65.254L62.434 64H82C82.7956 64 83.5587 63.6839 84.1213 63.1213C84.6839 62.5587 85 61.7956 85 61C85 60.2044 84.6839 59.4413 84.1213 58.8787C83.5587 58.3161 82.7956 58 82 58H61.726L61.6 56.944C61.3415 54.7558 60.2892 52.7385 58.6426 51.2743C56.9959 49.8102 54.8694 49.0009 52.666 49H52C51.2044 49 50.4413 49.3161 49.8787 49.8787C49.3161 50.4413 49 51.2044 49 52C49 52.7956 49.3161 53.5587 49.8787 54.1213C50.4413 54.6839 51.2044 55 52 55H52.666C53.4008 55.0001 54.11 55.2699 54.6591 55.7581C55.2082 56.2464 55.559 56.9192 55.645 57.649L59.773 92.749C60.2016 96.3994 61.9554 99.7653 64.7017 102.208C67.448 104.651 70.9956 106 74.671 106H106C106.796 106 107.559 105.684 108.121 105.121C108.684 104.559 109 103.796 109 103C109 102.204 108.684 101.441 108.121 100.879C107.559 100.316 106.796 100 106 100H74.671C72.8096 100 70.9938 99.4235 69.4738 98.349C67.9539 97.2744 66.8045 95.755 66.184 94H101.971C105.488 94.0002 108.893 92.7647 111.591 90.5093C114.29 88.2539 116.11 85.1221 116.734 81.661L117.118 79.531C117.259 78.7485 117.083 77.9422 116.63 77.2891C116.176 76.6361 115.482 76.1897 114.7 76.048C114.312 75.9779 113.914 75.985 113.529 76.0687Z" fill="#8A8A8A"/>
</g>
</g>
<defs>
<clipPath id="clip0_0_3059">
<rect width="170" height="170" fill="white"/>
</clipPath>
</defs>
</svg>
