<svg width="28" height="23" viewBox="0 0 28 23" fill="none" xmlns="http://www.w3.org/2000/svg">
<path fill-rule="evenodd" clip-rule="evenodd" d="M2.09053 9.38869C0.458183 10.0446 0.467864 10.9565 1.793 11.363L7.75788 13.2276L10.0402 20.2356C10.3177 21.0027 10.1809 21.3069 10.9851 21.3069C11.6058 21.3069 11.8811 21.0235 12.2268 20.6853C12.4466 20.4699 13.7517 19.199 15.209 17.78L21.4136 22.3712C22.5553 23.002 23.3797 22.6752 23.664 21.3092L27.7369 2.08723C28.1539 0.412903 27.0995 -0.346561 26.0072 0.149963L2.09053 9.38869ZM22.139 4.30404C22.8102 3.89637 23.4256 4.11555 22.9203 4.56475L11.408 14.9676L10.9597 19.7558L8.69409 12.7994L22.139 4.30404Z" fill="#2CA9EE"/>
</svg>
