<svg width="80" height="30" viewBox="0 0 80 30" fill="none" xmlns="http://www.w3.org/2000/svg">
<path d="M73.5635 19.7842L77.0801 29.5938H73.8721L73.4814 28.2979H70.2725L69.9023 29.5938H66.7559L70.2725 19.7842H73.5635ZM12.2979 22.0664H9.39844V29.5732H6.19043V22.0664H3.31152V19.7842H12.2979V22.0664ZM21.5938 22.0664H16.8223V23.4648H20.8535V25.748H16.8223V27.29H21.7793V29.5732H13.5938V19.7842H21.5938V22.0664ZM27.7637 22.293L29.1826 19.7842H32.7812L29.4707 24.4932L32.8018 29.5732H29.2031L27.6201 26.8379L26.0361 29.5732H22.4375L25.9131 24.4932L22.7666 19.7842H26.3857L27.7637 22.293ZM36.998 23.1973H40.041V19.7842H43.249V29.5732H40.041V25.4805H36.998V29.5732H33.7891V19.7842H36.998V23.1973ZM48.165 22.8896L48 25.3984L51.5371 19.7842H54.54V29.5732H51.4756V26.4678L51.6406 23.959L48.082 29.5732H45.0801V19.7842H48.165V22.8896ZM59.5791 22.9512L62.3965 19.7842H66.1797L62.5811 23.4648L66.5508 29.5732H62.7051L60.3398 25.666L59.5791 26.4678V29.5732H56.3701V19.7842H59.5791V22.9512ZM70.8896 26.2412H72.9053L71.877 22.7246L70.8896 26.2412ZM80 17.666H0V17.1924H80V17.666ZM44.751 0C45.6764 0.966536 46.293 1.87163 46.6426 2.73535C46.0667 4.27767 45.121 5.55305 43.7432 6.49902C45.4911 7.54779 46.9105 8.86345 47.8564 10.6113C47.3629 12.3183 46.4991 13.9642 45.4297 15.5889H33.2344L33.2139 3.29004C34.0777 2.11797 35.641 0.987014 37.6973 0H44.751ZM74.9824 0C76.6687 1.56295 77.9231 3.26996 78.5195 5.22363C77.9643 7.30074 76.6681 9.25475 74.5293 11.0439L70.4375 9.9541V15.5889H63.918V3.26953C65.1929 1.95346 66.5914 0.822572 68.1543 0H74.9824ZM30.7041 2.91992L25.707 1.91211V5.86133L28.3604 4.60645C27.5994 6.58073 27.6195 8.45276 28.5449 10.3242L25.7275 9.2959L25.748 13.4297L31.5273 12.2568L30.4785 15.5684H19.332L19.2705 0H29.8613L30.7041 2.91992ZM61.5527 2.91992L56.5557 1.91211V5.86133L59.208 4.60645C58.4471 6.58073 58.4681 8.45276 59.3936 10.3242L56.5762 9.2959L56.5967 13.4297L62.376 12.2568L61.3271 15.5684H50.1797L50.1182 0H60.71L61.5527 2.91992ZM13.7793 0.0820312C14.9515 1.29536 15.8359 2.44734 16.2061 3.47559L11.8047 5.65527C11.0644 3.66067 10.0979 2.40624 9.2959 1.33691C8.65844 2.03606 8.14428 2.75567 7.89746 3.55762C8.06198 7.32095 9.72729 10.6938 11.9482 13.6963C12.7092 12.4212 13.4297 10.8169 13.7793 9.2334H17.3574C16.4937 11.6189 15.1361 13.7167 13.5732 15.5059H5.22363C3.55794 11.9893 2.61213 8.20542 2.32422 4.19531C3.47583 2.57077 4.91493 1.19251 6.74512 0.0820312H13.7793ZM39.5479 13.8613C40.4322 13.4911 41.5222 11.804 41.9541 9.58301C41.7687 9.2535 40.9664 7.8563 39.5479 7.56836V13.8613ZM72.4736 1.58398C71.3631 1.89247 70.8694 2.61218 70.417 3.35254V8.45215C71.8153 7.09482 73.3164 4.42163 72.4736 1.58398ZM41.8096 1.37793C41.0489 1.50136 40.3086 1.87132 39.5479 2.59082V6.23145C40.7817 5.26488 41.645 3.68119 41.8096 1.37793Z" fill="white"/>
</svg>
