<svg width="120" height="68" viewBox="0 0 120 68" fill="none" xmlns="http://www.w3.org/2000/svg">
	<path fill-rule="evenodd" clip-rule="evenodd" d="M53.6532 66.9106C52.011 66.8209 50.3721 66.6566 48.7339 66.5015C46.149 66.2568 43.5831 65.8676 41.0321 65.385C34.0575 64.0656 27.3106 62.0251 20.9106 58.9075C17.3115 57.154 13.9071 55.0827 10.7995 52.5405C8.17428 50.3931 5.83563 47.9774 3.96618 45.1269C2.44367 42.8053 1.32156 40.3098 0.741474 37.5821C0.357189 35.7743 0.244099 33.9495 0.388663 32.1057C0.692066 28.2331 2.09416 24.7693 4.25823 21.5902C6.16831 18.7842 8.53258 16.4093 11.1743 14.3023C13.6267 12.3463 16.264 10.6771 19.0324 9.21286C23.5036 6.84824 28.2025 5.0654 33.0599 3.69014C36.0866 2.83308 39.1495 2.13259 42.2534 1.62284C43.8396 1.36226 45.4287 1.10831 47.0241 0.91536C48.6688 0.716165 50.3216 0.577242 51.9733 0.443097C55.2459 0.177013 58.5263 0.0965256 61.8077 0.17591C63.6354 0.220012 65.4628 0.321815 67.2876 0.440157C68.7464 0.53461 70.2049 0.663977 71.6571 0.831933C73.1694 1.00687 74.6761 1.234 76.1814 1.46223C78.6635 1.8382 81.1204 2.34685 83.5579 2.94738C89.3053 4.36417 94.8614 6.30835 100.127 9.04491C103.825 10.9667 107.289 13.2361 110.381 16.0524C112.598 18.0716 114.545 20.3197 116.091 22.9026C117.416 25.114 118.367 27.4731 118.85 30.0123C119.177 31.7294 119.26 33.4604 119.115 35.2032C118.791 39.0893 117.341 42.5466 115.144 45.7175C113.36 48.2913 111.191 50.5008 108.779 52.4777C105.76 54.9522 102.458 56.9802 98.9692 58.709C94.2857 61.0303 89.3866 62.7591 84.3334 64.0623C81.4769 64.7988 78.5911 65.3894 75.6771 65.8451C73.7623 66.1447 71.8412 66.3883 69.9128 66.5798C66.4996 66.9183 63.0791 67.0833 59.6484 67.1208L59.6491 67.1212C57.6505 67.0543 55.6496 67.0197 53.6532 66.9106ZM42.5795 49.5655C42.7523 49.4817 42.8526 49.4394 42.9466 49.3861C46.2236 47.5243 49.5011 45.6628 52.7744 43.7943C52.927 43.7072 53.065 43.5712 53.1704 43.429C53.4244 43.0854 53.655 42.7241 53.8954 42.3702C55.3177 40.2771 56.7406 38.1848 58.1617 36.0911C58.2316 35.9878 58.2902 35.8768 58.3539 35.7691C58.3334 35.7544 58.3125 35.7397 58.292 35.725C58.2086 35.7904 58.1222 35.8518 58.0424 35.9217C53.7264 39.7067 49.4114 43.4933 45.0942 47.2773C44.3985 47.887 43.6925 48.4853 42.9913 49.0888C43.0886 48.9649 43.1849 48.8407 43.283 48.718C45.2091 46.3004 47.1463 43.8913 49.0571 41.4609C49.8023 40.5131 50.692 39.7553 51.7208 39.1459C52.6339 38.6053 53.5412 38.0551 54.4503 37.5079C54.5476 37.4491 54.6406 37.3822 54.7354 37.319C54.724 37.298 54.7127 37.2771 54.7013 37.2561C54.5952 37.3017 54.4861 37.3417 54.3833 37.3939C52.9819 38.1066 51.5828 38.824 50.1789 39.5325C49.9435 39.6512 49.7591 39.8082 49.6021 40.0202C47.9504 42.2489 46.2928 44.4727 44.6371 46.6984C44.1265 47.3846 43.6142 48.0697 43.1098 48.7606C43.0421 48.8532 42.8928 48.9337 42.9913 49.0928V49.0932C42.749 49.1278 42.7127 49.3321 42.5795 49.5655ZM14.3525 33.8624C14.5556 33.8966 14.758 33.937 14.9622 33.9642C15.7831 34.0738 16.6051 34.177 17.426 34.2862C18.6334 34.4468 19.8405 34.6114 21.0478 34.7732C22.2311 34.9316 23.4147 35.0877 24.5979 35.2462C25.7932 35.406 26.9878 35.5696 28.1831 35.7283C29.3784 35.8871 30.5748 36.04 31.7701 36.1995C32.9534 36.3575 34.1355 36.5237 35.3187 36.6817C36.514 36.8412 37.7105 36.9933 38.9058 37.1521C40.1256 37.3138 41.3443 37.4803 42.5638 37.6439C43.7591 37.8045 44.9544 37.964 46.1497 38.1242C47.1397 38.2569 48.1297 38.3877 49.1193 38.5237C49.3704 38.5582 49.5915 38.5053 49.8209 38.3932C51.1249 37.7567 52.4359 37.1345 53.7443 36.5067C55.4593 35.6839 57.1747 34.861 58.889 34.0363C58.9889 33.9881 59.0804 33.9231 59.1755 33.8657C59.166 33.8411 59.1561 33.8161 59.1466 33.7915H14.9637C15.6265 33.6779 16.2904 33.6033 16.9539 33.5273C18.128 33.3927 19.3021 33.2571 20.4762 33.1223C21.4446 33.0113 22.413 32.9006 23.3814 32.7896C24.3135 32.6827 25.2457 32.5754 26.1779 32.4673C27.1338 32.3563 28.0894 32.2428 29.0457 32.1325C30.0138 32.0204 30.9825 31.9116 31.9506 31.7999C32.8948 31.6911 33.8383 31.579 34.7826 31.471C35.9446 31.3379 37.1073 31.2097 38.2689 31.0752C39.4309 30.9407 40.5919 30.7981 41.7539 30.6643C42.9159 30.5305 44.0801 30.4166 45.2402 30.2703C46.4403 30.1189 47.6433 30.0299 48.8514 30.0792C49.9768 30.1248 51.0781 30.3059 52.1266 30.754C52.956 31.1082 53.7977 31.4331 54.6347 31.7694C54.7475 31.8146 54.8638 31.8499 54.9788 31.89C54.9883 31.8646 54.9978 31.8392 55.0069 31.8139C54.8587 31.7345 54.712 31.6522 54.5619 31.5761C52.9746 30.7694 51.3797 29.9777 49.8045 29.1479C49.4118 28.941 49.0443 28.8881 48.6201 28.9535C47.4885 29.128 46.3536 29.2831 45.2194 29.4404C43.7232 29.6481 42.226 29.8473 40.7298 30.0553C39.4145 30.2383 38.1006 30.4309 36.7856 30.6143C35.2894 30.8227 33.7922 31.023 32.2961 31.2314C30.9811 31.4144 29.6668 31.607 28.3518 31.7896C26.8436 31.9995 25.3343 32.2001 23.826 32.4104C22.342 32.6173 20.859 32.8326 19.3753 33.0407C17.8674 33.252 16.3588 33.4578 14.851 33.6699C14.6771 33.6945 14.5066 33.7434 14.3346 33.7808H14.3349C14.3408 33.808 14.3466 33.8352 14.3525 33.8624ZM62.8266 34.0995C65.7069 35.5104 68.5916 36.9129 71.4646 38.3388C71.8185 38.5145 72.1435 38.5446 72.5168 38.4892C73.5171 38.3414 74.5209 38.2176 75.5234 38.0841C76.5375 37.9493 77.552 37.8155 78.5662 37.6799C79.7494 37.5218 80.9327 37.3612 82.1159 37.2036C83.2995 37.0459 84.4835 36.8923 85.6671 36.7346C86.8744 36.5736 88.0815 36.4083 89.2892 36.2469C90.4728 36.0889 91.6568 35.936 92.84 35.7776C94.0232 35.6188 95.2057 35.4534 96.389 35.2958C97.947 35.0885 99.5057 34.8874 101.064 34.6813C102.682 34.467 104.3 34.2505 105.918 34.0326C106.277 33.9845 106.634 33.926 106.993 33.8727C106.578 33.7478 106.164 33.6783 105.749 33.6177C104.604 33.4501 103.459 33.2836 102.313 33.1208C101.023 32.9374 99.7315 32.7591 98.4411 32.5761C97.3193 32.417 96.1987 32.2531 95.0769 32.0932C93.7744 31.908 92.4715 31.7253 91.1689 31.5412C89.866 31.3571 88.5631 31.1718 87.2602 30.9877C86.1384 30.8293 85.0163 30.6727 83.8946 30.5132C82.6041 30.3298 81.314 30.1431 80.0236 29.9601C78.9018 29.801 77.7797 29.6444 76.6579 29.4867C75.3067 29.2967 73.9551 29.1097 72.605 28.9134C72.4257 28.8873 72.2734 28.9156 72.1146 28.9965C70.3099 29.9145 68.5027 30.8282 66.6976 31.7448C66.6226 31.783 66.5571 31.8403 66.4872 31.8885C66.6189 31.8988 66.7236 31.8719 66.8235 31.8326C68.0712 31.3424 69.3214 30.8572 70.5646 30.3548C71.1147 30.1325 71.6765 30.0083 72.2698 29.9936C73.2609 29.9686 74.2413 30.0847 75.2233 30.1872C75.9746 30.2659 76.7249 30.3548 77.4752 30.4416C78.407 30.5492 79.3388 30.6602 80.2706 30.769C81.2145 30.8793 82.1587 30.9903 83.1026 31.0991C84.0348 31.2064 84.9673 31.3096 85.8991 31.4184C86.855 31.5298 87.8106 31.647 88.7666 31.7591C89.7467 31.8742 90.7275 31.9851 91.7076 32.0987C92.8455 32.2303 93.983 32.3637 95.1208 32.4949C96.2587 32.6257 97.3969 32.7525 98.5344 32.8848C99.7085 33.0216 100.881 33.1653 102.056 33.3016C103.373 33.4545 104.691 33.6022 106.025 33.754C105.997 33.768 105.987 33.7768 105.977 33.7768C91.5583 33.7786 77.1403 33.7797 62.7219 33.7808C62.6853 33.7808 62.6487 33.7816 62.6121 33.782C62.6001 33.782 62.5876 33.782 62.5755 33.7834C62.5514 33.7864 62.5272 33.7897 62.5038 33.7948C62.4921 33.7974 62.4793 33.8022 62.4709 33.8102C62.4632 33.8176 62.4606 33.8301 62.4343 33.8856L62.4335 33.886C62.5616 33.9558 62.6912 34.0333 62.8266 34.0995ZM60.7511 62.5676C60.7928 62.4445 60.836 62.3221 60.8759 62.1982C62.0273 58.6142 63.1776 55.0298 64.3293 51.4457C65.1107 49.0138 65.8914 46.5819 66.6815 44.1526C66.7577 43.9189 66.7394 43.7421 66.5915 43.5426C66.2061 43.0221 65.8412 42.4863 65.4683 41.9563C63.9553 39.8067 62.4427 37.6571 60.9286 35.5086C60.8719 35.4281 60.7994 35.3586 60.7343 35.284C60.7035 35.2954 60.6731 35.3068 60.6424 35.3182C60.6424 38.2771 60.6424 41.236 60.6424 44.1945V53.0859C60.6424 56.0467 60.6424 59.0074 60.6424 61.9682C60.5549 61.905 60.5242 61.8315 60.5033 61.7546C60.3401 61.153 60.1794 60.551 60.0169 59.9494C58.7513 55.2653 57.4858 50.5817 56.2202 45.8976C56.013 45.131 55.9962 44.3482 56.0577 43.565C56.0782 43.3029 56.1627 43.0339 56.2718 42.7928C56.8705 41.4672 57.4861 40.1492 58.0944 38.828C58.1262 38.7589 58.1434 38.6828 58.1676 38.6101C58.0315 38.7008 57.9451 38.8151 57.8657 38.9346C56.8482 40.4605 55.8359 41.9901 54.8097 43.5102C54.6578 43.7355 54.6329 43.9215 54.7174 44.1839C56.595 49.9988 58.4611 55.8174 60.3309 61.6348C60.4312 61.9472 60.5443 62.2552 60.6512 62.5654H60.6515C60.6849 62.5661 60.7178 62.5669 60.7511 62.5676ZM60.642 5.86108C60.642 6.5884 60.642 7.31536 60.642 8.04268C60.642 8.77735 60.642 9.51239 60.642 10.2471C60.642 10.9817 60.642 11.7168 60.642 12.4514V25.7153C60.642 26.4624 60.642 27.2096 60.642 27.9564C60.642 28.6911 60.6343 29.4261 60.6442 30.1608C60.6537 30.8877 60.6014 31.6173 60.7138 32.3541C60.8283 32.2623 60.9088 32.1612 60.9831 32.0557C62.8423 29.4169 64.6975 26.7759 66.5644 24.1426C66.7331 23.9048 66.7507 23.7034 66.6629 23.4333C65.8464 20.9228 65.0426 18.4082 64.2345 15.8947C63.1124 12.4044 61.99 8.91407 60.8667 5.4241C60.8327 5.31788 60.7873 5.21571 60.7471 5.11134C60.6387 5.27341 60.5956 5.423 60.5472 5.57074C59.3808 9.14928 58.2126 12.7275 57.047 16.3064C56.2711 18.6886 55.5003 21.0727 54.724 23.455C54.6585 23.6557 54.6033 23.8262 54.7548 24.0327C55.8015 25.4635 56.8343 26.9045 57.8741 28.3404C57.9147 28.3967 57.9806 28.4349 58.0347 28.4816C58.0245 28.3324 57.9762 28.2228 57.9198 28.1177C57.5205 27.3746 57.1355 26.6234 56.7132 25.8935C56.4445 25.4293 56.2795 24.9416 56.2037 24.4168C56.181 24.2595 56.155 24.1026 56.136 23.9445C56.0511 23.2485 56.0474 22.5649 56.2363 21.8725C57.5754 16.955 58.8966 12.0328 60.2248 7.11248C60.3383 6.69167 60.4587 6.27233 60.5758 5.85226V5.85373L60.642 5.86108ZM42.5876 17.9665C42.6769 18.0951 42.764 18.2252 42.8562 18.352C44.9866 21.2774 47.1265 24.1959 49.2405 27.1335C49.6306 27.6756 50.0782 28.07 50.689 28.354C53.1214 29.4849 55.5332 30.6599 57.9531 31.8172C58.0677 31.8719 58.1874 31.9164 58.3048 31.9653C58.3213 31.9381 58.3374 31.9109 58.3539 31.8833C53.3289 27.4084 48.3043 22.9335 43.2793 18.4586C43.4114 18.4655 43.504 18.5199 43.5955 18.5769C46.1772 20.1797 48.7588 21.7824 51.3405 23.3852C52.1973 23.917 52.9691 24.5454 53.5961 25.3463C54.3573 26.3184 55.1292 27.2824 55.8978 28.2486C55.9592 28.3261 56.0324 28.3945 56.1001 28.4669C56.1203 28.3765 56.0987 28.3217 56.0668 28.2743C55.0856 26.8274 54.1055 25.3797 53.117 23.9376C53.0379 23.8225 52.9146 23.7251 52.7916 23.6553C49.59 21.8317 46.3861 20.0124 43.1819 18.1936C43.0044 18.0929 42.8236 17.9984 42.6443 17.9014L42.6447 17.9007C42.6256 17.9227 42.6066 17.9444 42.5876 17.9665ZM63.2965 31.9668C63.4158 31.9142 63.537 31.8657 63.6541 31.8084C66.1944 30.5643 68.7336 29.3181 71.2747 28.0758C71.4668 27.9821 71.6147 27.855 71.7409 27.6807C73.0614 25.8597 74.3874 24.0427 75.7122 22.2249C76.6627 20.921 77.6146 19.6177 78.5625 18.3123C78.6412 18.2039 78.7572 18.1057 78.762 17.8999C78.5139 18.0444 78.2851 18.1204 78.1764 18.3748C78.1362 18.4689 78.0326 18.5383 77.9517 18.6115C76.6642 19.7739 75.3752 20.9349 74.0869 22.0966C70.7396 25.1155 67.3919 28.1346 64.045 31.1542C63.7752 31.3978 63.5095 31.6459 63.242 31.8922L63.2424 31.8918C63.2603 31.9168 63.2786 31.9418 63.2965 31.9668ZM62.8339 35.7945C62.9126 35.9128 62.9884 36.0334 63.07 36.1495C64.7682 38.5571 66.4678 40.9633 68.163 43.3724C68.2999 43.5672 68.461 43.7164 68.6696 43.8336C70.0515 44.6113 71.4287 45.3974 72.807 46.1813C74.6732 47.2427 76.539 48.3045 78.4059 49.3648C78.5146 49.4265 78.631 49.4747 78.7437 49.5287C78.7591 49.5067 78.7744 49.4846 78.7898 49.4626C78.6782 49.3222 78.5892 49.1079 78.4476 49.0634C78.3151 49.0219 78.2126 48.9664 78.1175 48.8841C73.1489 44.5841 68.1813 40.283 63.2134 35.9823C63.1135 35.8959 63.0085 35.8151 62.906 35.7316L62.9064 35.7313C62.8822 35.7522 62.8581 35.7735 62.8339 35.7945ZM78.3411 48.8664C78.2957 48.7955 78.2544 48.7216 78.2046 48.6544C76.0537 45.7609 73.901 42.8685 71.7523 39.9732C71.6172 39.7913 71.4565 39.6579 71.2553 39.5561C69.7873 38.8122 68.3222 38.0621 66.8557 37.3157C66.7631 37.2686 66.6632 37.2348 66.567 37.1951C66.6083 37.298 66.6727 37.362 66.7478 37.409C67.7092 38.011 68.66 38.6317 69.6383 39.2054C70.6214 39.7817 71.4518 40.5149 72.1655 41.4017C74.1191 43.8292 76.0863 46.246 78.0491 48.6665C78.1223 48.7566 78.2042 48.8393 78.2826 48.9253V48.9249C78.302 48.9054 78.3217 48.8859 78.3411 48.8664ZM65.3164 28.468C65.3973 28.3831 65.4818 28.3015 65.5583 28.2126C66.4268 27.2033 67.2986 26.1967 68.159 25.1809C68.6136 24.6443 69.1377 24.1959 69.7265 23.8163C72.3609 22.1176 74.9923 20.4141 77.6245 18.7118C77.761 18.6236 77.8917 18.5266 78.0253 18.4336C78.0125 18.4126 77.9993 18.3913 77.9865 18.3704C77.8939 18.4152 77.7973 18.4534 77.7094 18.506C74.7501 20.2815 71.7907 22.0566 68.8361 23.8394C68.6644 23.9431 68.5078 24.0934 68.3848 24.2536C67.6851 25.164 66.997 26.0839 66.306 27.0012C65.954 27.4683 65.6041 27.9369 65.2531 28.4048C65.2743 28.4257 65.2952 28.447 65.3164 28.468Z" fill="white" />
</svg>
