<svg width="19" height="8" viewBox="0 0 19 8" fill="none" xmlns="http://www.w3.org/2000/svg">
<path d="M3.77734 1L9.40039 5.76465L15.0234 1H16.8008L9.40039 7.27051L2 1H3.77734Z" fill="white"/>
<path d="M3.77734 1L4.10058 0.618531L3.96069 0.5H3.77734V1ZM9.40039 5.76465L9.07716 6.14612L9.40039 6.42001L9.72363 6.14612L9.40039 5.76465ZM15.0234 1V0.5H14.8401L14.7002 0.618531L15.0234 1ZM16.8008 1L17.124 1.38147L18.1643 0.5L16.8008 0.5V1ZM9.40039 7.27051L9.07716 7.65198L9.40039 7.92586L9.72362 7.65198L9.40039 7.27051ZM2 1V0.5H0.636463L1.67677 1.38147L2 1ZM3.77734 1L3.45411 1.38147L9.07716 6.14612L9.40039 5.76465L9.72363 5.38318L4.10058 0.618531L3.77734 1ZM9.40039 5.76465L9.72363 6.14612L15.3467 1.38147L15.0234 1L14.7002 0.618531L9.07716 5.38318L9.40039 5.76465ZM15.0234 1V1.5H16.8008V1V0.5H15.0234V1ZM16.8008 1L16.4776 0.618527L9.07716 6.88903L9.40039 7.27051L9.72362 7.65198L17.124 1.38147L16.8008 1ZM9.40039 7.27051L9.72362 6.88903L2.32323 0.618527L2 1L1.67677 1.38147L9.07716 7.65198L9.40039 7.27051ZM2 1V1.5H3.77734V1V0.5H2V1Z" fill="white"/>
</svg>
