<svg width="170" height="170" viewBox="0 0 170 170" fill="none" xmlns="http://www.w3.org/2000/svg">
<g clip-path="url(#clip0_2071_9)">
<circle cx="85" cy="85" r="85" fill="black" fill-opacity="0.065998"/>
</g>
<path d="M66.9551 90.7949V96.4199H36.1934L35.959 92.1719L54.3574 63.3438H60.0117L53.8887 73.832L43.3125 90.7949H66.9551ZM61.623 63.3438V106H54.5625V63.3438H61.623ZM99.4746 81.0977V88.0703C99.4746 91.4102 99.1426 94.2617 98.4785 96.625C97.834 98.9688 96.8965 100.873 95.666 102.338C94.4355 103.803 92.9609 104.877 91.2422 105.561C89.543 106.244 87.6387 106.586 85.5293 106.586C83.8496 106.586 82.2871 106.371 80.8418 105.941C79.416 105.512 78.127 104.838 76.9746 103.92C75.8223 103.002 74.8359 101.82 74.0156 100.375C73.2148 98.9102 72.5898 97.1621 72.1406 95.1309C71.7109 93.0996 71.4961 90.7461 71.4961 88.0703V81.0977C71.4961 77.7383 71.8281 74.9062 72.4922 72.6016C73.1562 70.2773 74.1035 68.3926 75.334 66.9473C76.5645 65.4824 78.0293 64.418 79.7285 63.7539C81.4473 63.0898 83.3613 62.7578 85.4707 62.7578C87.1699 62.7578 88.7324 62.9727 90.1582 63.4023C91.6035 63.8125 92.8926 64.4668 94.0254 65.3652C95.1777 66.2637 96.1543 67.4355 96.9551 68.8809C97.7754 70.3066 98.4004 72.0352 98.8301 74.0664C99.2598 76.0781 99.4746 78.4219 99.4746 81.0977ZM92.4141 89.0664V80.043C92.4141 78.3438 92.3164 76.8496 92.1211 75.5605C91.9258 74.252 91.6328 73.1484 91.2422 72.25C90.8711 71.332 90.4023 70.5898 89.8359 70.0234C89.2695 69.4375 88.625 69.0176 87.9023 68.7637C87.1797 68.4902 86.3691 68.3535 85.4707 68.3535C84.377 68.3535 83.4004 68.5684 82.541 68.998C81.6816 69.4082 80.959 70.0723 80.373 70.9902C79.7871 71.9082 79.3379 73.1191 79.0254 74.623C78.7324 76.1074 78.5859 77.9141 78.5859 80.043V89.0664C78.5859 90.7852 78.6836 92.2988 78.8789 93.6074C79.0742 94.916 79.3672 96.0391 79.7578 96.9766C80.1484 97.8945 80.6172 98.6562 81.1641 99.2617C81.7305 99.8477 82.375 100.277 83.0977 100.551C83.8398 100.824 84.6504 100.961 85.5293 100.961C86.6426 100.961 87.6289 100.746 88.4883 100.316C89.3477 99.8867 90.0703 99.2031 90.6562 98.2656C91.2422 97.3086 91.6816 96.0684 91.9746 94.5449C92.2676 93.0215 92.4141 91.1953 92.4141 89.0664ZM135.158 90.7949V96.4199H104.396L104.162 92.1719L122.561 63.3438H128.215L122.092 73.832L111.516 90.7949H135.158ZM129.826 63.3438V106H122.766V63.3438H129.826Z" fill="black"/>
<defs>
<clipPath id="clip0_2071_9">
<rect width="170" height="170" fill="white"/>
</clipPath>
</defs>
</svg>
