<svg width="27" height="23" viewBox="0 0 27 23" fill="none" xmlns="http://www.w3.org/2000/svg">
<path fill-rule="evenodd" clip-rule="evenodd" d="M1.25783 9.459C-0.371122 10.1149 -0.361461 11.0268 0.96092 11.4334L6.9134 13.298L9.19096 20.306C9.46785 21.073 9.33135 21.3772 10.1339 21.3772C10.7533 21.3772 11.028 21.0938 11.373 20.7556C11.5923 20.5402 12.8948 19.2693 14.349 17.8503L20.5407 22.4415C21.6801 23.0723 22.5028 22.7455 22.7865 21.3795L26.8509 2.15754C27.267 0.483216 26.2148 -0.276249 25.1248 0.220276L1.25783 9.459ZM21.2646 4.37435C21.9344 3.96669 22.5485 4.18586 22.0443 4.63506L10.5559 15.0379L10.1086 19.8261L7.84766 12.8697L21.2646 4.37435Z" fill="#2CA9EE"/>
</svg>
