<svg width="21" height="17" viewBox="0 0 21 17" fill="none" xmlns="http://www.w3.org/2000/svg">
<path id="Shape" fill-rule="evenodd" clip-rule="evenodd" d="M18.238 0.796875L16.2159 2.81898L14.1938 0.796875L12.1717 2.81898L10.1496 0.796875L8.12746 2.81898L6.10536 0.796875L4.08326 2.81898L2.06116 0.796875L0.0390625 2.81898L2.06116 4.84108L0.0390625 6.86318L2.06116 8.88528L0.0390625 10.9074L2.06116 12.9295L0.0390625 14.9516L2.06116 16.9737L4.08326 14.9516L6.10536 16.9737L8.12746 14.9516L10.1496 16.9737L12.1717 14.9516L14.1938 16.9737L16.2159 14.9516L18.238 16.9737L20.2601 14.9516L18.238 12.9295L20.2601 10.9074L18.238 8.88528L20.2601 6.86318L18.238 4.84108L20.2601 2.81898L18.238 0.796875ZM4.08398 6.86316V4.84106L10.1503 8.88526L16.2166 4.84106V6.86316L10.1503 11.9184L4.08398 6.86316Z" fill="#CCCCCC"/>
</svg>
