<svg width="14" height="21" viewBox="0 0 14 21" fill="none" xmlns="http://www.w3.org/2000/svg">
<path id="Combined Shape" fill-rule="evenodd" clip-rule="evenodd" d="M11.2276 0.679688C12.3322 0.679688 13.2276 1.57512 13.2276 2.67969V18.9007C13.2276 20.0053 12.3322 20.9007 11.2276 20.9007H2.08398C0.979415 20.9007 0.0839844 20.0053 0.0839844 18.9007V2.67969C0.0839844 1.57512 0.979415 0.679688 2.08398 0.679688H11.2276ZM9.19454 16.8564C9.74682 16.8564 10.1945 17.3042 10.1945 17.8564V17.8785C10.1945 18.4308 9.74682 18.8785 9.19454 18.8785H4.11719C3.5649 18.8785 3.11719 18.4308 3.11719 17.8785V17.8564C3.11719 17.3042 3.5649 16.8564 4.11719 16.8564H9.19454ZM6.63867 2.70178C5.81025 2.70178 5.13867 3.37336 5.13867 4.20178V4.23493C5.13867 5.06336 5.81025 5.73493 6.63867 5.73493H6.67182C7.50025 5.73493 8.17182 5.06336 8.17182 4.23493V4.20178C8.17182 3.37336 7.50025 2.70178 6.67182 2.70178H6.63867Z" fill="#CCCCCC"/>
</svg>
