<svg width="48" height="47" viewBox="0 0 48 47" fill="none" xmlns="http://www.w3.org/2000/svg">
<mask id="mask0_0_5603" style="mask-type:luminance" maskUnits="userSpaceOnUse" x="0" y="0" width="48" height="47">
<rect x="0.802734" y="0.179688" width="46.3948" height="46.3948" fill="white"/>
</mask>
<g mask="url(#mask0_0_5603)">
<path fill-rule="evenodd" clip-rule="evenodd" d="M9.50177 0.179688C12.1714 0.179688 14.3346 2.34285 14.3346 5.01248C14.3346 7.68212 12.1714 9.84528 9.50177 9.84528C6.83213 9.84528 4.66897 7.68212 4.66897 5.01248C4.66897 2.34285 6.83213 0.179688 9.50177 0.179688ZM12.4014 21.444V29.1765H8.53521C6.40298 29.1765 4.66897 27.4425 4.66897 25.3102V19.5109C4.66897 17.3786 6.40298 15.6446 8.53521 15.6446H27.8664C28.9354 15.6446 29.7995 14.7786 29.7995 13.7115C29.7995 12.6444 28.9354 11.7784 27.8664 11.7784H8.53521C4.27075 11.7784 0.802734 15.2464 0.802734 19.5109V25.3102C0.802734 28.1596 2.36856 30.6263 4.66897 31.9679V44.6414C4.66897 45.7104 5.53308 46.5745 6.60209 46.5745C7.6711 46.5745 8.53521 45.7104 8.53521 44.6414V33.0427H12.4014V44.6414C12.4014 45.7104 13.2656 46.5745 14.3346 46.5745C15.4036 46.5745 16.2677 45.7104 16.2677 44.6414V21.444C16.2677 20.3769 15.4036 19.5109 14.3346 19.5109C13.2656 19.5109 12.4014 20.3769 12.4014 21.444ZM20.1339 0.179688C19.0649 0.179688 18.2008 1.04572 18.2008 2.11281C18.2008 3.17989 19.0649 4.04592 20.1339 4.04592H38.4985C41.1643 4.04592 43.3313 6.21488 43.3313 8.87872V20.4774C43.3313 23.1413 41.1643 25.3102 38.4985 25.3102H37.532V23.3771C37.532 22.31 36.6679 21.444 35.5989 21.444H31.7326C30.6636 21.444 29.7995 22.31 29.7995 23.3771V25.3102H22.067C20.998 25.3102 20.1339 26.1743 20.1339 27.2433C20.1339 28.3124 20.998 29.1765 22.067 29.1765H38.4985C43.2946 29.1765 47.1976 25.2735 47.1976 20.4774V8.87872C47.1976 4.08265 43.2946 0.179688 38.4985 0.179688H20.1339Z" fill="#8A8A8A"/>
</g>
</svg>
