<svg width="48" height="47" viewBox="0 0 48 47" fill="none" xmlns="http://www.w3.org/2000/svg">
<mask id="mask0_0_5588" style="mask-type:luminance" maskUnits="userSpaceOnUse" x="0" y="0" width="48" height="47">
<rect x="0.619141" y="0.195312" width="46.3948" height="46.3948" fill="white"/>
</mask>
<g mask="url(#mask0_0_5588)">
<path fill-rule="evenodd" clip-rule="evenodd" d="M19.5206 29.8221C18.249 28.9724 17.2579 27.7648 16.6727 26.3518C16.0874 24.9389 15.9343 23.3842 16.2327 21.8842C16.531 20.3843 17.2675 19.0065 18.3489 17.9251C19.4303 16.8436 20.8081 16.1072 22.308 15.8088C23.808 15.5105 25.3627 15.6636 26.7757 16.2489C28.1886 16.8341 29.3962 17.8252 30.2459 19.0968C31.0955 20.3684 31.549 21.8634 31.549 23.3927C31.549 25.4435 30.7344 27.4103 29.2843 28.8604C27.8341 30.3105 25.8673 31.1252 23.8166 31.1252C22.2872 31.1252 20.7922 30.6717 19.5206 29.8221ZM21.6686 20.1781C21.0328 20.6029 20.5373 21.2067 20.2446 21.9132C19.952 22.6197 19.8754 23.397 20.0246 24.147C20.1738 24.897 20.542 25.5859 21.0827 26.1266C21.6234 26.6673 22.3123 27.0355 23.0623 27.1847C23.8123 27.3339 24.5896 27.2573 25.2961 26.9647C26.0026 26.6721 26.6064 26.1765 27.0312 25.5407C27.4561 24.9049 27.6828 24.1574 27.6828 23.3927C27.6828 22.3674 27.2755 21.384 26.5504 20.6589C25.8253 19.9338 24.842 19.5265 23.8166 19.5265C23.0519 19.5265 22.3044 19.7533 21.6686 20.1781ZM32.0181 36.4555C29.8429 34.2803 26.8927 33.0583 23.8166 33.0583C20.7404 33.0583 17.7902 34.2803 15.615 36.4555C13.4399 38.6307 12.2179 41.5809 12.2179 44.657C12.2179 45.1697 12.4215 45.6614 12.784 46.024C13.1466 46.3865 13.6383 46.5902 14.151 46.5902C14.6637 46.5902 15.1554 46.3865 15.5179 46.024C15.8804 45.6614 16.0841 45.1697 16.0841 44.657C16.0841 42.6063 16.8988 40.6395 18.3489 39.1894C19.799 37.7392 21.7658 36.9246 23.8166 36.9246C25.8673 36.9246 27.8341 37.7392 29.2843 39.1894C30.7344 40.6395 31.549 42.6063 31.549 44.657C31.549 45.1697 31.7527 45.6614 32.1152 46.024C32.4778 46.3865 32.9695 46.5902 33.4822 46.5902C33.9949 46.5902 34.4865 46.3865 34.8491 46.024C35.2116 45.6614 35.4153 45.1697 35.4153 44.657C35.4153 41.5809 34.1933 38.6307 32.0181 36.4555ZM31.1193 14.3571C29.8477 13.5075 28.8567 12.2998 28.2714 10.8869C27.6861 9.47396 27.533 7.91921 27.8314 6.41926C28.1297 4.91931 28.8662 3.54151 29.9476 2.46011C31.029 1.3787 32.4068 0.642253 33.9067 0.343893C35.4067 0.0455341 36.9614 0.198663 38.3744 0.783916C39.7873 1.36917 40.9949 2.36026 41.8446 3.63186C42.6942 4.90346 43.1478 6.39845 43.1478 7.92779C43.1478 9.97857 42.3331 11.9454 40.883 13.3955C39.4328 14.8456 37.4661 15.6603 35.4153 15.6603C33.8859 15.6603 32.3909 15.2068 31.1193 14.3571ZM33.2673 4.71313C32.6315 5.13796 32.136 5.74178 31.8433 6.44825C31.5507 7.15471 31.4741 7.93208 31.6233 8.68206C31.7725 9.43203 32.1407 10.1209 32.6814 10.6616C33.2221 11.2023 33.911 11.5706 34.661 11.7197C35.411 11.8689 36.1884 11.7924 36.8948 11.4997C37.6013 11.2071 38.2051 10.7116 38.6299 10.0758C39.0548 9.43996 39.2815 8.69246 39.2815 7.92779C39.2815 6.9024 38.8742 5.91901 38.1491 5.19395C37.4241 4.46889 36.4407 4.06155 35.4153 4.06155C34.6506 4.06155 33.9031 4.2883 33.2673 4.71313ZM43.6134 20.994C41.4389 18.8194 38.4905 17.5965 35.4153 17.5934C34.9026 17.5934 34.4109 17.7971 34.0484 18.1596C33.6858 18.5221 33.4822 19.0138 33.4822 19.5265C33.4822 20.0392 33.6858 20.5309 34.0484 20.8934C34.4109 21.256 34.9026 21.4596 35.4153 21.4596C37.4661 21.4596 39.4328 22.2743 40.883 23.7244C42.3331 25.1745 43.1478 27.1413 43.1478 29.1921C43.1478 29.7048 43.3514 30.1965 43.7139 30.559C44.0765 30.9215 44.5682 31.1252 45.0809 31.1252C45.5936 31.1252 46.0853 30.9215 46.4478 30.559C46.8103 30.1965 47.014 29.7048 47.014 29.1921C47.0109 26.1169 45.7879 23.1685 43.6134 20.994ZM7.92192 14.3571C6.65032 13.5075 5.65923 12.2998 5.07398 10.8869C4.48873 9.47396 4.3356 7.91921 4.63396 6.41926C4.93231 4.91931 5.66876 3.54151 6.75017 2.46011C7.83157 1.3787 9.20937 0.642253 10.7093 0.343893C12.2093 0.0455341 13.764 0.198663 15.1769 0.783916C16.5899 1.36917 17.7975 2.36026 18.6472 3.63186C19.4968 4.90346 19.9503 6.39845 19.9503 7.92779C19.9503 9.97857 19.1357 11.9454 17.6855 13.3955C16.2354 14.8456 14.2686 15.6603 12.2179 15.6603C10.6885 15.6603 9.19352 15.2068 7.92192 14.3571ZM10.0699 4.71313C9.43409 5.13796 8.93854 5.74178 8.64592 6.44825C8.35329 7.15471 8.27672 7.93208 8.4259 8.68206C8.57508 9.43203 8.94331 10.1209 9.48401 10.6616C10.0247 11.2023 10.7136 11.5706 11.4636 11.7197C12.2136 11.8689 12.9909 11.7924 13.6974 11.4997C14.4039 11.2071 15.0077 10.7116 15.4325 10.0758C15.8573 9.43996 16.0841 8.69246 16.0841 7.92779C16.0841 6.9024 15.6768 5.91901 14.9517 5.19395C14.2266 4.46889 13.2432 4.06155 12.2179 4.06155C11.4532 4.06155 10.7057 4.2883 10.0699 4.71313ZM6.75017 23.7244C8.20029 22.2743 10.1671 21.4596 12.2179 21.4596C12.7305 21.4596 13.2222 21.256 13.5848 20.8934C13.9473 20.5309 14.151 20.0392 14.151 19.5265C14.151 19.0138 13.9473 18.5221 13.5848 18.1596C13.2222 17.7971 12.7305 17.5934 12.2179 17.5934C9.14263 17.5965 6.19423 18.8194 4.01972 20.994C1.8452 23.1685 0.622211 26.1169 0.619141 29.1921C0.619141 29.7048 0.822808 30.1965 1.18534 30.559C1.54787 30.9215 2.03956 31.1252 2.55226 31.1252C3.06495 31.1252 3.55665 30.9215 3.91918 30.559C4.28171 30.1965 4.48538 29.7048 4.48538 29.1921C4.48538 27.1413 5.30005 25.1745 6.75017 23.7244Z" fill="#8A8A8A"/>
</g>
</svg>
