<svg width="48" height="47" viewBox="0 0 48 47" fill="none" xmlns="http://www.w3.org/2000/svg">
<mask id="mask0_0_5612" style="mask-type:luminance" maskUnits="userSpaceOnUse" x="0" y="0" width="48" height="47">
<rect x="0.767578" y="0.179688" width="46.3948" height="46.3948" fill="white"/>
</mask>
<g mask="url(#mask0_0_5612)">
<path fill-rule="evenodd" clip-rule="evenodd" d="M47.1624 39.8086C47.1624 43.5395 44.1274 46.5745 40.3965 46.5745H7.53349C3.80257 46.5745 0.767578 43.5395 0.767578 39.8086V35.9424C0.767578 32.2115 3.80257 29.1765 7.53349 29.1765H11.3997C12.4687 29.1765 13.3328 30.0406 13.3328 31.1096C13.3328 32.1786 12.4687 33.0427 11.3997 33.0427H7.53349C5.9348 33.0427 4.63382 34.3437 4.63382 35.9424V39.8086C4.63382 41.4073 5.9348 42.7083 7.53349 42.7083H40.3965C41.9952 42.7083 43.2962 41.4073 43.2962 39.8086V35.9424C43.2962 34.3437 41.9952 33.0427 40.3965 33.0427H36.5303C35.4613 33.0427 34.5972 32.1786 34.5972 31.1096C34.5972 30.0406 35.4613 29.1765 36.5303 29.1765H40.3965C44.1274 29.1765 47.1624 32.2115 47.1624 35.9424V39.8086ZM47.1624 8.87872C47.1624 12.6096 44.1274 15.6446 40.3965 15.6446H39.43V17.5778C39.43 20.7751 36.828 23.3771 33.6306 23.3771H25.8981V29.94L28.4015 27.4386C29.1574 26.6827 30.3791 26.6827 31.1349 27.4386C31.8908 28.1944 31.8908 29.4162 31.1349 30.172L26.3505 34.9584C25.036 36.271 22.9018 36.2729 21.5873 34.9584L16.8009 30.172C16.045 29.4162 16.045 28.1944 16.8009 27.4386C17.5567 26.6827 18.7784 26.6827 19.5343 27.4386L22.0319 29.9362V23.3752H14.2994C11.102 23.3752 8.50005 20.7732 8.50005 17.5758V15.6427H7.53349C3.80257 15.6427 0.767578 12.6077 0.767578 8.87679V6.94367C0.767578 3.21468 3.80257 0.179688 7.53349 0.179688H13.3328C17.0638 0.179688 20.0988 3.21468 20.0988 6.9456V8.87872C20.0988 12.6096 17.0638 15.6446 13.3328 15.6446H12.3663V17.5778C12.3663 18.6429 13.2323 19.5109 14.2994 19.5109H33.6306C34.6977 19.5109 35.5637 18.6429 35.5637 17.5778V15.6446H34.5972C30.8662 15.6446 27.8312 12.6096 27.8312 8.87872V6.9456C27.8312 3.21468 30.8662 0.179688 34.5972 0.179688H40.3965C44.1274 0.179688 47.1624 3.21468 47.1624 6.9456V8.87872ZM16.2325 8.87872V6.9456C16.2325 5.34691 14.9315 4.04592 13.3328 4.04592H7.53349C5.9348 4.04592 4.63382 5.34691 4.63382 6.9456V8.87872C4.63382 10.4774 5.9348 11.7784 7.53349 11.7784H13.3328C14.9315 11.7784 16.2325 10.4774 16.2325 8.87872ZM40.3965 4.04592H34.5972C32.9985 4.04592 31.6975 5.34691 31.6975 6.9456V8.87872C31.6975 10.4774 32.9985 11.7784 34.5972 11.7784H40.3965C41.9952 11.7784 43.2962 10.4774 43.2962 8.87872V6.9456C43.2962 5.34691 41.9952 4.04592 40.3965 4.04592Z" fill="#8A8A8A"/>
</g>
</svg>
