<svg width="65" height="65" viewBox="0 0 65 65" fill="none" xmlns="http://www.w3.org/2000/svg">
<path fill-rule="evenodd" clip-rule="evenodd" d="M64.789 5.44581C64.0674 2.16004 61.3839 0.0533859 57.9128 0.0381387C55.7483 0.0276566 53.5826 0.0303859 51.4166 0.0331156C50.4319 0.0343565 49.4471 0.0355975 48.4624 0.0355975V0.0330563V2.07157e-05C47.4544 2.07157e-05 46.4464 0.000585427 45.4384 0.00115014C43.4225 0.00227956 41.4065 0.00340898 39.3906 2.07157e-05C36.7021 -0.00506168 34.3846 0.925017 32.4864 2.82075C22.2685 13.0262 12.0532 23.2368 1.84809 33.4625C-0.634585 35.9504 -0.606633 39.3835 1.87604 41.8688C8.95814 48.9613 16.0428 56.0513 23.1427 63.126C23.6153 63.5961 24.1667 64.0256 24.7537 64.3356C27.0712 65.5579 29.6327 65.07 31.6351 63.0675C36.3735 58.3323 41.1097 53.5949 45.8458 48.8574C48.2112 46.4914 50.5767 44.1253 52.9423 41.7596C54.2442 40.4588 55.5455 39.1571 56.8468 37.8555C58.5809 36.1209 60.3149 34.3864 62.0497 32.6544C64.0165 30.6901 65.0076 28.3293 65 25.5442C64.9923 22.9343 64.9875 20.3249 64.9827 17.7156C64.9763 14.2349 64.9698 10.7543 64.9568 7.27294C64.9542 6.66305 64.9186 6.03791 64.789 5.44581ZM43.5039 36.8276C43.4524 36.8273 43.401 36.8271 43.3496 36.8271H30.0342L30.0316 36.8296C28.5172 36.8296 27.0025 36.8299 25.4877 36.8302C22.4579 36.8308 19.4276 36.8313 16.3985 36.8296C15.2881 36.8296 14.5918 36.3366 14.3504 35.4066C14.0963 34.418 14.6782 33.3939 15.6641 33.1398C15.9665 33.061 16.2893 33.0407 16.6044 33.0407C25.5669 33.0331 34.5269 33.0331 43.4894 33.0407C43.8655 33.0407 44.2593 33.0763 44.61 33.1957C45.4283 33.4702 45.9492 34.385 45.8171 35.2083C45.6747 36.1105 44.9582 36.7661 44.0459 36.8195C43.866 36.8294 43.6845 36.8285 43.5039 36.8276ZM51.5701 19.148C48.4471 19.1454 45.8399 16.528 45.8501 13.4074C45.8628 10.2639 48.4395 7.71765 51.6057 7.72781H51.6032C54.7796 7.73798 57.2851 10.2792 57.2673 13.4735C57.2521 16.5991 54.6906 19.148 51.5701 19.148ZM35.7847 24.1719C35.7542 27.3103 33.2131 29.8312 30.0748 29.8363C26.8832 29.8413 24.3624 27.3281 24.3624 24.1389C24.3624 20.9802 26.9315 18.4059 30.0774 18.4186C33.2156 18.4288 35.8127 21.0513 35.7847 24.1719ZM30.0875 40.0341C33.2233 40.0671 35.7593 42.6007 35.7796 45.7264C35.8 48.8622 33.2233 51.4441 30.0647 51.4492C26.8933 51.4542 24.3573 48.913 24.3649 45.734C24.3726 42.5626 26.9442 40.0036 30.0875 40.0341ZM30.07 22.2177C29.0078 22.2075 28.1413 23.0842 28.1514 24.1592C28.1616 25.2163 28.9925 26.0422 30.0497 26.0447C31.1296 26.0473 32.0038 25.1807 31.986 24.1211C31.9682 23.0969 31.0915 22.2279 30.07 22.2177ZM28.1514 46.1592C28.1413 45.0842 29.0078 44.2075 30.07 44.2177C31.0915 44.2279 31.9682 45.097 31.986 46.1211C32.0038 47.1807 31.1296 48.0473 30.0497 48.0447C28.9925 48.0422 28.1616 47.2163 28.1514 46.1592Z" fill="white"/>
</svg>
