<svg width="67" height="78" viewBox="0 0 67 78" fill="none" xmlns="http://www.w3.org/2000/svg">
<path fill-rule="evenodd" clip-rule="evenodd" d="M30.52 59.8478C32.9527 61.5707 34.5386 61.5158 36.867 59.6344C37.0192 59.5093 37.1768 59.3896 37.361 59.2495L37.3615 59.2492L37.3616 59.2491C37.4557 59.1776 37.5568 59.1008 37.6676 59.0154L37.6737 59.0245C37.7622 59.1689 37.8433 59.2994 37.9191 59.4214L37.9192 59.4215L37.9194 59.4219C38.0563 59.6422 38.1759 59.8346 38.2903 60.0308C39.6881 62.4156 41.0847 64.8015 42.4814 67.1876L42.4917 67.2053C44.3347 70.3537 46.1778 73.5025 48.0239 76.6492C49.0086 78.3233 50.0577 78.3355 51.1038 76.6889C51.3623 76.2818 51.6219 75.8754 51.8815 75.4691C52.6603 74.2502 53.439 73.0313 54.1868 71.7918C55.3862 69.8006 57.1378 68.895 59.4447 68.8523C61.457 68.8126 63.4725 68.6937 65.4848 68.5717C66.8622 68.4864 67.35 67.599 66.7518 66.3641C66.6505 66.1567 66.537 65.9616 66.4205 65.7634C64.405 62.3269 62.3896 58.8873 60.3772 55.4508C59.4531 53.8748 58.5321 52.2988 57.5975 50.6995L57.5961 50.6972C57.222 50.057 56.8456 49.413 56.466 48.7638C56.5841 48.7236 56.6956 48.6871 56.8024 48.6521L56.8025 48.652L56.8027 48.652C57.0038 48.5861 57.1887 48.5255 57.371 48.4558C57.5743 48.3782 57.78 48.3044 57.9857 48.2306L57.9859 48.2305L57.986 48.2305C58.5001 48.0459 59.0149 47.8611 59.4968 47.6173C60.6196 47.047 61.3742 46.1445 61.2454 44.8302C61.1043 43.3757 60.8895 41.9182 60.5766 40.4911C60.1901 38.7165 60.5552 37.201 61.7485 35.8349C62.5675 34.8988 63.3528 33.9261 64.0921 32.9259C64.948 31.7672 65.1566 30.4865 64.3406 29.2333C63.4449 27.852 62.4755 26.5133 61.4846 25.1961C60.4447 23.8117 60.0306 22.3267 60.4539 20.6252C60.606 20.0163 60.7261 19.4002 60.8462 18.7839C60.9006 18.5051 60.9549 18.2262 61.0122 17.948C61.5613 15.2921 60.8128 13.923 58.2606 12.9899C57.3526 12.6606 56.4323 12.3526 55.5028 12.0965C53.7389 11.6086 52.5977 10.52 52.0057 8.80021C51.61 7.65064 51.1744 6.51327 50.6682 5.40944C49.8952 3.7171 48.9381 3.14689 47.0791 3.37558C45.8898 3.52234 44.7151 3.79989 43.5441 4.07656C43.4013 4.11031 43.2585 4.14405 43.1157 4.17754C41.4868 4.55869 40.0481 4.25682 38.7505 3.19568C37.7474 2.37238 36.735 1.55518 35.6798 0.80201C34.5264 -0.0212894 33.2349 -0.329264 31.9557 0.454395C30.3329 1.4454 28.7347 2.48825 27.2162 3.62867C26.3021 4.31475 25.394 4.58004 24.302 4.3483C23.971 4.27795 23.6403 4.20677 23.3098 4.13561L23.3091 4.13548L23.3091 4.13547L23.3091 4.13547C22.2214 3.90133 21.1348 3.66743 20.041 3.46401C18.3078 3.14079 17.0961 3.71405 16.3384 5.29966C15.8046 6.41569 15.369 7.58356 14.9702 8.75752C14.3598 10.5535 13.1941 11.7062 11.3443 12.2306C10.197 12.5569 9.06813 12.9685 7.96072 13.4107C6.42077 14.0266 5.58945 15.1701 5.78884 16.8563C5.94222 18.137 6.1723 19.4116 6.47599 20.6649C6.90546 22.4365 6.50667 23.952 5.35937 25.3424C4.50351 26.3792 3.65377 27.4342 2.90527 28.5472C1.77639 30.2212 1.81627 31.4897 3.00037 33.1058C3.61918 33.9519 4.30463 34.7554 4.98754 35.556L4.98756 35.556L4.98762 35.5561C5.07994 35.6643 5.17222 35.7724 5.26428 35.8807C6.37476 37.1857 6.80423 38.6341 6.41157 40.3326C6.12321 41.5614 5.88701 42.8086 5.71522 44.0618C5.51582 45.5072 5.90848 46.7543 7.30425 47.4648C8.04661 47.8429 8.83806 48.1417 9.62337 48.4253C10.4854 48.7363 10.5375 48.8065 10.0897 49.5779C8.28064 52.6927 6.46856 55.8045 4.65649 58.9163L4.65613 58.9169L4.65524 58.9184L4.65382 58.9208C4.18556 59.7247 3.71593 60.5279 3.2463 61.3312C2.30686 62.9379 1.36743 64.5446 0.438903 66.1567C-0.462979 67.7241 0.0523825 68.6388 1.84694 68.7181C2.57229 68.7503 3.29801 68.7846 4.02384 68.819L4.02901 68.8193L4.0304 68.8194C5.36829 68.8828 6.70656 68.9462 8.04355 68.9956C10.0283 69.0688 11.5652 69.9287 12.6358 71.5722C13.2995 72.5921 13.9485 73.6224 14.5975 74.6528L14.5979 74.6534C15.0587 75.3849 15.5195 76.1165 15.9856 76.8444C16.9795 78.3964 18.0379 78.3812 18.9766 76.8108C19.0026 76.7666 19.0272 76.7224 19.0517 76.6782C19.0763 76.634 19.1008 76.5898 19.1269 76.5456C22.2927 71.1057 25.4615 65.6689 28.6304 60.232C29.1048 59.4189 29.7347 59.2908 30.52 59.8478ZM33.6582 7.77261C46.26 7.8275 56.1194 17.8047 56.374 30.0078C56.6501 43.2263 45.9134 53.4474 33.4343 53.3712H33.4312C20.8632 53.3742 10.9302 43.5526 10.5621 31.2793C10.1694 18.1767 20.7128 7.71468 33.6582 7.77261ZM34.6395 49.7974C23.5562 50.4316 14.3718 41.8541 14.0742 31.139C13.7705 20.2897 22.1881 11.7701 32.5229 11.3157C43.462 10.834 52.9226 19.4634 52.8612 30.7639L52.8643 30.7609C52.8183 40.6435 45.1124 49.1997 34.6395 49.7974ZM29.5095 40.9632C28.7274 41.3768 27.9458 41.7901 27.1453 42.1651C26.1177 42.6469 25.5134 42.1986 25.5379 40.86H25.5348C25.5929 40.5189 25.6532 40.1605 25.7156 39.7899C25.8708 38.8684 26.0386 37.8715 26.2159 36.8777C26.5656 34.9139 26.0594 33.2186 24.6268 31.8129C24.3117 31.5037 23.9908 31.2003 23.67 30.8971C23.0289 30.291 22.3883 29.6853 21.7954 29.035C21.461 28.666 21.1021 27.986 21.234 27.6201C21.3721 27.2451 22.0684 26.9493 22.5654 26.8487C23.3064 26.6987 24.0563 26.5969 24.8065 26.495C25.4445 26.4083 26.0828 26.3216 26.7159 26.2053C28.4429 25.8912 29.7528 24.9368 30.5749 23.3878C30.9743 22.6367 31.3461 21.8733 31.7181 21.1096C31.9003 20.7353 32.0826 20.3609 32.2683 19.9878C32.2825 19.9596 32.2966 19.9314 32.3107 19.9033C32.388 19.7487 32.4649 19.5951 32.5505 19.4481C33.21 18.3321 34.0536 18.3138 34.6641 19.4451C35.0079 20.0804 35.3262 20.7291 35.6446 21.378C35.9512 22.003 36.2579 22.628 36.5875 23.2414C36.8728 23.7689 37.2378 24.269 37.652 24.705C38.6827 25.7906 40.0202 26.2175 41.4834 26.3699C42.597 26.4888 43.7136 26.623 44.8057 26.8609C45.2566 26.9584 45.8671 27.2634 45.9928 27.6171C46.1155 27.9647 45.8241 28.5928 45.5235 28.9283C44.6891 29.8552 43.7811 30.7151 42.8608 31.5537C41.1429 33.1179 40.5815 35.0085 41.0509 37.2588C41.2994 38.448 41.5141 39.6494 41.6399 40.8539C41.6859 41.2747 41.554 41.9089 41.2656 42.1193C40.9773 42.3297 40.3239 42.2596 39.9404 42.0827C39.147 41.7183 38.3755 41.3104 37.6039 40.9024C37.1166 40.6447 36.6294 40.3871 36.1366 40.1404C34.4586 39.3049 32.7591 39.3049 31.0811 40.1465C30.5532 40.4113 30.0313 40.6873 29.5095 40.9632Z" fill="#3A3A3A"/>
</svg>
