<svg width="25" height="24" viewBox="0 0 25 24" fill="none" xmlns="http://www.w3.org/2000/svg">
<path id="Fill 1" fill-rule="evenodd" clip-rule="evenodd" d="M18.9136 16.1152C18.7875 16.4362 18.5359 16.6622 18.2606 16.863C17.8785 17.1416 17.462 17.3539 17.0012 17.4597C16.4503 17.5861 15.9078 17.598 15.3499 17.4144C14.4975 17.134 13.6633 16.8133 12.8599 16.4204C12.4756 16.2325 12.1216 15.9814 11.7612 15.7478C11.2157 15.3943 10.7312 14.9645 10.2846 14.4976C9.93926 14.1365 9.62091 13.7489 9.3049 13.3615C9.0675 13.0706 8.83344 12.7734 8.63274 12.4572C8.326 11.9741 7.99249 11.5079 7.73703 10.9912C7.54205 10.5968 7.37841 10.1934 7.27419 9.77053C7.20276 9.48085 7.18944 9.17703 7.15015 8.8795C7.15717 8.32483 7.27509 7.80027 7.53009 7.31402C7.64755 7.09 7.81272 6.88932 7.96713 6.6862C8.05696 6.56806 8.16558 6.46345 8.27038 6.35731C8.57145 6.05247 8.92538 5.90534 9.363 5.98634C9.5048 6.01259 9.65286 6.01747 9.79751 6.01329C9.98508 6.00788 10.1315 6.08325 10.2128 6.23781C10.3215 6.44439 10.4072 6.6638 10.4912 6.88212C10.7291 7.50066 10.951 8.12547 11.1994 8.73975C11.3371 9.08034 11.2497 9.36491 11.0384 9.62547C10.8407 9.86944 10.6261 10.1009 10.4089 10.3283C10.1696 10.5788 10.1432 10.7004 10.3207 10.9922C10.5262 11.3299 10.7204 11.6771 10.9552 11.994C11.34 12.5133 11.7596 13.007 12.2813 13.4003C12.611 13.6489 12.9435 13.895 13.2887 14.1212C13.4949 14.2562 13.7284 14.3498 13.949 14.4633C14.0596 14.5202 14.1666 14.5844 14.2795 14.6363C14.346 14.6668 14.4198 14.6836 14.4919 14.6995C14.72 14.7501 14.844 14.5946 14.9725 14.4528C15.1282 14.2811 15.2824 14.1081 15.435 13.9336C15.5624 13.7879 15.6855 13.6382 15.8126 13.4922C15.8777 13.4173 15.941 13.3388 16.0167 13.2756C16.1404 13.1723 16.2857 13.1907 16.4171 13.2532C16.8021 13.4363 17.1841 13.6255 17.5642 13.8184C17.9662 14.0223 18.3658 14.2309 18.7637 14.4425C18.8691 14.4986 18.965 14.5725 19.0644 14.6396C19.1778 14.7161 19.1811 14.8453 19.1778 14.9532C19.1653 15.3558 19.0598 15.743 18.9136 16.1152ZM24.5865 9.42183C24.4947 8.94273 24.3669 8.46791 24.2176 8.00301C24.082 7.58062 23.9093 7.16837 23.7282 6.7625C23.601 6.47738 23.4364 6.20822 23.2813 5.93601C23.1406 5.68922 23.0035 5.43877 22.8413 5.20606C22.4753 4.6809 22.0894 4.17116 21.6427 3.70768C21.1568 3.20367 20.6477 2.72808 20.0738 2.32405C19.7662 2.10753 19.4645 1.88087 19.1436 1.68569C18.8048 1.47963 18.4545 1.28786 18.0941 1.12227C17.685 0.934319 17.2642 0.768308 16.8391 0.618986C16.4846 0.494422 16.1209 0.387567 15.7535 0.309282C15.2849 0.209451 14.8098 0.137044 14.3351 0.0694446C13.6137 -0.0332503 12.885 -0.000396888 12.163 0.0316346C11.6086 0.0561937 11.0578 0.183697 10.5081 0.280763C9.92351 0.383956 9.36647 0.582072 8.81053 0.786715C8.10662 1.04583 7.4446 1.3845 6.81229 1.78094C6.46247 2.00027 6.11574 2.22863 5.79154 2.48304C5.45381 2.74808 5.13072 3.03532 4.82705 3.3384C4.47321 3.69159 4.12851 4.05736 3.81382 4.44488C3.34729 5.01937 2.95413 5.64409 2.60559 6.29842C2.33675 6.80312 2.11277 7.32576 1.92147 7.86076C1.71926 8.42617 1.56159 9.00799 1.4682 9.60174C1.39736 10.0521 1.34775 10.5073 1.31738 10.9622C1.28846 11.3952 1.27093 11.832 1.29448 12.2647C1.33308 12.975 1.41208 13.6813 1.58958 14.3758C1.73965 14.9631 1.91661 15.5388 2.14497 16.1007C2.363 16.6373 2.61798 17.1537 2.91945 17.6486C2.94987 17.6985 2.95182 17.7845 2.93246 17.8423C2.77858 18.3029 2.61489 18.7603 2.45697 19.2197C2.28173 19.7295 2.10776 20.2398 1.93617 20.7509C1.71884 21.3984 1.50712 22.0477 1.28789 22.6945C1.13987 23.1312 0.983007 23.5649 0.830078 24H0.980424C1.22687 23.9084 1.47181 23.8125 1.72027 23.7266C1.9078 23.6618 2.10016 23.6109 2.28975 23.5519C2.7757 23.4006 3.26225 23.2511 3.74674 23.0955C4.16442 22.9614 4.57834 22.8157 4.9963 22.6824C5.40601 22.5517 5.81921 22.4319 6.22992 22.3042C6.57773 22.1961 6.92341 22.0811 7.27213 21.976C7.32442 21.9602 7.39762 21.9641 7.44512 21.989C8.02918 22.2954 8.62735 22.5719 9.2576 22.768C9.76246 22.9251 10.2746 23.0627 10.7899 23.1817C11.107 23.2548 11.4364 23.2745 11.7597 23.3218C12.326 23.4048 12.897 23.4176 13.4656 23.3896C13.961 23.3652 14.4572 23.3104 14.9468 23.2309C15.4398 23.1509 15.9269 23.0315 16.4128 22.914C16.6212 22.8637 16.8217 22.7787 17.0231 22.7022C17.3209 22.5891 17.6253 22.488 17.9104 22.3485C18.345 22.136 18.7699 21.9026 19.1905 21.6635C19.449 21.5165 19.7034 21.3571 19.9392 21.1768C20.3101 20.8932 20.6674 20.5916 21.0239 20.2899C21.491 19.8945 21.8972 19.4405 22.2665 18.9556C22.5182 18.625 22.756 18.2835 22.9893 17.9396C23.1464 17.708 23.3048 17.4735 23.4268 17.2231C23.6483 16.7679 23.8445 16.3006 24.0484 15.8371C24.1098 15.6976 24.1725 15.5571 24.2164 15.4117C24.3911 14.8329 24.572 14.2551 24.6477 13.6524C24.7004 13.2323 24.7485 12.8116 24.8002 12.3914C24.8028 12.3697 24.8198 12.3498 24.8301 12.3291V11.06C24.8195 11.031 24.8032 11.0028 24.7992 10.973C24.7296 10.4556 24.6847 9.93369 24.5865 9.42183Z" fill="#00A884"/>
</svg>
